<svg xmlns="http://www.w3.org/2000/svg" width="171" height="124" fill="none"><path d="M88.48 9.441c.46-3.65 1.73-3.82 4.13-3.18a2.31 2.31 0 01.63-3c-1.3 0-2.9-.16-3.95.81-1.21 1.08-1.43 3.2-.81 5.37zm6.19-2.41a1.72 1.72 0 001.72-1.12 2 2 0 00-.61-2.16 1.85 1.85 0 00-2.17.1 2 2 0 00-.63 1.53 1.66 1.66 0 001.7 1.64l-.01.01zm-14.65-2.42c.436.31.89.594 1.36.85a8.62 8.62 0 013.3 3.81 5.06 5.06 0 00-1-4.38 4.151 4.151 0 00-2.9-1.5c-1.39-.08-1.68.55-.76 1.22zm6.26-3.13a10.78 10.78 0 01-4.07-1 16.47 16.47 0 00-10 1.07c-2.05 1-2.7 2.26-4.18 3.25-.542-.097-1.09-.16-1.64-.19-6 0-14.86 7.36-14.86 12.46-.12 2.73 2.69 4.8 5.88 6.35a49 49 0 0012.54 4.19 89.75 89.75 0 0014.44 1.21h1.68c6.49 0 13.44-.65 18.43-2.19 3.17-1 13.94-3.67 13.94-6.91a.59.59 0 00-.72-.48H117a32.18 32.18 0 00-4.9 1.74 57.162 57.162 0 01-7.76 2.62 77.248 77.248 0 01-9.49 1.8 70.12 70.12 0 01-18.62-.07 48.776 48.776 0 01-6.91-1.37c-3.06-1.06-8.88-2.77-10.35-5a34.541 34.541 0 005.62 2.31 74.228 74.228 0 0012.44 2.47 80.456 80.456 0 0018.29-.28c4.72-.63 9.49-1.82 10.4-3.06-.89.07-2.71.58-4 .82a76.63 76.63 0 01-13.71 1.27c-2.53 0-5.06-.1-7.41-.31-1.1-.1-2.2-.24-3.15-.38-2.42-.37-2.71-.44-3.8-1.17a3.89 3.89 0 00-1.2-.72c-.35-.06-.79.09-1.45.07a1.42 1.42 0 01-1.18-.39c-.41-.66-.3-1.11-.59-1.44a1.66 1.66 0 00-1.91-.32c-.76.25-1.4.42-1.93-.3a2.23 2.23 0 01-.39-1.08c-.06-.48 0-1.8-.77-1.8s-2.16.62-2.16-.24c0-1.29 2.88-1.75 2.88-3.83a2.34 2.34 0 00-1.92-1.68 6.15 6.15 0 00-3.15 1 12.091 12.091 0 014.22-3.09 3 3 0 013.58.66 10.86 10.86 0 013.82 8.78l.87.83v-1.47A21.261 21.261 0 0071 8.871c-.69-2.45-.36-3.9 2.22-5.1a15.6 15.6 0 013.7-1.15 10.88 10.88 0 014.06 0c4.57 1 5.39 6.64 5.54 12.51l.08 1.54.85-.83c.17-1.437.26-2.882.27-4.33-.07-1.73-.41-3.21-.39-5a3.829 3.829 0 011.49-3.22c2.16-1.5 6-.93 8.33-.13 2.08.73 4.08 1.86 4.77 2.79 1.68 2.25 1.51 4.34 1.46 8-.054.938-.024 1.878.09 2.81 2-2 .66-9.77 2.95-9.77h1c1.26 0 3.23 1.32 4.7 2.53a12.56 12.56 0 013.08 3.8c1 1.73 2.19 3.73 2.77 3.73a.999.999 0 00.72-1c0-1.08-.9-2.73-1.87-4.14a15.81 15.81 0 00-8.13-6.48 25.943 25.943 0 00-4.17-.86c-1.77-.26-2-1-3.27-2a13.12 13.12 0 00-8-2.57h-.24c-3 0-5.08 1.44-6.71 1.44l-.02.04zm-20.61 6.55c.272.349.612.638 1 .85a5.12 5.12 0 001.72.56 7 7 0 00-.95-1.41 2.08 2.08 0 00-1.41-.58c-.62 0-.69.16-.39.58h.03zm26.5 41.58c-3.95-4.43-8.2-6.49-12.75-6.27l.07.79c4.88.05 9 2.85 12.64 7l.04-1.52zm-54.2-21.66a7.53 7.53 0 01-3.59-5.44c-.1-.67-.3-1.45.56-1.62a8.36 8.36 0 013.6.58 8 8 0 011.83 1c1.44 1 2.67 2.07 2.55 4a2.321 2.321 0 01-.95 1.86c-1.09.72-3 .2-4-.35v-.03zm1.79 6.31c-1.61-.8-3.07-2.25-3.07-3.23 0-1.15 3.84-1.92 5.51-1.92a6 6 0 013.39 1c1.22.78 2 2.29 1 3.6a2.7 2.7 0 01-1.16.86 7.54 7.54 0 01-5.68-.31h.01zm5-5.64a7.815 7.815 0 01-1-2.11 9.51 9.51 0 01-.17-4.1 1.16 1.16 0 011.08-1.2c1.39 0 3.38 1.75 4.39 3.44.74 1.23 1 3.37.15 4.62-1.23 1.58-3.53.66-4.49-.66l.04.01zm10 8.16c0 1.25-1.4 2.38-2.87 2.86a8.85 8.85 0 01-3.78.06c-2.1-.35-4.14-1.26-4.14-2.68 0-1 1.9-2.08 3.75-2.75a8.14 8.14 0 013.12-.45c2 0 3.91.85 3.91 3l.01-.04zm-.17-2.69c-1.44 0-2.77-1.36-3.49-2.7-.82-1.51-1.12-4.55-.26-6.17.51-.95 1.32-.7 2.14-.28 2.08 1.07 4.15 4.14 4.16 6.27 0 1.55-.82 2.87-2.32 2.87h-.24l.01.01zm8.08 5.8c0 2.86-3.27 4.07-6.23 4.07a8.63 8.63 0 01-4.37-1.16 1.092 1.092 0 010-1.72 17.423 17.423 0 013-2.77 7.4 7.4 0 014-1c1.58.11 3.59.57 3.59 2.59l.01-.01zm-3.71-4.1a6.459 6.459 0 01-1.26-3.19c-.18-1.44-.62-5.17 1.25-5.15a4.38 4.38 0 012.42 1.13 9.39 9.39 0 012.76 3.52c.62 1.54.75 3 0 4.12a2.64 2.64 0 01-2.6 1.15 3.2 3.2 0 01-2.58-1.58h.01zm11.86 7.22c0 1.63-1.85 3.36-3.76 4.23a10 10 0 01-5.67.37c-.91-.19-1.88-.62-1.89-1.32 0-1.74 3.22-4.92 5.79-5.92a6.48 6.48 0 013.51-.2 2.37 2.37 0 012 2.29v.48l.02.07zm-.48-2.87c-2.51 0-4.32-2-5-4.38a10.59 10.59 0 01-.12-4.63c.2-.92.59-1.78 1.27-1.78h.24a4.53 4.53 0 012.31 1.3 8.91 8.91 0 013.21 4.56 8.23 8.23 0 01.24 2c-.1 1.14-1.05 2.87-2.23 2.87l.08.06zm5.75 2.16a7.77 7.77 0 01-3.36-6.71v-1.68c0-5.4 7.67.79 7.67 4.79v1a2.49 2.49 0 01-1.68 2.4 3.6 3.6 0 00.23 2.21 3.742 3.742 0 01-.57 3 8.74 8.74 0 01-3.33 2.59c-1.58.72-5.76 1.3-6.87-.35a9.34 9.34 0 012.45-4.5 9.46 9.46 0 013-2.17 6.17 6.17 0 012.44-.52l.02-.06zm4.74 7.33c3.95-4.43 8.2-6.49 12.75-6.27l-.07.79c-4.88.05-9 2.85-12.64 7l-.04-1.52zm54.2-21.66a7.522 7.522 0 003.59-5.44c.1-.67.3-1.45-.56-1.62a8.36 8.36 0 00-3.6.58 8.01 8.01 0 00-1.83 1c-1.44 1-2.67 2.07-2.55 4a2.32 2.32 0 00.95 1.86c1.01.62 2.93.1 3.91-.44l.09.06zm-1.79 6.31c1.61-.8 3.07-2.25 3.07-3.23 0-1.15-3.84-1.92-5.51-1.92a6 6 0 00-3.39 1c-1.22.78-2 2.29-1 3.6.301.387.702.684 1.16.86a7.54 7.54 0 005.68-.31h-.01zm-5-5.64a7.813 7.813 0 001-2.11 9.521 9.521 0 00.17-4.1 1.159 1.159 0 00-1.08-1.2c-1.39 0-3.38 1.75-4.39 3.44-.74 1.23-1 3.37-.15 4.62 1.15 1.56 3.45.64 4.4-.68l.05.03zm-10 8.16c0 1.25 1.4 2.38 2.87 2.86a8.85 8.85 0 003.78.06c2.1-.35 4.14-1.26 4.14-2.68 0-1-1.9-2.08-3.75-2.75a8.142 8.142 0 00-3.12-.45c-2 0-3.91.85-3.91 3l-.01-.04zm.16-2.69c1.44 0 2.77-1.36 3.49-2.7.82-1.51 1.12-4.55.26-6.17-.51-.95-1.32-.7-2.14-.28-2.08 1.07-4.15 4.14-4.16 6.27 0 1.55.82 2.87 2.32 2.87h.22l.01.01zm-8.08 5.8c0 2.86 3.27 4.07 6.23 4.07a8.63 8.63 0 004.37-1.16 1.092 1.092 0 00.31-1.338 1.092 1.092 0 00-.31-.381 17.427 17.427 0 00-3-2.77 7.402 7.402 0 00-4-1c-1.58.11-3.59.57-3.59 2.59l-.01-.01zm3.71-4.1a6.459 6.459 0 001.26-3.19c.18-1.44.62-5.17-1.25-5.15a4.378 4.378 0 00-2.42 1.13 9.391 9.391 0 00-2.76 3.52c-.62 1.54-.75 3 0 4.12a2.636 2.636 0 002.6 1.15 3.198 3.198 0 002.58-1.58h-.01zm-11.86 7.22c0 1.63 1.85 3.36 3.76 4.23a10 10 0 005.61.44c.91-.19 1.88-.62 1.89-1.32 0-1.74-3.22-4.92-5.79-5.92a6.48 6.48 0 00-3.51-.2 2.372 2.372 0 00-2 2.29v.48h.04zm.48-2.87c2.51 0 4.32-2 5-4.38.381-1.515.422-3.096.12-4.63-.2-.92-.59-1.78-1.27-1.78h-.24a4.53 4.53 0 00-2.31 1.3 8.91 8.91 0 00-3.21 4.56 8.22 8.22 0 00-.24 2c0 1.12.97 2.85 2.16 2.85l-.01.08zm-5.75 2.16a7.769 7.769 0 003.36-6.71v-1.68c0-5.4-7.67.79-7.67 4.79v1a2.49 2.49 0 001.68 2.4 3.6 3.6 0 01-.23 2.21 3.742 3.742 0 00.57 3 8.74 8.74 0 003.33 2.59c1.58.72 5.76 1.3 6.87-.35a9.34 9.34 0 00-2.45-4.5 9.459 9.459 0 00-3-2.17 6.17 6.17 0 00-2.44-.52l-.02-.06zM.75 106.031h169.57v1.95H.75v-1.95zm3.64-37.55c-.16.47-.37 1.09-.66 1.87-.29.78-.52 1.48-.72 2.07-.2.59-.36 1.13-.49 1.6H0l7.62-18.58c.33.053.665.08 1 .08a6.71 6.71 0 001-.08l7.43 18.61-1.17-.06h-2.29l-1.12.06c-.8-2.58-1.44-4.44-1.89-5.57H4.39zm5.59-1.64l-2.32-6.23-2.5 6.25h4.87l-.05-.02zm15.66-1.609a7.102 7.102 0 00-.93-.05 7.751 7.751 0 00-1 .05v8.82c-.227 0-.56-.016-1-.05h-2c-.45 0-.77.05-1 .05v-18.37c.334.01.668.037 1 .08a6.202 6.202 0 002 0c.332-.043.665-.07 1-.08v7.4h2.1a9.61 9.61 0 011.64-4.09 8.629 8.629 0 013.36-2.8 11 11 0 014.79-1 10.32 10.32 0 014.45.86 7.59 7.59 0 012.88 2.26 9 9 0 011.53 3.05c.312 1.1.47 2.237.47 3.38a10.337 10.337 0 01-.67 3.73 9.06 9.06 0 01-5.14 5.19 10.89 10.89 0 01-4.14.76 10.47 10.47 0 01-4.87-1.08 7.74 7.74 0 01-3.25-3.17 10.3 10.3 0 01-1.2-4.95l-.02.01zm4.42.4a10 10 0 001.22 5.09 4.11 4.11 0 003.82 2.1 4.22 4.22 0 003-1.17 6.94 6.94 0 001.79-3.13c.393-1.392.585-2.833.57-4.28a12.231 12.231 0 00-.51-3.54 6.27 6.27 0 00-1.66-2.79 4 4 0 00-2.9-1.1 4.729 4.729 0 00-2.28.54 4.51 4.51 0 00-1.69 1.64 8.478 8.478 0 00-1 2.76 18.887 18.887 0 00-.36 3.86v.02zm23.19 8.419l-1-.06h-2l-1 .06v-16.44c-1.673.013-3.344.14-5 .38.09-.63.13-1 .13-1.16 0-.16 0-.51-.13-1.13h13.7c0 .17 0 .31-.08.43s0 .24-.06.38 0 .24 0 .33v.34c0 .14 0 .27.06.39s0 .26.08.43a42.457 42.457 0 00-4.76-.38v16.46l.06-.03zm6.84-18.37l.78.08.67.06h1.11l.67-.06.76-.08v12.58a84.733 84.733 0 002.61-2.95 130.52 130.52 0 002.66-3.24 158.86 158.86 0 002.57-3.33 116.246 116.246 0 002.28-3.13c.283.017.567.017.85 0h1.17v18.43l-1-.06h-2l-1 .06v-12.67c-.78.894-1.567 1.817-2.36 2.77-.793.954-1.7 2.067-2.72 3.34a224.358 224.358 0 00-5.06 6.55h-1.99v-18.35zm20.58.001l.78.08.67.06h1.11l.67-.06.76-.08v7.27c2.21.09 3.57.13 4.07.13.5 0 1.77 0 4.08-.13v-7.27l.76.08.66.06h1.14l.67-.06.76-.07v18.37l-1-.06h-2l-1 .06v-8.95c-1.85-.07-3.21-.11-4.08-.11-.87 0-2.3 0-4.07.11v8.95l-1-.06h-2l-1 .06v-18.38h.02zm34.93 15.28l-.58 2.31a11.4 11.4 0 01-5.27 1.15 11.94 11.94 0 01-3.95-.63 9.58 9.58 0 01-3.2-1.83 8.33 8.33 0 01-2.12-2.88 8.931 8.931 0 01-.75-3.7 11.47 11.47 0 01.82-4.49 8.504 8.504 0 012.27-3.2 9.677 9.677 0 013.36-1.88 13.447 13.447 0 014.14-.62c.96.006 1.917.124 2.85.35a9.707 9.707 0 012.58 1c-.1.41-.21.88-.32 1.43-.11.55-.21 1-.29 1.33h-.37a5.635 5.635 0 00-2-1.79 4.998 4.998 0 00-2.46-.68 5.42 5.42 0 00-2.78.69 5.744 5.744 0 00-2 1.89 8.758 8.758 0 00-1.12 2.63 12.28 12.28 0 00-.36 3 10.477 10.477 0 00.74 4.07 6 6 0 002.17 2.75 5.889 5.889 0 003.42 1 6.395 6.395 0 002.53-.57 7.202 7.202 0 002.24-1.44l.45.11zm1.9-15.28l.86.08c.5 0 .87.08 1.13.08h.56l.67-.06.76-.08v8.39a229.667 229.667 0 006.92-8.39l.53.08.48.06h.43c.268-.011.535-.038.8-.08l.61-.08v.21a81.174 81.174 0 00-3.81 3.93c-1.33 1.46-2.36 2.62-3.09 3.5l7.43 10.38v.35l-1.15-.06h-2.26l-1.12.06-5.78-8.5v8.5l-1-.06h-2l-1 .06v-18.37h.03zm16.17-.001l.78.08.67.06h1.11l.67-.06.76-.08v12.58a85.362 85.362 0 002.61-2.95 130.296 130.296 0 002.66-3.24 158.523 158.523 0 002.57-3.33 114.517 114.517 0 002.28-3.13c.283.017.567.017.85 0h1.17v18.43l-1-.06h-2l-1 .06v-12.67c-.78.894-1.567 1.817-2.36 2.77-.793.954-1.7 2.067-2.72 3.34a224.358 224.358 0 00-5.06 6.55h-1.99v-18.35zm20.58.001l.78.08.67.06h1.11l.67-.06.76-.08v12.59a85.55 85.55 0 002.61-2.95 130.664 130.664 0 002.66-3.24 159.045 159.045 0 002.57-3.33c.867-1.153 1.637-2.2 2.31-3.14.283.016.567.016.85 0h1.17v18.43l-1-.06h-2l-1 .06v-12.67c-.78.893-1.567 1.817-2.36 2.77-.793.953-1.7 2.067-2.72 3.34a223.883 223.883 0 00-5.06 6.55h-1.99v-18.35h-.03zm2.52-4.62a7.694 7.694 0 005.56 2.52 7.864 7.864 0 005.7-2.58l1 1.37a10.374 10.374 0 01-2.06 1.61 9.51 9.51 0 01-2.33 1 9.148 9.148 0 01-2.45.34 9.002 9.002 0 01-3.47-.69 9.43 9.43 0 01-3.08-2.1l1.13-1.47zM7.93 118.801l-.54 1.15a6.465 6.465 0 01-2.75.57 5.664 5.664 0 01-1.72-.25 3.995 3.995 0 01-1.35-.72 3.171 3.171 0 01-.87-1.13 3.47 3.47 0 01-.3-1.47 4.501 4.501 0 01.09-.92 6.689 6.689 0 01.85-2.23 5.582 5.582 0 011.45-1.59 6.143 6.143 0 011.87-.94 7.352 7.352 0 012.13-.31c.47.003.936.064 1.39.18.424.094.829.256 1.2.48 0 .1-.12.29-.24.57l-.34.8h-.18a2.107 2.107 0 00-.8-.89 2.183 2.183 0 00-1.17-.34 3.095 3.095 0 00-1.86.59 4.52 4.52 0 00-1.33 1.52c-.341.625-.58 1.3-.71 2-.077.382-.118.77-.12 1.16a2.88 2.88 0 00.65 2 2.393 2.393 0 001.88.73c.295-.004.587-.047.87-.13a4.799 4.799 0 001.71-.88l.19.05zm.78.71l.64-1 1-1.66c.3-.49.58-1 .85-1.44.27-.44.54-1 .79-1.47h1.36l.2 1.3.26 1.62c.06.39.13.81.21 1.26.08.45.17.93.26 1.43h.68a2.608 2.608 0 00-.17.58c-.033.195-.05.392-.05.59h-.13a.771.771 0 00-.44-.27 3.506 3.506 0 00-.79-.1H9.23a4.27 4.27 0 00-.82.1c-.21.049-.407.141-.58.27h-.12c.1-.183.163-.383.19-.59a3.221 3.221 0 000-.58h.77l.04-.04zm3.59 0l-.51-3.78a177.244 177.244 0 00-2.08 3.78h2.59zm5.17-2.38a3.89 3.89 0 00-.11.83c-.023.436.12.865.4 1.2a1.546 1.546 0 001.21.45 2.5 2.5 0 00.85-.17 3.51 3.51 0 00.83-.43l.12.12-.43.74a4.15 4.15 0 01-1 .44 3.842 3.842 0 01-2.62-.15 2.155 2.155 0 01-1-.89 2.802 2.802 0 01-.33-1.4 4.362 4.362 0 01.09-.91 4.309 4.309 0 01.7-1.66 3.63 3.63 0 011.31-1.14 3.765 3.765 0 011.74-.4 1.998 1.998 0 012.27 2.23c-.002.38-.042.758-.12 1.13h-3.95l.04.01zm2.23-.64c.07-.329.106-.664.11-1 0-.773-.213-1.16-.64-1.16-.7 0-1.223.71-1.57 2.13h2.11l-.01.03zm4.85-.76c-1.16 2.06-1.997 3.597-2.51 4.61h-1.06a.884.884 0 01.16-.31c.37-.56.7-1.07 1-1.56l1-1.66c.29-.49.58-1 .85-1.44.27-.44.54-1 .8-1.47h1.36l.19 1.24.29 1.83c.11.68.21 1.25.3 1.71.09.46.19 1 .31 1.65H25.2l-.65-4.6zm8.49 3.47a2.085 2.085 0 000 .25.299.299 0 00.12.28c.147.067.31.095.47.08l-.05.31a4 4 0 01-1.29.36 1.082 1.082 0 01-.74-.26 1.18 1.18 0 01-.38-.71 2.382 2.382 0 01-.86.71 2.28 2.28 0 01-1 .26 1.797 1.797 0 01-1.16-.34 1.194 1.194 0 01-.43-1 2.616 2.616 0 010-.43c.056-.366.208-.711.44-1 .243-.266.544-.471.88-.6a10.07 10.07 0 011.5-.46 4.372 4.372 0 001-.35.86.86 0 00.31-.52 1.2 1.2 0 00-.3-.85.995.995 0 00-.74-.32 2.192 2.192 0 00-.78.15 2.812 2.812 0 00-.67.34 1.049 1.049 0 00-.34.33h-.1v-.79a3.906 3.906 0 011.25-.66c.448-.15.917-.227 1.39-.23.269.001.537.027.8.08.247.046.486.126.71.24.205.106.38.26.51.45.131.198.198.432.19.67a1.61 1.61 0 010 .34l-.73 3.67zm-1.37-2.32l-.43.14c-.22.06-.41.13-.56.19a2.007 2.007 0 00-.43.23 1.7 1.7 0 00-.65 1.12c-.013.12-.013.24 0 .36a.56.56 0 00.56.69c.667 0 1.104-.48 1.31-1.44l.2-1.29zm5.15-.32h2.24l.52-2.65c.39 0 .69.05.9.05.21 0 .54 0 .93-.05l-1.25 6.44h-.91c-.2 0-.51 0-.93.05l.58-3h-2.24l-.59 3h-.91c-.19 0-.5 0-.93.05l1.26-6.44c.407.033.71.05.91.05.2 0 .51-.017.93-.05l-.51 2.55zm16.77-.81h-.31a1.66 1.66 0 00-.28-1 1.007 1.007 0 00-.83-.37 1.439 1.439 0 00-1 .42 3.21 3.21 0 00-.72 1c-.177.38-.312.78-.4 1.19a4.769 4.769 0 00-.1.93 1.45 1.45 0 00.938 1.604c.212.076.439.102.662.076.279-.004.553-.062.81-.17.267-.102.512-.255.72-.45l.19.18-.48.79a2.24 2.24 0 01-.88.38 4.386 4.386 0 01-1 .14 3.317 3.317 0 01-2.16-.64 2.21 2.21 0 01-.79-1.82 4.647 4.647 0 01.61-2.2 3.99 3.99 0 012.18-1.81 4.52 4.52 0 011.49-.24c.401-.001.8.046 1.19.14.361.072.703.222 1 .44l-.84 1.41zm6.6 3.77l.64-1 1-1.66c.3-.49.58-1 .85-1.44.27-.44.54-1 .79-1.47h1.36l.2 1.3.26 1.62c.06.39.13.81.21 1.26.08.45.17.93.26 1.43h.63a2.608 2.608 0 00-.17.58c-.033.195-.05.392-.05.59h-.13a.771.771 0 00-.44-.27 3.536 3.536 0 00-.78-.1H60.7c-.276.007-.55.041-.82.1-.21.049-.407.141-.58.27h-.12c.1-.183.164-.383.19-.59a3.21 3.21 0 000-.58h.77l.05-.04zm3.59 0l-.51-3.78a177.526 177.526 0 00-2.08 3.78h2.59zm5.09.79l-1.45-6.4h1.97c.067.427.147.88.24 1.36.094.48.187.963.28 1.45.1.49.19.93.28 1.32l.78-1.36.51-.91.62-1.11.42-.76h1.1l-1.93 3c-1.686 2.667-3.05 4.933-4.09 6.8a4.2 4.2 0 00-1.12 0l2.39-3.39zm8.31 0c-1.9 0-3.26.017-4.08.05l1.26-6.44c.302.04.606.057.91.05a5.67 5.67 0 00.93-.05l-1.09 5.61h1.28l1.09-5.61c.302.041.606.057.91.05a5.67 5.67 0 00.93-.05l-1.09 5.61h1.31l1.09-5.61c.302.036.606.053.91.05.31.003.621-.013.93-.05l-1.25 6.44h-4.1l.06-.05zm5.61-3c.096-.501.272-.984.52-1.43.233-.42.538-.795.9-1.11.354-.308.76-.548 1.2-.71a4.071 4.071 0 011.42-.25 3.61 3.61 0 011.52.3c.412.176.76.472 1 .85.24.397.362.856.35 1.32a3.66 3.66 0 01-.08.73 4.526 4.526 0 01-.77 1.81 3.998 3.998 0 01-3.33 1.7 3.504 3.504 0 01-1.49-.3 2.203 2.203 0 01-1-.86 2.481 2.481 0 01-.34-1.32c0-.246.027-.49.08-.73h.02zm2 0a5.92 5.92 0 00-.11 1.07c0 1.053.333 1.58 1 1.58a1.592 1.592 0 001.26-1 7.05 7.05 0 00.79-2.18c.06-.293.09-.591.09-.89a2.08 2.08 0 00-.25-1.09.82.82 0 00-.74-.41 1.487 1.487 0 00-1.27.79 5.995 5.995 0 00-.76 2.08l-.01.05zm7.45.73c.287-.293.584-.607.89-.94.3-.34.6-.67.88-1l.81-1 .92-1.15h1.37l-1.25 6.44h-.91c-.2 0-.51 0-.94.05l.8-4.1a41.514 41.514 0 00-3.52 4.1h-1.36l1.26-6.44h1.84l-.79 4.04zm.11-6.37a2.58 2.58 0 002 1c.422-.004.84-.089 1.23-.25a5.35 5.35 0 001.27-.74l.32.57a5.162 5.162 0 01-1.45.84 4.286 4.286 0 01-1.51.29 3.268 3.268 0 01-1.35-.28 3 3 0 01-1.09-.84l.58-.59zm13.38 6.37c.287-.293.583-.607.89-.94.3-.34.6-.67.88-1l.81-1 .93-1.15h1.36l-1.25 6.44h-.91c-.2 0-.51 0-.93.05l.8-4.1a41.513 41.513 0 00-3.52 4.1h-1.36l1.26-6.44c.407.033.71.05.91.05.2 0 .51-.017.93-.05l-.8 4.04zm14.11-2.23c-1.16 2.06-1.997 3.597-2.51 4.61h-1.06a.906.906 0 01.16-.31c.37-.56.7-1.07 1-1.56l1-1.66c.29-.49.58-1 .85-1.44.27-.44.54-1 .8-1.47h1.36l.19 1.24.29 1.83c.11.68.21 1.25.3 1.71.09.46.19 1 .31 1.65h-2.05l-.64-4.6zm6.76.82a4.27 4.27 0 01.82-1.47 3.73 3.73 0 011.29-1 3.791 3.791 0 011.59-.34c.499-.012.994.087 1.45.29.392.177.721.47.94.84.223.396.333.846.32 1.3a3.9 3.9 0 01-.08.77 4.782 4.782 0 01-.73 1.81 3.752 3.752 0 01-3.2 1.7 3.262 3.262 0 01-1.44-.29 2.007 2.007 0 01-.91-.84 2.595 2.595 0 01-.31-1.3c.003-.228.023-.455.06-.68h-.89l-.59 3h-1.85l1.26-6.44h1.83l-.52 2.65h.96zm1.81.67a7.214 7.214 0 00-.16 1.35c0 .867.29 1.3.87 1.3a1.092 1.092 0 00.84-.41c.268-.325.472-.699.6-1.1.186-.533.336-1.077.45-1.63.073-.329.113-.664.12-1a1.938 1.938 0 00-.21-1 .687.687 0 00-.64-.36c-.873 0-1.497.957-1.87 2.87v-.02zm12.72-6l-.09.24a2.532 2.532 0 00-.09.32v.59a9.031 9.031 0 00-1.92-.17 5.512 5.512 0 00-2 .32c-.487.173-.921.47-1.26.86a2.705 2.705 0 00-.57 1.19 3.88 3.88 0 011.13-.58c.416-.14.852-.211 1.29-.21a3.627 3.627 0 011.52.3c.412.176.76.472 1 .85.241.397.362.856.35 1.32a3.66 3.66 0 01-.08.73 4.537 4.537 0 01-.77 1.81 3.996 3.996 0 01-3.33 1.7 3.507 3.507 0 01-1.49-.3 2.208 2.208 0 01-1-.86 2.487 2.487 0 01-.34-1.32c0-.246.027-.49.08-.73.185-1.063.476-2.105.87-3.11a4.452 4.452 0 011.29-1.79 4.713 4.713 0 012.08-.89 17.944 17.944 0 013.37-.25l-.04-.02zm-5.62 6a5.92 5.92 0 00-.11 1.07c0 1.053.333 1.58 1 1.58a1.2 1.2 0 00.9-.45c.302-.346.542-.742.71-1.17.198-.488.349-.994.45-1.51.059-.293.09-.591.09-.89a2.081 2.081 0 00-.25-1.09.82.82 0 00-.74-.41 1.487 1.487 0 00-1.27.79 5.997 5.997 0 00-.76 2.08h-.02zm5.2 0c.096-.501.272-.984.52-1.43.233-.42.538-.795.9-1.11.354-.308.76-.548 1.2-.71a4.074 4.074 0 011.42-.25 3.608 3.608 0 011.52.3c.412.176.76.472 1 .85.241.397.362.856.35 1.32a3.66 3.66 0 01-.08.73 4.537 4.537 0 01-.77 1.81 3.996 3.996 0 01-3.33 1.7 3.504 3.504 0 01-1.49-.3 2.208 2.208 0 01-1-.86 2.487 2.487 0 01-.34-1.32c0-.246.027-.49.08-.73h.02zm2 0a5.92 5.92 0 00-.11 1.07c0 1.053.333 1.58 1 1.58a1.595 1.595 0 001.26-1 7.043 7.043 0 00.79-2.18c.059-.293.09-.591.09-.89a2.081 2.081 0 00-.25-1.09.82.82 0 00-.74-.41 1.487 1.487 0 00-1.27.79 5.997 5.997 0 00-.76 2.08l-.01.05zm6.4-3.32h2.79a3.169 3.169 0 011.5.3.999.999 0 01.57 1 1.34 1.34 0 010 .31 1.57 1.57 0 01-.57.92 2.058 2.058 0 01-1.13.46c.395.052.773.188 1.11.4a.995.995 0 01.39.88 1.91 1.91 0 010 .4 1.88 1.88 0 01-1 1.31 3.823 3.823 0 01-1.89.46h-2.92l1.15-6.44zm.68 5.63h.41c.356.003.705-.101 1-.3a1.216 1.216 0 00.53-.81 1.706 1.706 0 000-.35.901.901 0 00-.351-.715.911.911 0 00-.779-.165h-.41l-.4 2.34zm.59-3h.33a1.206 1.206 0 001.35-1c.006-.09.006-.18 0-.27 0-.453-.31-.68-.93-.68h-.39l-.36 1.95zm5.12-2.65h1.84l-.53 2.65h1.16a2.33 2.33 0 011.37.37 1.234 1.234 0 01.52 1.07c.012.133.012.267 0 .4a1.868 1.868 0 01-.52 1 2.871 2.871 0 01-1 .65c-.375.151-.775.23-1.18.23h-2.88l1.22-6.37zm.7 5.83h.19c.341-.004.672-.12.94-.33.305-.227.51-.564.57-.94.012-.13.012-.26 0-.39a.85.85 0 00-1-.92h-.25l-.45 2.58zm7.49-3.17a4.279 4.279 0 01.82-1.47 3.73 3.73 0 011.29-1 3.791 3.791 0 011.59-.34c.499-.012.994.087 1.45.29.392.177.721.47.94.84.223.396.333.846.32 1.3a3.9 3.9 0 01-.08.77 4.782 4.782 0 01-.73 1.81 3.754 3.754 0 01-3.2 1.7 3.262 3.262 0 01-1.44-.29 2.007 2.007 0 01-.91-.84 2.595 2.595 0 01-.31-1.3c.003-.228.023-.455.06-.68h-.89l-.59 3h-1.85l1.26-6.44h1.83l-.52 2.65h.96zm1.81.67a7.214 7.214 0 00-.16 1.35c0 .867.29 1.3.87 1.3a1.092 1.092 0 00.84-.41c.271-.325.478-.698.61-1.1.186-.533.336-1.077.45-1.63.073-.329.113-.664.12-1a1.938 1.938 0 00-.21-1 .687.687 0 00-.64-.36c-.873 0-1.497.957-1.87 2.87l-.01-.02zM69.12 83.683l-3.09 4.43.37.61c2.56 4.613 4.3 7.84 5.22 9.68l-1.16-.06h-2.29l-1.16.06a806.51 806.51 0 00-3.51-6.81l-2.45 3.86a31.197 31.197 0 00-1.65 2.92h-2.64a260.566 260.566 0 005.73-8.43l-5.46-9.87.88.07.8.06h1.38l.79-.06.88-.07c.353.753.687 1.443 1 2.07.313.626.713 1.4 1.2 2.32l1.1 2.09c.34-.527.957-1.527 1.85-3a143.28 143.28 0 012.17-3.49c.431.052.865.078 1.3.08.434-.002.869-.029 1.3-.08l-2.56 3.62z" fill="#A7152A"/><path d="M79.8 80.112h1.14c.593 1.627 1.123 3.06 1.59 4.3.467 1.24 1.057 2.773 1.77 4.6.707 1.826 1.267 3.25 1.68 4.27l2.1 5.19-.89-.08-.79-.06h-1.33l-.8.06-.87.07c-.3-1.014-.633-2.074-1-3.18-.38-1.11-.72-2.08-1-2.91l-1.28-3.42a643.966 643.966 0 01-1.4-3.77c-2.153 5.26-3.82 9.686-5 13.28a9.914 9.914 0 00-1.25-.08c-.408 0-.816.026-1.22.08l2.07-4.88a392.626 392.626 0 001.82-4.35 228.34 228.34 0 001.77-4.44 141.81 141.81 0 001.75-4.7h.47c.216.029.433.046.65.05l.02-.03zm20.09-.081c-.09.66-.14 1-.14 1.15 0 .15 0 .5.14 1.15a47.71 47.71 0 00-6.18-.37v5.78h2.8a31.9 31.9 0 003.28-.24c-.073.373-.12.75-.14 1.13.023.39.07.777.14 1.16a24.018 24.018 0 00-3.28-.21h-2.8v6.78a46.78 46.78 0 006.18-.38c-.09.66-.14 1-.14 1.16 0 .16 0 .5.14 1.15H89.72v-18.26h10.17zm7.36 1.94v6h2.82a8.832 8.832 0 013.17.51c.81.283 1.51.815 2 1.52.474.75.711 1.624.68 2.51 0 3.88-2.333 5.82-7 5.82h-5.62v-18.3h11.77a5.063 5.063 0 000 2.31 62.475 62.475 0 00-7.78-.37h-.04zm0 14.83a7.888 7.888 0 002-.19 3.15 3.15 0 001.87-1.34 4.211 4.211 0 00.63-2.31 4.002 4.002 0 00-.78-2.55 2.278 2.278 0 00-1.83-1h-1.92v7.38l.03.01z" fill="#A7152A"/></svg>