<svg width="73" height="129" fill="none" xmlns="http://www.w3.org/2000/svg"><path fill-rule="evenodd" clip-rule="evenodd" d="M36.547 25.5a1.5 1.5 0 011.369 1.005l24.5 70a1.5 1.5 0 01-2.832.99l-7.42-21.197-39.07 10.104-4.712 11.18a1.5 1.5 0 01-2.764-1.164l29.5-70a1.5 1.5 0 011.428-.917zM14.56 82.925l33.215-8.59-26.021-8.48-7.194 17.07zm11.144-18.938l25.004 8.149-5.161-14.746-19.843 6.597zm18.852-9.429L36.37 31.17 23.575 61.532l20.98-6.975z" fill="#000"/><path d="M41.5 27a5 5 0 11-10 0 5 5 0 0110 0z" fill="#000"/><path fill-rule="evenodd" clip-rule="evenodd" d="M20.621 8.941a1.5 1.5 0 01-.003 2.121A22.425 22.425 0 0014 27a22.425 22.425 0 006.618 15.938 1.5 1.5 0 01-2.118 2.124A25.425 25.425 0 0111 27a25.425 25.425 0 017.5-18.062 1.5 1.5 0 012.121.003zm31.758 0a1.5 1.5 0 012.12-.003A25.425 25.425 0 0162 27a25.425 25.425 0 01-7.5 18.063 1.5 1.5 0 01-2.118-2.126A22.425 22.425 0 0059 27a22.425 22.425 0 00-6.618-15.938 1.5 1.5 0 01-.003-2.12z" fill="#000"/><path fill-rule="evenodd" clip-rule="evenodd" d="M12.852.937a1.5 1.5 0 01.005 2.121A33.833 33.833 0 003 27a33.833 33.833 0 009.857 23.942 1.5 1.5 0 11-2.126 2.116A36.833 36.833 0 010 27 36.833 36.833 0 0110.731.942a1.5 1.5 0 012.121-.005zm47.296 0a1.5 1.5 0 012.121.005A36.833 36.833 0 0173 27a36.833 36.833 0 01-10.731 26.058 1.5 1.5 0 11-2.127-2.116A33.833 33.833 0 0070 27a33.833 33.833 0 00-9.858-23.942 1.5 1.5 0 01.006-2.121z" fill="#000"/><path d="M17.509 109.32a1 1 0 01-1 1H9.866v13.239a1 1 0 01-1 1H8a1 1 0 01-1-1V109a1 1 0 011-1h8.509a1 1 0 011 1v.32zm12.078 6.847a1 1 0 01-1 1h-5.802v5.095h6.95a1 1 0 011 1v.297a1 1 0 01-1 1h-9.827V108h9.748a1 1 0 011 1v.32a1 1 0 01-1 1h-6.87v4.572h5.8a1 1 0 011 1v.275zm6.368 2.239v5.153a1 1 0 01-1 1h-.877a1 1 0 01-1-1V108h6.335c1.85 0 3.317.481 4.401 1.444 1.092.963 1.638 2.237 1.638 3.822 0 1.622-.535 2.885-1.604 3.787-1.061.902-2.551 1.353-4.47 1.353h-3.423zm0-2.309h3.458c1.023 0 1.804-.238 2.343-.716.538-.485.807-1.183.807-2.093 0-.894-.273-1.607-.819-2.138-.546-.538-1.296-.815-2.252-.83h-3.537v5.777zM47.954 109a1 1 0 011-1h.877a1 1 0 011 1v13.262h7.29V109a1 1 0 011-1h.877a1 1 0 011 1v13.239H63l-.193 5.348a1 1 0 01-1 .964h-.673a1 1 0 01-1-1v-2.992h-11.18a1 1 0 01-1-1V109z" fill="#000"/></svg>