<svg width="38" height="32" fill="none" xmlns="http://www.w3.org/2000/svg"><path d="M28.923 32c-2.974 0-5.128-1.026-6.461-3.077-1.334-2.051-2-4.41-2-7.077 0-1.538.205-3.23.615-5.077.41-1.846 1.18-3.692 2.308-5.538 1.23-1.949 2.923-3.846 5.076-5.693C30.616 3.59 33.487 1.744 37.078 0L38 1.385c-2.051 1.948-3.692 3.64-4.923 5.077-1.128 1.435-2 2.769-2.615 4-.616 1.23-1.026 2.358-1.231 3.384a32.485 32.485 0 00-.154 3.23c0 .821.256 1.437.77 1.847.512.308 1.076.718 1.691 1.23A25.69 25.69 0 0134 22c.82.513 1.23 1.641 1.23 3.385 0 1.846-.615 3.435-1.845 4.769C32.154 31.384 30.667 32 28.923 32zM8.615 32C5.641 32 3.435 30.974 2 28.923c-1.333-2.051-2-4.41-2-7.077 0-1.538.205-3.18.615-4.923.41-1.846 1.231-3.743 2.462-5.692C4.307 9.282 6 7.385 8.154 5.538 10.308 3.59 13.18 1.744 16.769 0l.923 1.385C15.641 3.333 14 5.025 12.77 6.462c-1.128 1.435-2 2.769-2.615 4-.616 1.23-1.026 2.358-1.23 3.384a32.495 32.495 0 00-.155 3.23c0 .821.205 1.437.616 1.847A9.5 9.5 0 0011.077 20c.82.513 1.64 1.128 2.462 1.846.922.616 1.384 1.795 1.384 3.539 0 1.846-.615 3.435-1.846 4.769C11.949 31.384 10.46 32 8.615 32z" fill="#B6CBBC"/></svg>