<svg width="235" height="128" fill="none" xmlns="http://www.w3.org/2000/svg"><path d="M223.332 88.858a74.398 74.398 0 004.251 3.401 40.77 40.77 0 003.721 2.338c1.275.71 2.409 1.064 3.401 1.064v1.062h-5.952c-2.693 0-5.067-.496-7.122-1.488a38.807 38.807 0 01-5.846-3.72l-10.524-8.291c-3.826 5.173-7.795 8.893-11.905 11.16-4.039 2.198-8.539 3.296-13.499 3.296-3.189 0-6.059-.46-8.61-1.382-2.481-.992-4.606-2.267-6.378-3.826a17.212 17.212 0 01-3.933-5.634 16.417 16.417 0 01-1.382-6.59c0-4.89 1.24-9.035 3.721-12.437 2.48-3.472 6.625-6.59 12.436-9.354-3.401-2.835-6.023-5.634-7.866-8.397-1.842-2.764-2.763-5.634-2.763-8.61 0-2.055.389-4.004 1.169-5.847a14.09 14.09 0 013.295-4.783 15.255 15.255 0 014.89-3.295c1.913-.85 4.003-1.276 6.271-1.276 2.693 0 5.067.461 7.122 1.382 2.055.921 3.791 2.126 5.208 3.614a14.542 14.542 0 013.189 5.209 16.703 16.703 0 011.063 5.846c0 2.622-.815 5.35-2.445 8.185-1.63 2.834-4.464 5.42-8.503 7.76 3.259 2.692 6.625 5.491 10.098 8.397a490.783 490.783 0 0010.31 8.397c1.418-2.835 2.552-5.669 3.402-8.504.921-2.834 1.63-5.42 2.126-7.76.567-2.408.921-4.499 1.063-6.27.212-1.772.319-3.048.319-3.827 0-.921-.355-1.736-1.063-2.445-.709-.78-1.488-1.17-2.339-1.17v-1.062h10.949v1.063c-.709 0-1.453.354-2.233 1.063-.708.637-1.133 1.452-1.275 2.444a102.844 102.844 0 01-1.807 10.736c-.638 2.977-1.488 6.095-2.551 9.354-1.063 3.26-2.374 6.095-3.933 8.504a87.931 87.931 0 004.571 4.04 1240.33 1240.33 0 004.783 3.932l4.571 3.72zm-51.66-47.727c.496 2.48 1.878 4.925 4.145 7.334a85.237 85.237 0 007.335 6.91c2.764-1.134 4.889-2.835 6.378-5.103 1.488-2.338 2.232-4.606 2.232-6.803 0-1.7-.284-3.366-.851-4.996a12.345 12.345 0 00-2.338-4.358c-.992-1.346-2.303-2.41-3.933-3.189-1.559-.85-3.401-1.275-5.527-1.275-2.339 0-4.217.921-5.634 2.763-1.346 1.843-2.02 4.04-2.02 6.59v1.064c0 .354.071.709.213 1.063zm11.267 52.829c3.473 0 6.909-1.205 10.311-3.614 3.472-2.41 6.626-5.528 9.46-9.354-3.897-3.26-7.866-6.555-11.905-9.886a1084.876 1084.876 0 00-11.905-9.885c-4.323 2.055-7.512 4.606-9.567 7.653-2.055 3.047-3.082 6.13-3.082 9.248 0 1.913.425 3.79 1.275 5.633a17.268 17.268 0 003.508 4.996c1.488 1.488 3.26 2.728 5.315 3.72 2.055.922 4.252 1.418 6.59 1.489z" fill="#D2E3D7"/><path d="M33.308 55.263h.417c.39 0 .752-.14 1.085-.418.334-.334.613-.723.835-1.169a5.59 5.59 0 00.585-1.502 7.738 7.738 0 00.167-1.503V27.965H9.683v22.706c0 .446.056.946.167 1.503.112.5.279.974.501 1.419.223.445.473.835.752 1.169.334.334.723.5 1.168.5h.418v.835H1.002v-.834h.417c.39 0 .751-.14 1.085-.418.334-.334.613-.723.835-1.169.278-.5.473-1.001.584-1.502a7.738 7.738 0 00.167-1.503V6.177c0-.39-.055-.834-.167-1.335a6.137 6.137 0 00-.5-1.42 3.32 3.32 0 00-.835-1.085c-.334-.334-.724-.5-1.169-.5h-.417v-.835h11.687v.835h-.418c-.445 0-.835.166-1.168.5a3.32 3.32 0 00-.835 1.086c-.167.445-.306.918-.418 1.419-.11.5-.167.946-.167 1.335v18.867h26.714V6.177c0-.39-.056-.834-.167-1.335a6.137 6.137 0 00-.501-1.42 3.32 3.32 0 00-.835-1.085c-.334-.334-.724-.5-1.169-.5h-.417v-.835h11.687v.835h-.418c-.445 0-.834.166-1.168.5a3.32 3.32 0 00-.835 1.086c-.167.445-.306.918-.417 1.419-.112.5-.167.946-.167 1.335v44.494c0 .446.055.946.166 1.503.168.5.362.974.585 1.419.223.445.473.835.751 1.169.334.334.696.5 1.085.5h.418v.835H33.308v-.834zm18.622 0h.417c.445 0 .834-.14 1.168-.418.334-.334.613-.723.835-1.169.279-.445.473-.918.585-1.419.166-.5.25-.974.25-1.419V6.178c0-.39-.084-.835-.25-1.336a4.504 4.504 0 00-.585-1.42 3.32 3.32 0 00-.835-1.085c-.334-.334-.723-.5-1.168-.5h-.418v-.835h32.14v7.763h-.835a5.432 5.432 0 00-1.503-3.339c-.89-1.002-2.282-1.503-4.174-1.503H60.778v21.12h13.857c1.28 0 2.338-.39 3.173-1.168.89-.78 1.335-1.698 1.335-2.755h.835v10.435h-.835c0-1.002-.417-1.865-1.252-2.588-.835-.723-1.92-1.085-3.256-1.085H60.778v25.294H79.06c1.057 0 1.975-.25 2.755-.752a7.286 7.286 0 001.92-1.753c.556-.723.946-1.474 1.168-2.254.278-.834.418-1.53.418-2.087h.834v9.767H51.93v-.834zm72.404 0h.418c1.335 0 2.003-.613 2.003-1.837 0-.445-.083-.918-.25-1.419l-7.513-20.285h-14.609L97.12 51.673c-.166.445-.25.863-.25 1.252 0 .724.195 1.308.584 1.753.39.39.807.585 1.253.585h.417v.834h-9.266v-.834h.417c.724 0 1.42-.418 2.087-1.253.724-.89 1.308-1.92 1.753-3.088L113.232 0l18.699 50.42a15.934 15.934 0 001.586 3.256c.723 1.058 1.642 1.587 2.755 1.587h.417v.834h-12.355v-.834zm-19.116-26.38h12.855l-6.427-17.447-6.428 17.448zm47.82 26.38h.417v.834h-11.77v-.834h.417c.39 0 .751-.167 1.085-.501a4.44 4.44 0 00.835-1.169 4.52 4.52 0 00.585-1.42 7.755 7.755 0 00.166-1.502V6.177c0-.39-.055-.834-.166-1.335a4.529 4.529 0 00-.585-1.42 3.311 3.311 0 00-.835-1.085c-.334-.334-.695-.5-1.085-.5h-.417v-.835h14.525c5.565 0 9.85 1.085 12.856 3.255 3.061 2.17 4.591 5.37 4.591 9.6 0 2.115-.362 3.98-1.085 5.593a12.922 12.922 0 01-2.755 4.09c-1.169 1.114-2.56 2.032-4.174 2.756a23.817 23.817 0 01-5.009 1.502l6.011 9.183a274.264 274.264 0 004.424 6.595 149.762 149.762 0 014.424 6.594c.39.557.807 1.141 1.253 1.753a22.56 22.56 0 001.502 1.67c.557.5 1.113.918 1.67 1.252a4.403 4.403 0 001.836.418v.834h-3.589c-2.226 0-4.063-.528-5.51-1.586a16.376 16.376 0 01-3.506-3.84 974.438 974.438 0 01-7.513-11.186A977.986 977.986 0 00154.29 28.3c-.612-.055-1.28-.111-2.003-.167-.668-.111-1.308-.222-1.92-.334v22.873c0 .446.055.946.166 1.503.112.5.279.974.501 1.419.279.445.557.835.835 1.169.334.334.724.5 1.169.5zM150.367 3.84v21.204h.417c.445.055 1.141.11 2.087.166h3.673c1.169 0 2.393-.166 3.673-.5a11.383 11.383 0 003.673-1.837c1.169-.89 2.115-2.031 2.838-3.423.779-1.39 1.169-3.144 1.169-5.259s-.417-3.84-1.252-5.175c-.779-1.336-1.892-2.393-3.339-3.173-1.392-.779-3.089-1.307-5.093-1.586-2.003-.278-4.201-.417-6.594-.417h-1.252zM0 126.497h.417c.446 0 .835-.139 1.17-.417.333-.334.611-.723.834-1.169a4.5 4.5 0 00.584-1.419c.167-.501.25-.974.25-1.419v-44.66c0-.39-.083-.836-.25-1.337a4.504 4.504 0 00-.584-1.419 3.32 3.32 0 00-.835-1.085c-.334-.334-.723-.5-1.169-.5H0v-.835h12.02v.834h-.416c-.446 0-.835.167-1.17.501a3.32 3.32 0 00-.834 1.085c-.223.446-.417.919-.584 1.42-.112.5-.167.946-.167 1.335v46.831H27.13c1.058 0 1.976-.25 2.755-.751a6.734 6.734 0 001.92-1.836c.557-.779.946-1.586 1.169-2.421.278-.891.417-1.698.417-2.421h.835v10.518H0v-.835zm39.138-54.26h11.938v.834h-.418c-.39 0-.751.167-1.085.501a3.32 3.32 0 00-.835 1.085c-.222.39-.417.863-.584 1.42a6.25 6.25 0 00-.167 1.335v44.494c0 .445.056.946.167 1.503.111.501.278.974.5 1.419.279.445.557.835.836 1.169.334.333.723.5 1.168.5h.418v.835H39.138v-.835h.418a1.77 1.77 0 001.168-.417c.334-.334.613-.723.835-1.169a5.588 5.588 0 00.585-1.502 7.747 7.747 0 00.166-1.503V77.412c0-.39-.055-.835-.166-1.336a4.503 4.503 0 00-.585-1.419 3.318 3.318 0 00-.835-1.085c-.334-.334-.723-.5-1.168-.5h-.418v-.835zm53.774 40.32c0 2.782-.557 5.175-1.67 7.179-1.113 1.947-2.56 3.534-4.34 4.758-1.726 1.224-3.701 2.115-5.927 2.671-2.17.557-4.341.835-6.512.835-2.226 0-4.146-.223-5.76-.668a307.712 307.712 0 01-4.424-1.252 33.483 33.483 0 00-2.421-.668 7.365 7.365 0 00-2.17-.334v-9.516h.834c0 2.115.53 3.812 1.587 5.092a11.891 11.891 0 003.84 2.838c1.446.668 2.893 1.113 4.34 1.336 1.447.167 2.505.25 3.172.25 2.394 0 4.453-.334 6.178-1.001 1.725-.724 3.144-1.642 4.257-2.755 1.113-1.169 1.92-2.449 2.421-3.84.557-1.392.835-2.811.835-4.258 0-1.836-.39-3.367-1.169-4.591-.779-1.28-1.808-2.393-3.088-3.339-1.225-.946-2.644-1.753-4.258-2.421a430.814 430.814 0 00-4.925-2.003 168.536 168.536 0 01-5.593-2.254c-1.837-.78-3.478-1.726-4.925-2.839a14.435 14.435 0 01-3.506-4.09c-.89-1.614-1.336-3.59-1.336-5.927 0-2.449.473-4.564 1.42-6.344.945-1.837 2.197-3.34 3.756-4.508 1.613-1.169 3.422-2.032 5.426-2.588a21.86 21.86 0 016.26-.918c1.448 0 2.811.111 4.091.334 1.28.167 2.504.39 3.673.667.946.223 1.864.418 2.755.585.89.111 1.753.167 2.588.167v8.598h-.835c-.111-2.894-1.252-4.842-3.423-5.843-2.17-1.058-5.175-1.587-9.015-1.587-2.227 0-4.063.39-5.51 1.17-1.391.723-2.504 1.64-3.34 2.754a9.455 9.455 0 00-1.752 3.506c-.278 1.224-.418 2.31-.418 3.256 0 1.558.334 2.894 1.002 4.007.724 1.113 1.67 2.087 2.838 2.921 1.17.835 2.505 1.587 4.007 2.254a97.543 97.543 0 004.842 1.92 157.49 157.49 0 015.76 2.338c1.948.835 3.673 1.864 5.176 3.088a14.045 14.045 0 013.756 4.508c1.002 1.781 1.503 3.952 1.503 6.512zm25.137 13.94h.418v.835h-11.854v-.835h.417c.445 0 .835-.167 1.169-.5.334-.334.612-.724.835-1.169.278-.445.473-.918.584-1.419a7.772 7.772 0 00.167-1.503v-46.58h-9.683c-.89 0-1.67.194-2.338.584-.668.39-1.224.89-1.67 1.502a5.741 5.741 0 00-1.001 1.92 6.303 6.303 0 00-.334 2.004h-.835v-9.1h37.482v9.1h-.835c0-.668-.111-1.336-.334-2.004a5.718 5.718 0 00-1.002-1.92 5.4 5.4 0 00-1.669-1.502c-.668-.39-1.447-.585-2.338-.585h-9.85v46.581c0 .445.056.946.167 1.503.111.501.278.974.501 1.419.278.445.556.835.835 1.169.334.333.723.5 1.168.5zm17.929 0h.418a1.77 1.77 0 001.168-.417c.334-.334.613-.723.835-1.169.278-.445.473-.918.584-1.419.167-.501.251-.974.251-1.419v-44.66c0-.39-.084-.836-.251-1.337a4.502 4.502 0 00-.584-1.419 3.31 3.31 0 00-.835-1.085c-.334-.334-.723-.5-1.168-.5h-.418v-.835h32.139V80h-.834a5.439 5.439 0 00-1.503-3.34c-.89-1-2.282-1.502-4.174-1.502h-16.779v21.12h13.857c1.28 0 2.338-.39 3.173-1.168.89-.78 1.335-1.698 1.335-2.755h.835v10.435h-.835c0-1.002-.417-1.865-1.252-2.588-.835-.724-1.92-1.085-3.256-1.085h-13.857v25.293h18.282c1.057 0 1.975-.25 2.754-.751.78-.501 1.42-1.085 1.92-1.753.557-.723.947-1.475 1.169-2.254.278-.835.418-1.53.418-2.087h.834v9.767h-34.226v-.835zm49.282 0h.417v.835h-9.266v-.835h.417c.39 0 .752-.167 1.086-.5.389-.334.695-.724.918-1.169.223-.445.39-.918.501-1.419.167-.557.25-1.058.25-1.503V77.412c0-.39-.055-.835-.167-1.336a4.156 4.156 0 00-.417-1.419 2.914 2.914 0 00-.918-1.085c-.39-.334-.863-.5-1.419-.5h-.418v-.835h8.431l30.303 47.749V77.412c0-.39-.083-.835-.25-1.336a4.505 4.505 0 00-.585-1.419 3.31 3.31 0 00-.835-1.085 1.598 1.598 0 00-1.168-.5h-.418v-.835h9.35v.834h-.417c-.446 0-.835.167-1.169.501a4.49 4.49 0 00-.918 1.085c-.223.446-.39.919-.501 1.42-.112.5-.167.946-.167 1.335v49.92h-5.176l-30.219-47.916v42.49c0 .445.056.946.167 1.503.111.501.278.974.501 1.419.278.445.584.835.918 1.169.334.333.724.5 1.169.5z" fill="#0D5220"/></svg>