<svg width="118" height="64" fill="none" xmlns="http://www.w3.org/2000/svg"><path d="M111.667 44.43a37.22 37.22 0 002.126 1.7c.602.425 1.222.815 1.86 1.17.638.353 1.205.53 1.701.53v.532h-2.976c-1.347 0-2.534-.248-3.561-.744a19.374 19.374 0 01-2.923-1.86l-5.262-4.146c-1.913 2.587-3.898 4.447-5.953 5.58-2.02 1.1-4.27 1.648-6.75 1.648-1.594 0-3.029-.23-4.304-.69-1.24-.497-2.303-1.134-3.19-1.914a8.61 8.61 0 01-1.966-2.817 8.207 8.207 0 01-.69-3.295c0-2.445.62-4.518 1.86-6.218 1.24-1.736 3.312-3.295 6.218-4.677-1.7-1.418-3.012-2.817-3.933-4.199-.921-1.382-1.382-2.817-1.382-4.305 0-1.027.195-2.002.585-2.923a7.048 7.048 0 011.647-2.392 7.63 7.63 0 012.445-1.647c.957-.425 2.002-.638 3.136-.638 1.346 0 2.533.23 3.56.69 1.028.462 1.896 1.064 2.605 1.808a7.281 7.281 0 011.594 2.604c.355.957.532 1.931.532 2.923 0 1.311-.408 2.675-1.223 4.093-.814 1.417-2.232 2.71-4.251 3.88a1043.97 1043.97 0 015.049 4.198 245.101 245.101 0 005.155 4.199 26.553 26.553 0 001.701-4.252c.46-1.417.815-2.71 1.063-3.88.283-1.204.46-2.25.531-3.136.106-.885.16-1.523.16-1.913 0-.46-.178-.868-.532-1.222-.354-.39-.744-.585-1.169-.585v-.531h5.474v.531c-.354 0-.726.177-1.116.532a1.966 1.966 0 00-.638 1.222 51.424 51.424 0 01-.903 5.368 46.576 46.576 0 01-1.276 4.677c-.531 1.63-1.187 3.047-1.966 4.252.708.673 1.47 1.346 2.285 2.02.815.673 1.612 1.328 2.392 1.966l2.285 1.86zm-25.83-23.864c.248 1.24.94 2.462 2.073 3.667a42.606 42.606 0 003.667 3.454c1.382-.566 2.445-1.417 3.189-2.55.744-1.17 1.116-2.304 1.116-3.402 0-.85-.142-1.683-.425-2.498a6.174 6.174 0 00-1.17-2.18c-.495-.672-1.15-1.204-1.966-1.593-.78-.426-1.7-.638-2.763-.638-1.17 0-2.109.46-2.817 1.382-.674.92-1.01 2.02-1.01 3.295v.531c0 .177.035.355.106.532zm5.634 26.414c1.736 0 3.454-.602 5.155-1.807 1.736-1.205 3.313-2.764 4.73-4.677a1097.77 1097.77 0 00-5.952-4.943c-2.02-1.7-4.004-3.348-5.953-4.942-2.161 1.027-3.756 2.303-4.783 3.826-1.028 1.524-1.541 3.065-1.541 4.624 0 .957.212 1.896.637 2.817a8.626 8.626 0 001.754 2.498 9.653 9.653 0 002.658 1.86 8.614 8.614 0 003.295.744z" fill="#0D5220"/><path d="M16.654 27.631h.209c.194 0 .375-.07.542-.208.167-.167.306-.362.418-.585.139-.25.236-.5.292-.751.055-.278.083-.529.083-.751V13.983H4.842v11.353c0 .222.028.473.083.751a3.07 3.07 0 00.626 1.294c.167.167.362.25.585.25h.208v.418H.501v-.418H.71c.194 0 .375-.07.542-.208.167-.167.306-.362.418-.585.139-.25.236-.5.292-.751a3.87 3.87 0 00.083-.751V3.089a3.12 3.12 0 00-.083-.668 3.068 3.068 0 00-.25-.71 1.66 1.66 0 00-.418-.542.8.8 0 00-.584-.25H.5V.5h5.844v.417h-.208a.8.8 0 00-.585.25 1.66 1.66 0 00-.417.543 5.3 5.3 0 00-.209.71 3.12 3.12 0 00-.083.668v9.433h13.356V3.089c0-.195-.028-.418-.083-.668a3.066 3.066 0 00-.25-.71 1.66 1.66 0 00-.418-.542.801.801 0 00-.584-.25h-.21V.5h5.844v.417h-.208a.801.801 0 00-.585.25 1.66 1.66 0 00-.417.543 5.3 5.3 0 00-.209.71c-.055.25-.083.473-.083.668v22.247c0 .222.028.473.083.751.084.25.181.487.292.71.112.222.237.417.376.584.167.167.348.25.543.25h.208v.418h-5.843v-.418zm9.311 0h.208c.223 0 .418-.07.585-.208.167-.167.306-.362.417-.585.14-.222.237-.459.292-.71.084-.25.126-.486.126-.709V3.09a2.13 2.13 0 00-.126-.668 2.254 2.254 0 00-.292-.71 1.66 1.66 0 00-.417-.542.8.8 0 00-.585-.25h-.208V.5h16.07v3.882h-.418a2.715 2.715 0 00-.752-1.67c-.445-.5-1.14-.751-2.086-.751h-8.39v10.56h6.929c.64 0 1.168-.195 1.586-.585.445-.39.668-.848.668-1.377h.417v5.217h-.417c0-.5-.21-.932-.627-1.293-.417-.362-.96-.543-1.627-.543h-6.929v12.647h9.14c.53 0 .989-.125 1.378-.376.39-.25.71-.542.96-.876.279-.362.473-.738.585-1.127.139-.418.208-.765.208-1.044h.418v4.884H25.965v-.418zm36.202 0h.209c.668 0 1.002-.306 1.002-.918 0-.223-.042-.46-.126-.71l-3.756-10.142H52.19l-3.63 9.976a1.788 1.788 0 00-.126.626c0 .361.097.653.292.876.195.195.404.292.626.292h.209v.418h-4.633v-.418h.209c.361 0 .71-.208 1.043-.626.362-.445.654-.96.877-1.544L56.616 0l9.35 25.21c.194.557.459 1.1.793 1.628.361.529.82.793 1.377.793h.209v.418h-6.178v-.418zm-9.558-13.19h6.428l-3.214-8.723-3.214 8.724zm23.91 13.19h.209v.418h-5.886v-.418h.21c.194 0 .375-.083.542-.25.167-.167.306-.362.417-.584.14-.223.237-.46.292-.71.056-.278.084-.529.084-.751V3.089c0-.195-.028-.418-.084-.668a2.254 2.254 0 00-.292-.71 1.66 1.66 0 00-.417-.542c-.167-.167-.348-.25-.543-.25h-.209V.5h7.263c2.783 0 4.925.542 6.428 1.628 1.53 1.085 2.296 2.685 2.296 4.8 0 1.057-.181 1.99-.543 2.796a6.463 6.463 0 01-1.377 2.045 7.355 7.355 0 01-2.088 1.378c-.779.334-1.613.584-2.504.751l3.005 4.591a133.429 133.429 0 002.213 3.298 75.419 75.419 0 012.212 3.297c.195.278.403.57.626.877.25.306.5.584.751.835.278.25.557.459.835.626.306.139.612.208.918.208v.418h-1.795c-1.113 0-2.03-.265-2.754-.793a8.19 8.19 0 01-1.753-1.92 488.104 488.104 0 01-3.757-5.593 488.106 488.106 0 00-3.673-5.593c-.306-.028-.64-.056-1.002-.084a65.925 65.925 0 01-.96-.167v11.437c0 .222.028.473.084.751.055.25.139.487.25.71a5.3 5.3 0 00.418.584.8.8 0 00.584.25zM75.183 1.92v10.602h.209c.223.028.57.055 1.043.083h1.837c.584 0 1.197-.083 1.837-.25a5.705 5.705 0 001.836-.918 5.034 5.034 0 001.42-1.712c.389-.695.584-1.572.584-2.63 0-1.057-.21-1.92-.627-2.587a4.17 4.17 0 00-1.67-1.586c-.695-.39-1.543-.654-2.545-.793a23.926 23.926 0 00-3.298-.209h-.626zM0 63.249h.209c.222 0 .417-.07.584-.209.167-.167.306-.362.417-.584.14-.223.237-.46.293-.71.083-.25.125-.487.125-.71v-22.33a2.16 2.16 0 00-.125-.668 2.252 2.252 0 00-.293-.71 1.66 1.66 0 00-.417-.542.8.8 0 00-.584-.25H0v-.418h6.01v.418h-.208a.8.8 0 00-.585.25 1.66 1.66 0 00-.417.543 5.326 5.326 0 00-.292.71c-.056.25-.084.472-.084.667v23.416h9.141c.529 0 .988-.126 1.378-.376.39-.25.71-.556.96-.918.278-.39.473-.793.584-1.21.14-.446.209-.85.209-1.211h.417v5.26H0v-.418zm19.57-27.131h5.968v.418h-.209c-.195 0-.376.083-.543.25a1.66 1.66 0 00-.417.543 3.405 3.405 0 00-.292.71c-.056.25-.084.472-.084.667v22.247c0 .223.028.473.084.751.056.25.14.487.25.71.14.222.279.417.418.584a.8.8 0 00.584.25h.209v.418h-5.969v-.417h.209c.222 0 .417-.07.584-.209a2.23 2.23 0 00.418-.584c.139-.25.236-.501.292-.752.055-.278.083-.528.083-.751V38.706c0-.195-.028-.417-.083-.668a2.251 2.251 0 00-.292-.71 1.66 1.66 0 00-.418-.542.8.8 0 00-.584-.25h-.209v-.418zm26.886 20.16c0 1.392-.278 2.588-.835 3.59a7.14 7.14 0 01-2.17 2.379c-.863.612-1.85 1.057-2.964 1.336a13.06 13.06 0 01-3.255.417c-1.113 0-2.073-.111-2.88-.334-.807-.222-1.545-.431-2.212-.626-.446-.14-.85-.25-1.211-.334a3.673 3.673 0 00-1.085-.167v-4.758h.417c0 1.057.265 1.906.793 2.546a5.945 5.945 0 001.92 1.42 8.116 8.116 0 002.17.667c.724.083 1.253.125 1.587.125 1.196 0 2.226-.167 3.088-.5.863-.363 1.573-.822 2.13-1.378a5.453 5.453 0 001.21-1.92 5.687 5.687 0 00.417-2.129c0-.918-.195-1.683-.584-2.296a5.853 5.853 0 00-1.545-1.669 9.233 9.233 0 00-2.128-1.21c-.807-.334-1.628-.668-2.463-1.002a83.68 83.68 0 01-2.797-1.127 11.17 11.17 0 01-2.462-1.42 7.22 7.22 0 01-1.753-2.044c-.445-.808-.668-1.795-.668-2.964 0-1.224.237-2.282.71-3.172a6.476 6.476 0 011.878-2.254 8.432 8.432 0 012.713-1.294 10.93 10.93 0 013.13-.46c.724 0 1.406.056 2.046.168.64.083 1.252.195 1.836.334.473.111.932.208 1.377.292.446.056.877.083 1.294.083v4.3h-.417c-.056-1.447-.626-2.421-1.711-2.922-1.086-.529-2.588-.793-4.508-.793-1.113 0-2.032.194-2.755.584-.696.362-1.252.821-1.67 1.377a4.729 4.729 0 00-.876 1.754 7.45 7.45 0 00-.209 1.627c0 .78.167 1.447.501 2.004a5.435 5.435 0 001.42 1.46c.584.418 1.251.794 2.003 1.128.779.334 1.586.654 2.42.96a76.43 76.43 0 012.88 1.168c.974.418 1.837.933 2.588 1.545a7.022 7.022 0 011.879 2.254c.5.89.751 1.975.751 3.255zm12.569 6.971h.208v.417h-5.927v-.417h.21a.801.801 0 00.584-.25 2.23 2.23 0 00.417-.585c.139-.223.236-.46.292-.71.056-.278.084-.528.084-.751v-23.29H50.05c-.446 0-.835.097-1.169.292a2.703 2.703 0 00-.835.751 2.87 2.87 0 00-.5.96 3.151 3.151 0 00-.167 1.002h-.418v-4.55h18.74v4.55h-.416c0-.334-.056-.668-.167-1.002a2.87 2.87 0 00-.501-.96 2.704 2.704 0 00-.835-.751c-.334-.195-.724-.292-1.169-.292H57.69v23.29c0 .223.028.473.084.751.055.25.139.487.25.71.14.222.278.417.417.584.167.167.362.25.585.25zm8.965 0h.208c.222 0 .417-.07.584-.209a2.23 2.23 0 00.418-.584c.139-.223.236-.46.292-.71.083-.25.125-.487.125-.71v-22.33a2.16 2.16 0 00-.125-.668 2.251 2.251 0 00-.292-.71 1.66 1.66 0 00-.418-.542.8.8 0 00-.584-.25h-.209v-.418h16.07V40h-.418a2.717 2.717 0 00-.751-1.67c-.445-.5-1.14-.75-2.087-.75h-8.39v10.56h6.93c.64 0 1.168-.196 1.585-.585.446-.39.668-.849.668-1.378h.417v5.218h-.417c0-.501-.209-.932-.626-1.294-.417-.362-.96-.543-1.628-.543h-6.928v12.647h9.14c.529 0 .988-.125 1.378-.375.39-.25.71-.543.96-.877a3.36 3.36 0 00.584-1.127c.14-.417.209-.765.209-1.043h.417v4.883H67.99v-.417zm24.64 0h.209v.417h-4.633v-.417h.208c.195 0 .376-.084.543-.25a1.86 1.86 0 00.459-.585c.111-.223.195-.46.25-.71.084-.278.126-.528.126-.751V38.706c0-.195-.028-.417-.084-.668a2.09 2.09 0 00-.209-.71 1.454 1.454 0 00-.459-.542 1.053 1.053 0 00-.71-.25h-.208v-.418h4.216l15.151 23.875V38.706a2.16 2.16 0 00-.125-.668 2.263 2.263 0 00-.292-.71 1.67 1.67 0 00-.418-.542.801.801 0 00-.584-.25h-.209v-.418h4.675v.418h-.209a.801.801 0 00-.584.25c-.167.14-.32.32-.459.543a3.038 3.038 0 00-.251.71c-.055.25-.083.472-.083.667v24.96h-2.588l-15.11-23.958v21.245c0 .223.028.473.084.751.056.25.14.487.25.71.14.222.293.417.46.584.166.167.361.25.584.25z" fill="#fff"/></svg>