<svg width="24" height="24" fill="none" xmlns="http://www.w3.org/2000/svg"><path fill-rule="evenodd" clip-rule="evenodd" d="M19.44 4.552A10.414 10.414 0 0012.044 1.5C6.28 1.5 1.59 6.168 1.587 11.905c0 1.834.481 3.625 1.396 5.203L1.5 22.5l5.543-1.447a10.484 10.484 0 004.996 1.267h.005c5.762 0 10.454-4.669 10.456-10.406a10.317 10.317 0 00-3.06-7.362zm-7.396 16.01h-.004a8.711 8.711 0 01-4.423-1.206L7.3 19.17l-3.29.859.878-3.192-.206-.327a8.597 8.597 0 01-1.33-4.603c.003-4.769 3.901-8.648 8.695-8.648 2.321 0 4.504.901 6.144 2.536a8.577 8.577 0 012.543 6.119c-.002 4.77-3.9 8.65-8.69 8.65zm4.767-6.478c-.262-.13-1.546-.759-1.786-.846-.239-.086-.413-.13-.587.13-.175.26-.675.847-.828 1.02-.152.174-.304.195-.566.065-.26-.13-1.103-.405-2.1-1.29-.777-.69-1.302-1.541-1.454-1.802-.152-.26-.001-.387.115-.53.282-.35.566-.716.653-.89.087-.173.043-.325-.022-.455s-.588-1.41-.806-1.93c-.212-.508-.427-.44-.588-.447a9.87 9.87 0 00-.5-.01.962.962 0 00-.697.326c-.24.26-.914.89-.914 2.17 0 1.28.936 2.515 1.066 2.689.131.174 1.843 2.8 4.464 3.926a15 15 0 001.489.548c.626.198 1.195.17 1.646.103.502-.075 1.545-.63 1.763-1.237.218-.607.218-1.127.152-1.236-.065-.108-.24-.173-.5-.304z" fill="#fff"/></svg>