<svg xmlns="http://www.w3.org/2000/svg" width="258.5" height="60.335"><path d="M30.167 0c16.615 0 30.168 13.552 30.168 30.167 0 16.614-13.553 30.168-30.168 30.168S0 46.781 0 30.167C0 13.552 13.552 0 30.167 0m0 1.288c15.907 0 28.881 12.971 28.881 28.879 0 15.908-12.974 28.88-28.881 28.88S1.289 46.075 1.289 30.167 14.26 1.288 30.167 1.288zm0 1.189c15.252 0 27.688 12.438 27.688 27.69S45.419 57.856 30.167 57.856c-15.251 0-27.688-12.438-27.688-27.689s12.437-27.69 27.688-27.69zm0 .737c14.843 0 26.952 12.108 26.952 26.953 0 14.844-12.109 26.953-26.952 26.953-14.847 0-26.951-12.109-26.951-26.953S15.321 3.214 30.167 3.214zm5.249 47.609c-2.941-.755-5.474 1.127-5.855 2.779-.199.853.023 1.558.567 1.694 1.77.451 1.871-1.961 2.359-2.744.458-.724 1.479-1.389 2.929-1.729zm9.386-7.156c1.042-.987 2.884-3.562 3.34-4.71-.204.557-2.954 2.521-5.675 2.565-2.624.043-3.647-1.29-6.043-1.219-2.394.073-3.028 1.032-6.151 1.124-3.127.095-4.115-1.414-6.753-1.334-2.644.078-3.068 1.217-6.098 1.307-2.126.063-3.803-.829-5.102-2.603.752 1.957 2.086 3.861 3.531 5.307 2.755 3.05 5.17.665 7.809.587 2.641-.08 3.506 1.215 6.633 1.121 3.12-.094 3.768-1.237 6.153-1.008 1.919.187 5.07 1.85 8.356-1.137zM25.713 17.451c1.748-1.655 3.132-5.058-.4-8.163 4.771 3.648 1.623 7.626.4 8.163zm-7.78 28.552c2.267 1.501 3.089.006 5.728-.257 2.629-.261 3.628 1.215 6.754 1.124 3.124-.095 3.697-1.092 6.031-1.009 1.404.049 4.141 1.528 6.003-.095-3.294 2.84-7.05 4.267-11.803 4.413-4.755.142-9.26-1.452-12.713-4.176zm-6.495-18.222c-.049.5.182 2.238.699 3.406.524 1.17 1.897 2.608 2.827 2.679.935.079 1.214.17 3.841-.516 2.629-.681 4.215-1.066 6.333-1.067 2.118 0 3.88 1.241 6.042 1.299 2.111.056 4.34-1.191 6.887-1.204 2.545-.014 3.612.979 6.591 1.04 2.982.059 5.519-1.515 5.814-2.168-.162.307-2.553 1.786-5.737 1.781-3.184-.002-4.049-1.056-6.593-1.04-2.546.011-4.772 1.262-6.882 1.202-2.164-.056-3.929-1.297-6.045-1.297-2.119.003-3.192.176-6.331 1.072-3.138.89-3.603.569-3.858.559-.25-.012-1.954-1.12-2.685-2.493-.729-1.372-.906-3.044-.903-3.253zm-.084.303c.125-1.392.349-3 .977-4.226.944-1.83 1.354-2.422 3.035-3.88 1.806-1.568 4.246-1.831 4.808-1.885.407-.04 3.35-.339 4.744 1.542.013.014.336.396.544.767.162.285.366.683.393.761.139.137.202.06.162-.314-.284-.978-.786-1.521-.951-1.943-.103-.119-.332-.527-.244-.747.09-.218.212-.191.403-.272.513-.214.589-.292 1.345-.691 1.707-1.436 2.401-4.325.847-6.38-1.391-1.847-3.068-2.949-5.863-3.059-2.792-.112-4.211 1.605-4.373 2.041-.144.379-.493.792-.47 1.935-.013-.765.494-2.501 2.656-3.049 2.078-.527 6.389.852 6.755 5.106.272 3.135-1.517 3.819-1.636 4.192l-.136-.064c.125-.169.966-.973.917-2.24-.062-1.733-.707-3.71-3.007-4.496-2.299-.786-5.042-.843-5.396.643-.416 1.733 2.181 3.53 3.073 3.795-.073-.09-.655-.344-.631-1.019.041-1.207 1.954-1.232 2.5-1.139 3.374.608 2.647 3.594 2.647 3.555-.021-.62-.637-2.697-2.445-2.916-.964-.083-1.574.197-1.808.481-.376.456-.182 1.04.225 1.177 1.273.433 1.188.139 2.524.429 1.335.287 1.187 1.31.088 1.29-1.07-.021-1.753-.085-4.215.337-2.581.442-4.622 2.409-5.268 3.194-.653.799-2.259 2.444-2.778 5.847-.516 3.4-.565 4.637.213 8.235.234 1.066.653 1.992 1.209 2.76 1.314 1.817 3.147 2.516 5.277 2.453 3.031-.094 3.539-1.075 6.177-1.151 2.641-.08 3.557 1.356 6.679 1.264 3.125-.095 3.588-1.229 5.984-1.302 2.392-.066 3.552 1.654 6.164 1.395 2.881-.285 4.423-1.088 5.695-2.606.928-1.106 1.228-2.8 1.843-4.945-1.816 1.526-4.971 2.064-7.885 1.146-2.917-.92-4.291-1.094-7.841.038-3.554 1.136-4.895.35-6.863-.35-1.969-.699-3.146-.689-4.689-.373-1.586.327-4.133 1.272-6.009 1.207-1.875-.069-2.292-.506-2.546-.545-.26-.037-1.627-.943-2.123-2.193-.491-1.255-.8-2.799-.707-3.805zm210.214 16.224c1.068 0 1.893-.067 2.485-.187.582-.122 1.069-.452 1.438-.974.367-.522.553-1.378.553-2.548V19.018c0-1.519-.242-2.614-.729-3.278-.489-.663-1.275-.992-2.361-.992-1.214 0-2.227.235-3.043.693-.813.459-1.69 1.208-2.603 2.228-1.447 1.62-2.827 3.654-4.151 6.096-1.327 2.443-2.417 5.141-3.271 8.101-.856 2.958-1.283 5.905-1.283 8.848.079.938.195 1.619.35 2.06.149.44.388.767.72 1.001.321.226.76.376 1.302.44.554.07 1.331.094 2.362.094h8.231zm-23.447 1.628c.446.377.892.564 1.34.564 1.35 0 2.381-1.967 3.079-5.9a68.546 68.546 0 011.31-5.831 57.683 57.683 0 012.093-6.145 49.414 49.414 0 013.088-6.349 41.26 41.26 0 014.246-6.013c.508-.663.762-1.368.762-2.125 0-1.02-.506-1.526-1.519-1.526h-.526v-1.396h29.211v1.396c-.984 0-1.703.291-2.17.859-.467.582-.755 1.288-.862 2.108-.118.835-.177 1.92-.177 3.277V40.89c0 1.722.115 3.081.361 4.044.241.975.749 1.454 1.504 1.454.341 0 .79-.151 1.344-.453l2.556 12.87-1.169.23a28.697 28.697 0 00-1.893-4.007 15.407 15.407 0 00-2.663-3.416c-1.041-1.022-2.34-1.847-3.885-2.48-1.556-.63-3.364-.949-5.433-.949h-18.353c-3.86 0-6.934 1.062-9.205 3.175-2.282 2.117-3.849 4.683-4.682 7.678l-1.224-.23 2.867-12.87zM171.36 17.668c-1.41 1.593-2.78 3.614-4.11 6.078-1.321 2.452-2.409 5.17-3.254 8.138-.847 2.967-1.267 5.906-1.267 8.829 0 1.508.42 2.837 1.267 3.989.838 1.152 2.206 1.807 4.11 1.967l.524.063v1.452h-12.72v-.505c0-2.171.32-4.999.972-8.509.644-3.504 1.815-7.324 3.536-11.482a42.89 42.89 0 016.967-11.425c.514-.684.77-1.368.77-2.068 0-1.06-.525-1.583-1.577-1.583h-.532v-1.396h29.217v1.396c-.98 0-1.701.291-2.166.859-.467.582-.759 1.288-.864 2.108-.118.835-.175 1.92-.175 3.277v22.035c0 2.015.175 3.503.525 4.457.346.965 1.243 1.441 2.68 1.441v1.395h-18.411v-1.338c1.007 0 1.756-.272 2.232-.825.468-.55.76-1.233.867-2.049.105-.824.156-1.949.156-3.372V19.018c0-1.519-.245-2.614-.739-3.278-.497-.663-1.286-.992-2.353-.992-2.023 0-3.907.972-5.655 2.92zm-46.696 23.223c0 2.136.252 3.643.756 4.522.497.89 1.398 1.348 2.693 1.376v1.395h-18.607v-1.395c1.186 0 2.011-.433 2.486-1.3.478-.87.719-2.311.719-4.325V18.24c0-2.017-.241-3.455-.719-4.327-.475-.871-1.3-1.301-2.486-1.301v-1.396h18.607v1.396c-1.197 0-2.061.453-2.617 1.347-.553.909-.832 2.334-.832 4.281v10.676l11.6-10.676c0-1.977-.272-3.405-.816-4.298-.544-.889-1.419-1.33-2.623-1.33v-1.396h18.597v1.396c-1.176 0-1.989.44-2.479 1.311-.483.874-.727 2.314-.727 4.317v22.924c0 2.002.243 3.443.727 4.314.489.87 1.303 1.311 2.479 1.311v1.395h-18.597v-1.395c1.281-.028 2.187-.486 2.682-1.376.506-.88.758-2.387.758-4.522v-17.37l-11.6 10.674v6.696zm-43.143-.12c0 1.087.057 1.874.184 2.348.127.479.429.835.913 1.05.484.217 1.283.32 2.401.32 1.661 0 3.147-.291 4.46-.872 1.311-.581 2.334-1.442 3.061-2.585.737-1.142 1.108-2.535 1.108-4.185 0-1.814-.528-3.476-1.578-4.992-1.049-1.517-2.494-2.715-4.343-3.583-1.855-.882-3.924-1.323-6.207-1.323v13.822zm4.313-25.856c-1.875 0-3.106.28-3.731.851-.387.377-.582 1.235-.582 2.589v4.66c3.399 0 6.578.289 9.544.883 2.962.578 5.564 1.468 7.799 2.665 2.245 1.191 3.993 2.699 5.247 4.514 1.254 1.807 1.887 3.925 1.887 6.331 0 1.889-.508 3.585-1.519 5.082-1.009 1.5-2.429 2.746-4.245 3.738-2.344 1.301-6.111 1.956-11.311 1.956H66.42v-1.395c1.186 0 2.011-.44 2.488-1.3.477-.87.721-2.311.721-4.325V18.24c0-2.017-.244-3.455-.721-4.327-.477-.861-1.302-1.301-2.488-1.301v-1.396h29.617c1.631 0 2.76-.299 3.371-.908l2.973 12.922-1.284.406c-.826-2.681-2.378-4.808-4.651-6.369-2.286-1.565-4.909-2.352-7.882-2.352h-2.73zm166.995-4.04c-2.763 0-5.016-2.172-5.016-4.836 0-2.661 2.253-4.833 5.016-4.833 2.765 0 5.019 2.172 5.019 4.833-.001 2.664-2.255 4.836-5.019 4.836m-2.539-8.139h2.812c.063 0 .199.007.42.024.218.016.451.071.696.168.284.113.552.297.788.554.243.261.363.648.363 1.15 0 .557-.135.975-.41 1.259-.269.286-.568.49-.896.614a.095.095 0 01-.036.011l-.037.013 1.838 2.527h-2.317l-1.293-1.94v1.94h-1.929v-6.32zm2.539-2.162c1.562 0 2.98.616 4.008 1.607 1.028.989 1.664 2.356 1.664 3.858a5.353 5.353 0 01-1.664 3.864 5.764 5.764 0 01-4.008 1.604 5.76 5.76 0 01-4.005-1.604c-1.025-.99-1.666-2.357-1.666-3.864 0-1.502.641-2.869 1.666-3.858a5.757 5.757 0 014.005-1.607zm-.254 5.009c.311 0 .534-.067.654-.208a.782.782 0 00.211-.455v-.159a.782.782 0 00-.22-.436c-.123-.13-.341-.194-.646-.194h-.356v1.451h.357z" fill-rule="evenodd" clip-rule="evenodd" fill="#00B7AC"/></svg>