<svg width="16" height="28" viewBox="0 0 16 28" fill="none" xmlns="http://www.w3.org/2000/svg">
<path d="M8 23.3334C9.104 23.3334 10 24.2294 10 25.3334C10 26.4374 9.104 27.3334 8 27.3334C6.896 27.3334 6 26.4374 6 25.3334C6 24.2294 6.896 23.3334 8 23.3334ZM8 0.666748C12.4187 0.666748 16 4.24808 16 8.66675C16 11.5534 14.996 13.0534 12.4347 15.2307C9.86533 17.4134 9.33333 18.3961 9.33333 20.6667H6.66667C6.66667 17.3681 7.716 15.7401 10.708 13.1987C12.7307 11.4801 13.3333 10.5787 13.3333 8.66675C13.3333 5.72008 10.9467 3.33341 8 3.33341C5.05333 3.33341 2.66667 5.72008 2.66667 8.66675V10.0001H0V8.66675C0 4.24808 3.58133 0.666748 8 0.666748Z" fill="#0D5220"/>
</svg>
