<svg width="38" height="32" viewBox="0 0 38 32" fill="none" xmlns="http://www.w3.org/2000/svg">
<path d="M28.9231 32C25.9487 32 23.7949 30.9744 22.4615 28.9231C21.1282 26.8718 20.4615 24.5128 20.4615 21.8462C20.4615 20.3077 20.6667 18.6154 21.0769 16.7692C21.4872 14.9231 22.2564 13.0769 23.3846 11.2308C24.6154 9.28205 26.3077 7.38462 28.4615 5.53846C30.6154 3.58975 33.4872 1.74359 37.0769 0L38 1.38462C35.9487 3.33333 34.3077 5.02564 33.0769 6.46154C31.9487 7.89743 31.0769 9.23077 30.4615 10.4615C29.8462 11.6923 29.4359 12.8205 29.2308 13.8461C29.1282 14.8718 29.0769 15.9487 29.0769 17.0769C29.0769 17.8974 29.3333 18.5128 29.8462 18.9231C30.359 19.2308 30.9231 19.641 31.5385 20.1538C32.4615 20.7692 33.282 21.3846 34 22C34.8205 22.5128 35.2308 23.641 35.2308 25.3846C35.2308 27.2308 34.6154 28.8205 33.3846 30.1538C32.1538 31.3846 30.6667 32 28.9231 32ZM8.61538 32C5.64103 32 3.4359 30.9744 2 28.9231C0.666667 26.8718 0 24.5128 0 21.8462C0 20.3077 0.205128 18.6667 0.615385 16.9231C1.02564 15.0769 1.84615 13.1795 3.07692 11.2308C4.30769 9.28205 6 7.38462 8.15385 5.53846C10.3077 3.58975 13.1795 1.74359 16.7692 0L17.6923 1.38462C15.641 3.33333 14 5.02564 12.7692 6.46154C11.641 7.89743 10.7692 9.23077 10.1538 10.4615C9.53846 11.6923 9.1282 12.8205 8.92308 13.8461C8.82051 14.8718 8.76923 15.9487 8.76923 17.0769C8.76923 17.8974 8.97436 18.5128 9.38462 18.9231C9.89744 19.3333 10.4615 19.6923 11.0769 20C11.8974 20.5128 12.7179 21.1282 13.5385 21.8462C14.4615 22.4615 14.9231 23.641 14.9231 25.3846C14.9231 27.2308 14.3077 28.8205 13.0769 30.1538C11.9487 31.3846 10.4615 32 8.61538 32Z" fill="#B6CBBC"/>
</svg>
