<svg width="235" height="128" viewBox="0 0 235 128" fill="none" xmlns="http://www.w3.org/2000/svg">
<path d="M223.332 88.8575C224.82 90.1331 226.237 91.2669 227.583 92.259C228.788 93.1094 230.028 93.8889 231.304 94.5975C232.579 95.3061 233.713 95.6605 234.705 95.6605V96.7234H228.753C226.06 96.7234 223.686 96.2274 221.631 95.2353C219.576 94.1723 217.627 92.9322 215.785 91.5149L205.261 83.2239C201.435 88.3969 197.466 92.1173 193.356 94.3849C189.317 96.5817 184.817 97.6801 179.857 97.6801C176.668 97.6801 173.798 97.2195 171.247 96.2982C168.766 95.3061 166.641 94.0306 164.869 92.4716C163.168 90.8417 161.857 88.9638 160.936 86.8379C160.015 84.712 159.554 82.5152 159.554 80.2476C159.554 75.358 160.794 71.2125 163.275 67.811C165.755 64.3387 169.9 61.2207 175.711 58.457C172.31 55.6224 169.688 52.8233 167.845 50.0596C166.003 47.2959 165.082 44.4259 165.082 41.4497C165.082 39.3946 165.471 37.4459 166.251 35.6034C167.03 33.761 168.129 32.1665 169.546 30.8201C170.963 29.4028 172.593 28.3044 174.436 27.5249C176.349 26.6746 178.439 26.2494 180.707 26.2494C183.4 26.2494 185.774 26.71 187.829 27.6312C189.884 28.5525 191.62 29.7571 193.037 31.2453C194.455 32.7334 195.518 34.4696 196.226 36.4538C196.935 38.3671 197.289 40.3158 197.289 42.3C197.289 44.922 196.474 47.6502 194.844 50.4848C193.214 53.3194 190.38 55.9059 186.341 58.2444C189.6 60.9372 192.966 63.7363 196.439 66.6417C199.911 69.5472 203.348 72.3463 206.749 75.0391C208.167 72.2045 209.301 69.37 210.151 66.5354C211.072 63.7009 211.781 61.1144 212.277 58.7759C212.844 56.3665 213.198 54.276 213.34 52.5044C213.552 50.7328 213.659 49.4573 213.659 48.6778C213.659 47.7565 213.304 46.9416 212.596 46.233C211.887 45.4535 211.108 45.0637 210.257 45.0637V44.0008H221.206V45.0637C220.497 45.0637 219.753 45.418 218.973 46.1267C218.265 46.7645 217.84 47.5794 217.698 48.5715C217.273 52.2564 216.67 55.835 215.891 59.3073C215.253 62.2836 214.403 65.4016 213.34 68.6614C212.277 71.9211 210.966 74.7556 209.407 77.165C210.824 78.5114 212.348 79.8578 213.978 81.2042C215.607 82.5507 217.202 83.8616 218.761 85.1372L223.332 88.8575ZM171.672 41.1308C172.168 43.611 173.55 46.0558 175.817 48.4652C178.085 50.8745 180.53 53.1776 183.152 55.3744C185.916 54.2406 188.041 52.5398 189.53 50.2722C191.018 47.9337 191.762 45.6661 191.762 43.4693C191.762 41.7686 191.478 40.1033 190.911 38.4734C190.415 36.8435 189.636 35.3908 188.573 34.1153C187.581 32.7689 186.27 31.7059 184.64 30.9264C183.081 30.076 181.239 29.6509 179.113 29.6509C176.774 29.6509 174.896 30.5721 173.479 32.4145C172.133 34.257 171.459 36.4538 171.459 39.0049C171.459 39.3592 171.459 39.7135 171.459 40.0678C171.459 40.4221 171.53 40.7765 171.672 41.1308ZM182.939 93.9597C186.412 93.9597 189.848 92.755 193.25 90.3457C196.722 87.9363 199.876 84.8183 202.71 80.9916C198.813 77.7319 194.844 74.4368 190.805 71.1062C186.766 67.7047 182.798 64.4095 178.9 61.2207C174.577 63.2757 171.388 65.8268 169.333 68.8739C167.278 71.9211 166.251 75.0037 166.251 78.1217C166.251 80.035 166.676 81.9129 167.526 83.7553C168.377 85.5978 169.546 87.2631 171.034 88.7512C172.522 90.2394 174.294 91.4795 176.349 92.4716C178.404 93.3928 180.601 93.8889 182.939 93.9597Z" fill="#D2E3D7"/>
<path d="M33.3078 55.2626H33.7252C34.1148 55.2626 34.4765 55.1235 34.8104 54.8452C35.1443 54.5113 35.4226 54.1217 35.6452 53.6765C35.9235 53.1757 36.1183 52.6748 36.2296 52.1739C36.3409 51.6174 36.3965 51.1165 36.3965 50.6713V27.9652H9.68348V50.6713C9.68348 51.1165 9.73913 51.6174 9.85043 52.1739C9.96174 52.6748 10.1287 53.1478 10.3513 53.593C10.5739 54.0383 10.8243 54.4278 11.1026 54.7617C11.4365 55.0957 11.8261 55.2626 12.2713 55.2626H12.6887V56.0974H1.00174V55.2626H1.41913C1.8087 55.2626 2.17043 55.1235 2.50435 54.8452C2.83826 54.5113 3.11652 54.1217 3.33913 53.6765C3.61739 53.1757 3.81217 52.6748 3.92348 52.1739C4.03478 51.6174 4.09044 51.1165 4.09044 50.6713V6.17739C4.09044 5.78783 4.03478 5.34261 3.92348 4.84174C3.81217 4.34087 3.64522 3.86783 3.42261 3.42261C3.2 2.97739 2.92174 2.61565 2.58783 2.33739C2.25391 2.00348 1.86435 1.83652 1.41913 1.83652H1.00174V1.00174H12.6887V1.83652H12.2713C11.8261 1.83652 11.4365 2.00348 11.1026 2.33739C10.7687 2.61565 10.4904 2.97739 10.2678 3.42261C10.1009 3.86783 9.96174 4.34087 9.85043 4.84174C9.73913 5.34261 9.68348 5.78783 9.68348 6.17739V25.0435H36.3965V6.17739C36.3965 5.78783 36.3409 5.34261 36.2296 4.84174C36.1183 4.34087 35.9513 3.86783 35.7287 3.42261C35.5061 2.97739 35.2278 2.61565 34.8939 2.33739C34.56 2.00348 34.1704 1.83652 33.7252 1.83652H33.3078V1.00174H44.9948V1.83652H44.5774C44.1322 1.83652 43.7426 2.00348 43.4087 2.33739C43.0748 2.61565 42.7965 2.97739 42.5739 3.42261C42.407 3.86783 42.2678 4.34087 42.1565 4.84174C42.0452 5.34261 41.9896 5.78783 41.9896 6.17739V50.6713C41.9896 51.1165 42.0452 51.6174 42.1565 52.1739C42.3235 52.6748 42.5183 53.1478 42.7409 53.593C42.9635 54.0383 43.2139 54.4278 43.4922 54.7617C43.8261 55.0957 44.1878 55.2626 44.5774 55.2626H44.9948V56.0974H33.3078V55.2626Z" fill="#0D5220"/>
<path d="M51.9293 55.2626H52.3467C52.792 55.2626 53.1815 55.1235 53.5154 54.8452C53.8493 54.5113 54.1276 54.1217 54.3502 53.6765C54.6285 53.2313 54.8233 52.7583 54.9346 52.2574C55.1015 51.7565 55.185 51.2835 55.185 50.8383V6.17739C55.185 5.78783 55.1015 5.34261 54.9346 4.84174C54.8233 4.34087 54.6285 3.86783 54.3502 3.42261C54.1276 2.97739 53.8493 2.61565 53.5154 2.33739C53.1815 2.00348 52.792 1.83652 52.3467 1.83652H51.9293V1.00174H84.0685V8.76522H83.2337C83.1224 7.48522 82.6215 6.37217 81.7311 5.42609C80.8407 4.42435 79.4493 3.92348 77.5572 3.92348H60.778V25.0435H74.6354C75.9154 25.0435 76.9728 24.6539 77.8076 23.8748C78.698 23.0957 79.1433 22.1774 79.1433 21.12H79.978V31.5548H79.1433C79.1433 30.553 78.7259 29.6904 77.8911 28.967C77.0563 28.2435 75.9711 27.8817 74.6354 27.8817H60.778V53.1757H79.0598C80.1172 53.1757 81.0354 52.9252 81.8146 52.4243C82.5937 51.9235 83.2337 51.3391 83.7346 50.6713C84.2911 49.9478 84.6806 49.1965 84.9033 48.4174C85.1815 47.5826 85.3206 46.887 85.3206 46.3304H86.1554V56.0974H51.9293V55.2626Z" fill="#0D5220"/>
<path d="M124.334 55.2626H124.752C126.087 55.2626 126.755 54.6504 126.755 53.4261C126.755 52.9809 126.672 52.5078 126.505 52.007L118.992 31.7217H104.383L97.1204 51.673C96.9535 52.1183 96.87 52.5357 96.87 52.9252C96.87 53.6487 97.0648 54.233 97.4543 54.6783C97.8439 55.0678 98.2613 55.2626 98.7065 55.2626H99.1239V56.0974H89.8578V55.2626H90.2752C90.9987 55.2626 91.6943 54.8452 92.3622 54.0104C93.0856 53.12 93.67 52.0904 94.1152 50.9217L113.232 0L131.931 50.4209C132.32 51.5339 132.849 52.6191 133.517 53.6765C134.24 54.7339 135.159 55.2626 136.272 55.2626H136.689V56.0974H124.334V55.2626ZM105.218 28.8835H118.073L111.646 11.4365L105.218 28.8835Z" fill="#0D5220"/>
<path d="M153.038 55.2626H153.455V56.0974H141.685V55.2626H142.102C142.492 55.2626 142.853 55.0957 143.187 54.7617C143.521 54.4278 143.8 54.0383 144.022 53.593C144.3 53.1478 144.495 52.6748 144.607 52.1739C144.718 51.6174 144.773 51.1165 144.773 50.6713V6.17739C144.773 5.78783 144.718 5.34261 144.607 4.84174C144.495 4.34087 144.3 3.86783 144.022 3.42261C143.8 2.97739 143.521 2.61565 143.187 2.33739C142.853 2.00348 142.492 1.83652 142.102 1.83652H141.685V1.00174H156.21C161.775 1.00174 166.06 2.08696 169.066 4.25739C172.127 6.42783 173.657 9.62783 173.657 13.8574C173.657 15.9722 173.295 17.8365 172.572 19.4504C171.904 21.0087 170.986 22.3722 169.817 23.5409C168.648 24.6539 167.257 25.5722 165.643 26.2957C164.085 26.9635 162.415 27.4643 160.634 27.7983L166.645 36.9809C168.092 39.207 169.567 41.4052 171.069 43.5757C172.572 45.6904 174.047 47.8887 175.493 50.1704C175.883 50.727 176.3 51.3113 176.746 51.9235C177.247 52.5357 177.747 53.0922 178.248 53.593C178.805 54.0939 179.361 54.5113 179.918 54.8452C180.53 55.1235 181.142 55.2626 181.754 55.2626V56.0974H178.165C175.939 56.0974 174.102 55.5687 172.655 54.5113C171.264 53.3983 170.095 52.1183 169.149 50.6713C166.645 46.9983 164.14 43.2696 161.636 39.4852C159.187 35.7009 156.739 31.9722 154.29 28.2991C153.678 28.2435 153.01 28.1878 152.287 28.1322C151.619 28.0209 150.979 27.9096 150.367 27.7983V50.6713C150.367 51.1165 150.422 51.6174 150.533 52.1739C150.645 52.6748 150.812 53.1478 151.034 53.593C151.313 54.0383 151.591 54.4278 151.869 54.7617C152.203 55.0957 152.593 55.2626 153.038 55.2626ZM150.367 3.84V25.0435H150.784C151.229 25.0991 151.925 25.1548 152.871 25.2104C153.873 25.2104 155.097 25.2104 156.544 25.2104C157.713 25.2104 158.937 25.0435 160.217 24.7096C161.553 24.32 162.777 23.7078 163.89 22.873C165.059 21.9826 166.005 20.8417 166.728 19.4504C167.507 18.0591 167.897 16.3061 167.897 14.1913C167.897 12.0765 167.48 10.3513 166.645 9.01566C165.866 7.68 164.753 6.62261 163.306 5.84348C161.914 5.06435 160.217 4.53565 158.213 4.25739C156.21 3.97913 154.012 3.84 151.619 3.84H150.367Z" fill="#0D5220"/>
<path d="M0 126.497H0.417391C0.862609 126.497 1.25217 126.358 1.58609 126.08C1.92 125.746 2.19826 125.357 2.42087 124.911C2.69913 124.466 2.89391 123.993 3.00522 123.492C3.17217 122.991 3.25565 122.518 3.25565 122.073V77.4122C3.25565 77.0226 3.17217 76.5774 3.00522 76.0765C2.89391 75.5756 2.69913 75.1026 2.42087 74.6574C2.19826 74.2122 1.92 73.8504 1.58609 73.5722C1.25217 73.2383 0.862609 73.0713 0.417391 73.0713H0V72.2365H12.0209V73.0713H11.6035C11.1583 73.0713 10.7687 73.2383 10.4348 73.5722C10.1009 73.8504 9.82261 74.2122 9.6 74.6574C9.37739 75.1026 9.18261 75.5756 9.01565 76.0765C8.90435 76.5774 8.8487 77.0226 8.8487 77.4122V124.243H27.1304C28.1878 124.243 29.1061 123.993 29.8852 123.492C30.6643 122.991 31.3043 122.379 31.8052 121.656C32.3617 120.877 32.7513 120.07 32.9739 119.235C33.2522 118.344 33.3913 117.537 33.3913 116.814H34.2261V127.332H0V126.497Z" fill="#0D5220"/>
<path d="M39.1383 72.2365H51.0757V73.0713H50.6583C50.2687 73.0713 49.907 73.2383 49.573 73.5722C49.2391 73.8504 48.9609 74.2122 48.7383 74.6574C48.5156 75.047 48.3209 75.52 48.1539 76.0765C48.0426 76.5774 47.987 77.0226 47.987 77.4122V121.906C47.987 122.351 48.0426 122.852 48.1539 123.409C48.2652 123.91 48.4322 124.383 48.6548 124.828C48.933 125.273 49.2113 125.663 49.4896 125.997C49.8235 126.33 50.213 126.497 50.6583 126.497H51.0757V127.332H39.1383V126.497H39.5556C40.0009 126.497 40.3904 126.358 40.7243 126.08C41.0583 125.746 41.3365 125.357 41.5591 124.911C41.8374 124.41 42.0322 123.91 42.1435 123.409C42.2548 122.852 42.3104 122.351 42.3104 121.906V77.4122C42.3104 77.0226 42.2548 76.5774 42.1435 76.0765C42.0322 75.5756 41.8374 75.1026 41.5591 74.6574C41.3365 74.2122 41.0583 73.8504 40.7243 73.5722C40.3904 73.2383 40.0009 73.0713 39.5556 73.0713H39.1383V72.2365Z" fill="#0D5220"/>
<path d="M92.9119 112.557C92.9119 115.339 92.3554 117.732 91.2424 119.736C90.1293 121.683 88.6824 123.27 86.9015 124.494C85.1763 125.718 83.2007 126.609 80.9746 127.165C78.8041 127.722 76.6337 128 74.4633 128C72.2372 128 70.3172 127.777 68.7033 127.332C67.0893 126.887 65.6146 126.47 64.2789 126.08C63.3885 125.802 62.5815 125.579 61.858 125.412C61.1346 125.19 60.4111 125.078 59.6876 125.078V115.562H60.5224C60.5224 117.677 61.0511 119.374 62.1085 120.654C63.2215 121.878 64.5015 122.824 65.9485 123.492C67.3954 124.16 68.8424 124.605 70.2893 124.828C71.7363 124.995 72.7937 125.078 73.4615 125.078C75.8546 125.078 77.9137 124.744 79.6389 124.077C81.3641 123.353 82.7833 122.435 83.8963 121.322C85.0093 120.153 85.8163 118.873 86.3172 117.482C86.8737 116.09 87.152 114.671 87.152 113.224C87.152 111.388 86.7624 109.857 85.9833 108.633C85.2041 107.353 84.1746 106.24 82.8946 105.294C81.6702 104.348 80.2511 103.541 78.6372 102.873C77.0233 102.205 75.3815 101.537 73.712 100.87C71.8198 100.146 69.9554 99.3948 68.1189 98.6157C66.2824 97.8365 64.6406 96.8904 63.1937 95.7774C61.7467 94.6087 60.578 93.2452 59.6876 91.687C58.7972 90.073 58.352 88.0974 58.352 85.76C58.352 83.3113 58.825 81.1965 59.7711 79.4157C60.7172 77.5791 61.9693 76.0765 63.5276 74.9078C65.1415 73.7391 66.9502 72.8765 68.9537 72.32C71.0128 71.7078 73.0998 71.4017 75.2146 71.4017C76.6615 71.4017 78.025 71.513 79.305 71.7357C80.585 71.9026 81.8093 72.1252 82.978 72.4035C83.9241 72.6261 84.8424 72.8209 85.7328 72.9878C86.6233 73.0991 87.4859 73.1548 88.3206 73.1548V81.753H87.4859C87.3746 78.8591 86.2337 76.9113 84.0633 75.9096C81.8928 74.8522 78.8876 74.3235 75.0476 74.3235C72.8215 74.3235 70.985 74.713 69.538 75.4922C68.1467 76.2156 67.0337 77.1339 66.1989 78.247C65.3641 79.3043 64.7798 80.473 64.4459 81.753C64.1676 82.9774 64.0285 84.0626 64.0285 85.0087C64.0285 86.567 64.3624 87.9026 65.0302 89.0156C65.7537 90.1287 66.6998 91.1026 67.8685 91.9374C69.0372 92.7722 70.3728 93.5235 71.8754 94.1913C73.4337 94.8591 75.0476 95.4991 76.7172 96.1113C78.6094 96.8348 80.5293 97.6139 82.4772 98.4487C84.425 99.2835 86.1502 100.313 87.6528 101.537C89.2111 102.762 90.4633 104.264 91.4093 106.045C92.4111 107.826 92.9119 109.997 92.9119 112.557Z" fill="#0D5220"/>
<path d="M118.049 126.497H118.467V127.332H106.613V126.497H107.03C107.475 126.497 107.865 126.33 108.199 125.997C108.533 125.663 108.811 125.273 109.034 124.828C109.312 124.383 109.507 123.91 109.618 123.409C109.729 122.852 109.785 122.351 109.785 121.906V75.3252H100.102C99.2111 75.3252 98.432 75.52 97.7641 75.9096C97.0963 76.2991 96.5398 76.8 96.0946 77.4122C95.6493 77.9687 95.3154 78.6087 95.0928 79.3322C94.8702 80 94.7589 80.6678 94.7589 81.3357H93.9241V72.2365H131.406V81.3357H130.571C130.571 80.6678 130.46 80 130.237 79.3322C130.015 78.6087 129.681 77.9687 129.235 77.4122C128.79 76.8 128.234 76.2991 127.566 75.9096C126.898 75.52 126.119 75.3252 125.228 75.3252H115.378V121.906C115.378 122.351 115.434 122.852 115.545 123.409C115.656 123.91 115.823 124.383 116.046 124.828C116.324 125.273 116.602 125.663 116.881 125.997C117.215 126.33 117.604 126.497 118.049 126.497Z" fill="#0D5220"/>
<path d="M135.978 126.497H136.396C136.841 126.497 137.23 126.358 137.564 126.08C137.898 125.746 138.177 125.357 138.399 124.911C138.677 124.466 138.872 123.993 138.983 123.492C139.15 122.991 139.234 122.518 139.234 122.073V77.4122C139.234 77.0226 139.15 76.5774 138.983 76.0765C138.872 75.5756 138.677 75.1026 138.399 74.6574C138.177 74.2122 137.898 73.8504 137.564 73.5722C137.23 73.2383 136.841 73.0713 136.396 73.0713H135.978V72.2365H168.117V80H167.283C167.171 78.72 166.67 77.607 165.78 76.6609C164.89 75.6591 163.498 75.1583 161.606 75.1583H144.827V96.2783H158.684C159.964 96.2783 161.022 95.8887 161.857 95.1096C162.747 94.3304 163.192 93.4122 163.192 92.3548H164.027V102.79H163.192C163.192 101.788 162.775 100.925 161.94 100.202C161.105 99.4783 160.02 99.1165 158.684 99.1165H144.827V124.41H163.109C164.166 124.41 165.084 124.16 165.863 123.659C166.643 123.158 167.283 122.574 167.783 121.906C168.34 121.183 168.73 120.431 168.952 119.652C169.23 118.817 169.37 118.122 169.37 117.565H170.204V127.332H135.978V126.497Z" fill="#0D5220"/>
<path d="M185.26 126.497H185.677V127.332H176.411V126.497H176.828C177.218 126.497 177.58 126.33 177.914 125.997C178.303 125.663 178.609 125.273 178.832 124.828C179.055 124.383 179.222 123.91 179.333 123.409C179.5 122.852 179.583 122.351 179.583 121.906V77.4122C179.583 77.0226 179.528 76.5774 179.416 76.0765C179.361 75.5756 179.222 75.1026 178.999 74.6574C178.776 74.2122 178.47 73.8504 178.081 73.5722C177.691 73.2383 177.218 73.0713 176.662 73.0713H176.244V72.2365H184.675L214.978 119.986V77.4122C214.978 77.0226 214.895 76.5774 214.728 76.0765C214.616 75.5756 214.422 75.1026 214.143 74.6574C213.921 74.2122 213.642 73.8504 213.308 73.5722C212.975 73.2383 212.585 73.0713 212.14 73.0713H211.722V72.2365H221.072V73.0713H220.655C220.209 73.0713 219.82 73.2383 219.486 73.5722C219.152 73.8504 218.846 74.2122 218.568 74.6574C218.345 75.1026 218.178 75.5756 218.067 76.0765C217.955 76.5774 217.9 77.0226 217.9 77.4122V127.332H212.724L182.505 79.4157V121.906C182.505 122.351 182.561 122.852 182.672 123.409C182.783 123.91 182.95 124.383 183.173 124.828C183.451 125.273 183.757 125.663 184.091 125.997C184.425 126.33 184.815 126.497 185.26 126.497Z" fill="#0D5220"/>
</svg>
