<svg width="118" height="64" viewBox="0 0 118 64" fill="none" xmlns="http://www.w3.org/2000/svg">
<path d="M111.667 44.4291C112.411 45.0668 113.12 45.6338 113.793 46.1298C114.395 46.555 115.015 46.9447 115.653 47.2991C116.291 47.6534 116.858 47.8305 117.354 47.8305V48.362H114.378C113.031 48.362 111.844 48.114 110.817 47.6179C109.789 47.0865 108.815 46.4664 107.894 45.7578L102.632 41.6122C100.719 44.1988 98.7344 46.0589 96.6793 47.1928C94.6597 48.2911 92.4098 48.8403 89.9296 48.8403C88.3351 48.8403 86.9001 48.61 85.6246 48.1494C84.3845 47.6534 83.3215 47.0156 82.4357 46.2361C81.5853 45.4212 80.9299 44.4822 80.4692 43.4193C80.0086 42.3563 79.7783 41.2579 79.7783 40.1241C79.7783 37.6793 80.3984 35.6065 81.6385 33.9058C82.8786 32.1696 84.9514 30.6106 87.8568 29.2288C86.1561 27.8115 84.8451 26.412 83.9239 25.0301C83.0026 23.6483 82.542 22.2133 82.542 20.7251C82.542 19.6976 82.7369 18.7232 83.1266 17.802C83.5164 16.8808 84.0656 16.0836 84.7742 15.4104C85.4829 14.7017 86.2978 14.1525 87.219 13.7628C88.1757 13.3376 89.2209 13.125 90.3547 13.125C91.7011 13.125 92.8881 13.3553 93.9156 13.8159C94.9432 14.2765 95.8112 14.8789 96.5199 15.6229C97.2285 16.367 97.76 17.2351 98.1143 18.2272C98.4686 19.1839 98.6458 20.1582 98.6458 21.1503C98.6458 22.4613 98.2383 23.8254 97.4234 25.2427C96.6085 26.66 95.1912 27.9532 93.1716 29.1225C94.8014 30.4689 96.4845 31.8685 98.2206 33.3212C99.9568 34.7739 101.675 36.1734 103.376 37.5199C104.085 36.1026 104.652 34.6853 105.077 33.268C105.537 31.8508 105.892 30.5575 106.14 29.3882C106.423 28.1836 106.6 27.1383 106.671 26.2525C106.777 25.3667 106.831 24.7289 106.831 24.3392C106.831 23.8786 106.653 23.4711 106.299 23.1168C105.945 22.727 105.555 22.5322 105.13 22.5322V22.0007H110.604V22.5322C110.25 22.5322 109.878 22.7093 109.488 23.0636C109.134 23.3825 108.921 23.79 108.85 24.286C108.638 26.1285 108.336 27.9178 107.947 29.654C107.628 31.1421 107.203 32.7011 106.671 34.331C106.14 35.9608 105.484 37.3781 104.705 38.5828C105.413 39.256 106.175 39.9292 106.99 40.6024C107.805 41.2756 108.602 41.9311 109.382 42.5689L111.667 44.4291ZM85.8372 20.5657C86.0852 21.8058 86.7761 23.0282 87.9099 24.2329C89.0438 25.4376 90.2662 26.5891 91.5771 27.6875C92.959 27.1206 94.0219 26.2702 94.766 25.1364C95.5101 23.9672 95.8821 22.8333 95.8821 21.7349C95.8821 20.8846 95.7404 20.0519 95.4569 19.237C95.2089 18.4221 94.8192 17.6957 94.2877 17.0579C93.7916 16.3847 93.1361 15.8533 92.3212 15.4635C91.5417 15.0383 90.6205 14.8257 89.5575 14.8257C88.3883 14.8257 87.4493 15.2863 86.7407 16.2076C86.0675 17.1288 85.7309 18.2272 85.7309 19.5027C85.7309 19.6799 85.7309 19.8571 85.7309 20.0342C85.7309 20.2114 85.7663 20.3885 85.8372 20.5657ZM91.4708 46.9802C93.207 46.9802 94.9254 46.3778 96.6262 45.1731C98.3623 43.9685 99.9391 42.4095 101.356 40.4961C99.4076 38.8663 97.4234 37.2187 95.4038 35.5534C93.3842 33.8527 91.4 32.2051 89.4512 30.6106C87.2899 31.6382 85.6954 32.9137 84.6679 34.4373C83.6404 35.9608 83.1266 37.5021 83.1266 39.0611C83.1266 40.0178 83.3392 40.9567 83.7644 41.878C84.1896 42.7992 84.7742 43.6319 85.5183 44.3759C86.2624 45.12 87.1482 45.7401 88.1757 46.2361C89.2032 46.6967 90.3016 46.9447 91.4708 46.9802Z" fill="#0D5220"/>
<path d="M16.6539 27.6313H16.8626C17.0574 27.6313 17.2383 27.5617 17.4052 27.4226C17.5722 27.2557 17.7113 27.0609 17.8226 26.8383C17.9617 26.5878 18.0591 26.3374 18.1148 26.087C18.1704 25.8087 18.1983 25.5583 18.1983 25.3357V13.9826H4.84174V25.3357C4.84174 25.5583 4.86957 25.8087 4.92522 26.087C4.98087 26.3374 5.06435 26.5739 5.17565 26.7965C5.28696 27.0191 5.41217 27.2139 5.5513 27.3809C5.71826 27.5478 5.91304 27.6313 6.13565 27.6313H6.34435V28.0487H0.50087V27.6313H0.709565C0.904348 27.6313 1.08522 27.5617 1.25217 27.4226C1.41913 27.2557 1.55826 27.0609 1.66957 26.8383C1.8087 26.5878 1.90609 26.3374 1.96174 26.087C2.01739 25.8087 2.04522 25.5583 2.04522 25.3357V3.0887C2.04522 2.89391 2.01739 2.67131 1.96174 2.42087C1.90609 2.17044 1.82261 1.93391 1.7113 1.7113C1.6 1.4887 1.46087 1.30783 1.29391 1.1687C1.12696 1.00174 0.932174 0.918261 0.709565 0.918261H0.50087V0.500871H6.34435V0.918261H6.13565C5.91304 0.918261 5.71826 1.00174 5.5513 1.1687C5.38435 1.30783 5.24522 1.4887 5.13391 1.7113C5.05043 1.93391 4.98087 2.17044 4.92522 2.42087C4.86957 2.67131 4.84174 2.89391 4.84174 3.0887V12.5217H18.1983V3.0887C18.1983 2.89391 18.1704 2.67131 18.1148 2.42087C18.0591 2.17044 17.9757 1.93391 17.8643 1.7113C17.753 1.4887 17.6139 1.30783 17.447 1.1687C17.28 1.00174 17.0852 0.918261 16.8626 0.918261H16.6539V0.500871H22.4974V0.918261H22.2887C22.0661 0.918261 21.8713 1.00174 21.7043 1.1687C21.5374 1.30783 21.3983 1.4887 21.287 1.7113C21.2035 1.93391 21.1339 2.17044 21.0783 2.42087C21.0226 2.67131 20.9948 2.89391 20.9948 3.0887V25.3357C20.9948 25.5583 21.0226 25.8087 21.0783 26.087C21.1617 26.3374 21.2591 26.5739 21.3704 26.7965C21.4817 27.0191 21.607 27.2139 21.7461 27.3809C21.913 27.5478 22.0939 27.6313 22.2887 27.6313H22.4974V28.0487H16.6539V27.6313Z" fill="white"/>
<path d="M25.9647 27.6313H26.1734C26.396 27.6313 26.5908 27.5617 26.7577 27.4226C26.9247 27.2557 27.0638 27.0609 27.1751 26.8383C27.3142 26.6157 27.4116 26.3791 27.4673 26.1287C27.5508 25.8783 27.5925 25.6417 27.5925 25.4191V3.0887C27.5925 2.89391 27.5508 2.67131 27.4673 2.42087C27.4116 2.17044 27.3142 1.93391 27.1751 1.7113C27.0638 1.4887 26.9247 1.30783 26.7577 1.1687C26.5908 1.00174 26.396 0.918261 26.1734 0.918261H25.9647V0.500871H42.0342V4.38261H41.6168C41.5612 3.74261 41.3108 3.18609 40.8655 2.71304C40.4203 2.21218 39.7247 1.96174 38.7786 1.96174H30.389V12.5217H37.3177C37.9577 12.5217 38.4864 12.327 38.9038 11.9374C39.349 11.5478 39.5716 11.0887 39.5716 10.56H39.989V15.7774H39.5716C39.5716 15.2765 39.3629 14.8452 38.9455 14.4835C38.5281 14.1217 37.9855 13.9409 37.3177 13.9409H30.389V26.5878H39.5299C40.0586 26.5878 40.5177 26.4626 40.9073 26.2122C41.2968 25.9617 41.6168 25.6696 41.8673 25.3357C42.1455 24.9739 42.3403 24.5983 42.4516 24.2087C42.5908 23.7913 42.6603 23.4435 42.6603 23.1652H43.0777V28.0487H25.9647V27.6313Z" fill="white"/>
<path d="M62.1672 27.6313H62.3759C63.0437 27.6313 63.3776 27.3252 63.3776 26.713C63.3776 26.4904 63.3359 26.2539 63.2524 26.0035L59.4959 15.8609H52.1915L48.5602 25.8365C48.4767 26.0591 48.435 26.2678 48.435 26.4626C48.435 26.8243 48.5324 27.1165 48.7272 27.3391C48.922 27.5339 49.1306 27.6313 49.3533 27.6313H49.562V28.0487H44.9289V27.6313H45.1376C45.4993 27.6313 45.8472 27.4226 46.1811 27.0052C46.5428 26.56 46.835 26.0452 47.0576 25.4609L56.6159 0L65.9654 25.2104C66.1602 25.767 66.4246 26.3096 66.7585 26.8383C67.1202 27.367 67.5793 27.6313 68.1359 27.6313H68.3446V28.0487H62.1672V27.6313ZM52.6089 14.4417H59.0367L55.8228 5.71826L52.6089 14.4417Z" fill="white"/>
<path d="M76.5189 27.6313H76.7276V28.0487H70.8424V27.6313H71.0511C71.2459 27.6313 71.4267 27.5478 71.5937 27.3809C71.7607 27.2139 71.8998 27.0191 72.0111 26.7965C72.1502 26.5739 72.2476 26.3374 72.3033 26.087C72.3589 25.8087 72.3867 25.5583 72.3867 25.3357V3.0887C72.3867 2.89391 72.3589 2.67131 72.3033 2.42087C72.2476 2.17044 72.1502 1.93391 72.0111 1.7113C71.8998 1.4887 71.7607 1.30783 71.5937 1.1687C71.4267 1.00174 71.2459 0.918261 71.0511 0.918261H70.8424V0.500871H78.105C80.8876 0.500871 83.0302 1.04348 84.5328 2.1287C86.0633 3.21391 86.8285 4.81391 86.8285 6.9287C86.8285 7.98609 86.6476 8.91826 86.2859 9.72522C85.952 10.5043 85.4928 11.1861 84.9085 11.7704C84.3241 12.327 83.6285 12.7861 82.8215 13.1478C82.0424 13.4817 81.2076 13.7322 80.3172 13.8991L83.3224 18.4904C84.0459 19.6035 84.7833 20.7026 85.5346 21.7878C86.2859 22.8452 87.0233 23.9443 87.7467 25.0852C87.9415 25.3635 88.1502 25.6557 88.3728 25.9617C88.6233 26.2678 88.8737 26.5461 89.1241 26.7965C89.4024 27.047 89.6807 27.2557 89.9589 27.4226C90.265 27.5617 90.5711 27.6313 90.8772 27.6313V28.0487H89.0824C87.9693 28.0487 87.0511 27.7843 86.3276 27.2557C85.632 26.6991 85.0476 26.0591 84.5746 25.3357C83.3224 23.4991 82.0702 21.6348 80.818 19.7426C79.5937 17.8504 78.3693 15.9861 77.145 14.1496C76.8389 14.1217 76.505 14.0939 76.1433 14.0661C75.8093 14.0104 75.4893 13.9548 75.1833 13.8991V25.3357C75.1833 25.5583 75.2111 25.8087 75.2667 26.087C75.3224 26.3374 75.4059 26.5739 75.5172 26.7965C75.6563 27.0191 75.7954 27.2139 75.9346 27.3809C76.1015 27.5478 76.2963 27.6313 76.5189 27.6313ZM75.1833 1.92V12.5217H75.392C75.6146 12.5496 75.9624 12.5774 76.4354 12.6052C76.9363 12.6052 77.5485 12.6052 78.272 12.6052C78.8563 12.6052 79.4685 12.5217 80.1085 12.3548C80.7763 12.16 81.3885 11.8539 81.945 11.4365C82.5293 10.9913 83.0024 10.4209 83.3641 9.72522C83.7537 9.02957 83.9485 8.15304 83.9485 7.09565C83.9485 6.03826 83.7398 5.17565 83.3224 4.50783C82.9328 3.84 82.3763 3.31131 81.6528 2.92174C80.9572 2.53217 80.1085 2.26783 79.1067 2.1287C78.105 1.98957 77.0059 1.92 75.8093 1.92H75.1833Z" fill="white"/>
<path d="M0 63.2487H0.208696C0.431304 63.2487 0.626087 63.1791 0.793043 63.04C0.96 62.873 1.09913 62.6783 1.21043 62.4557C1.34957 62.233 1.44696 61.9965 1.50261 61.7461C1.58609 61.4957 1.62783 61.2591 1.62783 61.0365V38.7061C1.62783 38.5113 1.58609 38.2887 1.50261 38.0383C1.44696 37.7878 1.34957 37.5513 1.21043 37.3287C1.09913 37.1061 0.96 36.9252 0.793043 36.7861C0.626087 36.6191 0.431304 36.5357 0.208696 36.5357H0V36.1183H6.01043V36.5357H5.80174C5.57913 36.5357 5.38435 36.6191 5.21739 36.7861C5.05043 36.9252 4.9113 37.1061 4.8 37.3287C4.6887 37.5513 4.5913 37.7878 4.50783 38.0383C4.45217 38.2887 4.42435 38.5113 4.42435 38.7061V62.1217H13.5652C14.0939 62.1217 14.553 61.9965 14.9426 61.7461C15.3322 61.4957 15.6522 61.1896 15.9026 60.8278C16.1809 60.4383 16.3757 60.0348 16.487 59.6174C16.6261 59.1722 16.6957 58.7687 16.6957 58.407H17.113V63.6661H0V63.2487Z" fill="white"/>
<path d="M19.5691 36.1183H25.5378V36.5357H25.3291C25.1343 36.5357 24.9535 36.6191 24.7865 36.7861C24.6196 36.9252 24.4804 37.1061 24.3691 37.3287C24.2578 37.5235 24.1604 37.76 24.077 38.0383C24.0213 38.2887 23.9935 38.5113 23.9935 38.7061V60.953C23.9935 61.1757 24.0213 61.4261 24.077 61.7043C24.1326 61.9548 24.2161 62.1913 24.3274 62.4139C24.4665 62.6365 24.6057 62.8313 24.7448 62.9983C24.9117 63.1652 25.1065 63.2487 25.3291 63.2487H25.5378V63.6661H19.5691V63.2487H19.7778C20.0004 63.2487 20.1952 63.1791 20.3622 63.04C20.5291 62.873 20.6683 62.6783 20.7796 62.4557C20.9187 62.2052 21.0161 61.9548 21.0717 61.7043C21.1274 61.4261 21.1552 61.1757 21.1552 60.953V38.7061C21.1552 38.5113 21.1274 38.2887 21.0717 38.0383C21.0161 37.7878 20.9187 37.5513 20.7796 37.3287C20.6683 37.1061 20.5291 36.9252 20.3622 36.7861C20.1952 36.6191 20.0004 36.5357 19.7778 36.5357H19.5691V36.1183Z" fill="white"/>
<path d="M46.456 56.2783C46.456 57.6696 46.1777 58.8661 45.6212 59.8678C45.0647 60.8417 44.3412 61.6348 43.4508 62.247C42.5881 62.8591 41.6003 63.3043 40.4873 63.5826C39.4021 63.8609 38.3168 64 37.2316 64C36.1186 64 35.1586 63.8887 34.3516 63.6661C33.5447 63.4435 32.8073 63.2348 32.1395 63.04C31.6942 62.9009 31.2908 62.7896 30.929 62.7061C30.5673 62.5948 30.2055 62.5391 29.8438 62.5391V57.7809H30.2612C30.2612 58.8383 30.5255 59.687 31.0542 60.327C31.6108 60.9391 32.2508 61.4122 32.9742 61.7461C33.6977 62.08 34.4212 62.3026 35.1447 62.4139C35.8682 62.4974 36.3968 62.5391 36.7308 62.5391C37.9273 62.5391 38.9568 62.3722 39.8195 62.0383C40.6821 61.6765 41.3916 61.2174 41.9482 60.6609C42.5047 60.0765 42.9082 59.4365 43.1586 58.7409C43.4368 58.0452 43.576 57.3357 43.576 56.6122C43.576 55.6939 43.3812 54.9287 42.9916 54.3165C42.6021 53.6765 42.0873 53.12 41.4473 52.647C40.8351 52.1739 40.1255 51.7704 39.3186 51.4365C38.5116 51.1026 37.6908 50.7687 36.856 50.4348C35.9099 50.073 34.9777 49.6974 34.0595 49.3078C33.1412 48.9183 32.3203 48.4452 31.5968 47.8887C30.8734 47.3043 30.289 46.6226 29.8438 45.8435C29.3986 45.0365 29.176 44.0487 29.176 42.88C29.176 41.6557 29.4125 40.5983 29.8855 39.7078C30.3586 38.7896 30.9847 38.0383 31.7638 37.4539C32.5708 36.8696 33.4751 36.4383 34.4768 36.16C35.5064 35.8539 36.5499 35.7009 37.6073 35.7009C38.3308 35.7009 39.0125 35.7565 39.6525 35.8678C40.2925 35.9513 40.9047 36.0626 41.489 36.2017C41.9621 36.313 42.4212 36.4104 42.8664 36.4939C43.3116 36.5496 43.7429 36.5774 44.1603 36.5774V40.8765H43.7429C43.6873 39.4296 43.1168 38.4556 42.0316 37.9548C40.9464 37.4261 39.4438 37.1617 37.5238 37.1617C36.4108 37.1617 35.4925 37.3565 34.769 37.7461C34.0734 38.1078 33.5168 38.567 33.0995 39.1235C32.6821 39.6522 32.3899 40.2365 32.2229 40.8765C32.0838 41.4887 32.0142 42.0313 32.0142 42.5043C32.0142 43.2835 32.1812 43.9513 32.5151 44.5078C32.8768 45.0643 33.3499 45.5513 33.9342 45.9687C34.5186 46.3861 35.1864 46.7617 35.9377 47.0957C36.7168 47.4296 37.5238 47.7496 38.3586 48.0557C39.3047 48.4174 40.2647 48.807 41.2386 49.2243C42.2125 49.6417 43.0751 50.1565 43.8264 50.7687C44.6055 51.3809 45.2316 52.1322 45.7047 53.0226C46.2055 53.913 46.456 54.9983 46.456 56.2783Z" fill="white"/>
<path d="M59.0247 63.2487H59.2334V63.6661H53.3064V63.2487H53.5151C53.7377 63.2487 53.9325 63.1652 54.0995 62.9983C54.2664 62.8313 54.4055 62.6365 54.5168 62.4139C54.656 62.1913 54.7534 61.9548 54.809 61.7043C54.8647 61.4261 54.8925 61.1757 54.8925 60.953V37.6626H50.0508C49.6055 37.6626 49.216 37.76 48.8821 37.9548C48.5481 38.1496 48.2699 38.4 48.0473 38.7061C47.8247 38.9843 47.6577 39.3043 47.5464 39.6661C47.4351 40 47.3795 40.3339 47.3795 40.6678H46.9621V36.1183H65.7029V40.6678H65.2855C65.2855 40.3339 65.2299 40 65.1186 39.6661C65.0073 39.3043 64.8403 38.9843 64.6177 38.7061C64.3951 38.4 64.1168 38.1496 63.7829 37.9548C63.449 37.76 63.0595 37.6626 62.6142 37.6626H57.689V60.953C57.689 61.1757 57.7168 61.4261 57.7725 61.7043C57.8281 61.9548 57.9116 62.1913 58.0229 62.4139C58.1621 62.6365 58.3012 62.8313 58.4403 62.9983C58.6073 63.1652 58.8021 63.2487 59.0247 63.2487Z" fill="white"/>
<path d="M67.9891 63.2487H68.1978C68.4204 63.2487 68.6152 63.1791 68.7822 63.04C68.9491 62.873 69.0883 62.6783 69.1996 62.4557C69.3387 62.233 69.4361 61.9965 69.4917 61.7461C69.5752 61.4957 69.617 61.2591 69.617 61.0365V38.7061C69.617 38.5113 69.5752 38.2887 69.4917 38.0383C69.4361 37.7878 69.3387 37.5513 69.1996 37.3287C69.0883 37.1061 68.9491 36.9252 68.7822 36.7861C68.6152 36.6191 68.4204 36.5357 68.1978 36.5357H67.9891V36.1183H84.0587V40H83.6413C83.5856 39.36 83.3352 38.8035 82.89 38.3304C82.4448 37.8296 81.7491 37.5791 80.803 37.5791H72.4135V48.1391H79.3422C79.9822 48.1391 80.5109 47.9443 80.9283 47.5548C81.3735 47.1652 81.5961 46.7061 81.5961 46.1774H82.0135V51.3948H81.5961C81.5961 50.8939 81.3874 50.4626 80.97 50.1009C80.5526 49.7391 80.01 49.5583 79.3422 49.5583H72.4135V62.2052H81.5543C82.083 62.2052 82.5422 62.08 82.9317 61.8296C83.3213 61.5791 83.6413 61.287 83.8917 60.953C84.17 60.5913 84.3648 60.2156 84.4761 59.8261C84.6152 59.4087 84.6848 59.0609 84.6848 58.7826H85.1022V63.6661H67.9891V63.2487Z" fill="white"/>
<path d="M92.6299 63.2487H92.8386V63.6661H88.2055V63.2487H88.4142C88.609 63.2487 88.7899 63.1652 88.9568 62.9983C89.1516 62.8313 89.3047 62.6365 89.416 62.4139C89.5273 62.1913 89.6108 61.9548 89.6664 61.7043C89.7499 61.4261 89.7916 61.1757 89.7916 60.953V38.7061C89.7916 38.5113 89.7638 38.2887 89.7081 38.0383C89.6803 37.7878 89.6108 37.5513 89.4995 37.3287C89.3881 37.1061 89.2351 36.9252 89.0403 36.7861C88.8455 36.6191 88.609 36.5357 88.3308 36.5357H88.1221V36.1183H92.3377L107.489 59.993V38.7061C107.489 38.5113 107.447 38.2887 107.364 38.0383C107.308 37.7878 107.211 37.5513 107.072 37.3287C106.96 37.1061 106.821 36.9252 106.654 36.7861C106.487 36.6191 106.292 36.5357 106.07 36.5357H105.861V36.1183H110.536V36.5357H110.327C110.105 36.5357 109.91 36.6191 109.743 36.7861C109.576 36.9252 109.423 37.1061 109.284 37.3287C109.172 37.5513 109.089 37.7878 109.033 38.0383C108.978 38.2887 108.95 38.5113 108.95 38.7061V63.6661H106.362L91.2525 39.7078V60.953C91.2525 61.1757 91.2803 61.4261 91.336 61.7043C91.3916 61.9548 91.4751 62.1913 91.5864 62.4139C91.7255 62.6365 91.8786 62.8313 92.0455 62.9983C92.2125 63.1652 92.4073 63.2487 92.6299 63.2487Z" fill="white"/>
</svg>
