<svg width="24" height="24" viewBox="0 0 24 24" fill="none" xmlns="http://www.w3.org/2000/svg">
<path fill-rule="evenodd" clip-rule="evenodd" d="M19.4401 4.55182C17.466 2.58486 14.8406 1.50115 12.0437 1.5C6.28032 1.5 1.58978 6.16796 1.58746 11.9053C1.58669 13.7393 2.06811 15.5297 2.98316 17.1077L1.49976 22.5L7.04275 21.0529C8.57008 21.8821 10.2896 22.319 12.0394 22.3195H12.0438C17.8065 22.3195 22.4976 17.6512 22.4998 11.9136C22.5009 9.13301 21.4143 6.51865 19.4401 4.55182ZM12.0437 20.5621H12.0401C10.4807 20.5615 8.95129 20.1444 7.61677 19.3565L7.29956 19.169L4.01026 20.0278L4.88822 16.8361L4.68152 16.5089C3.81154 15.1318 3.35214 13.5401 3.35292 11.9059C3.35472 7.13721 7.25345 3.25752 12.0472 3.25752C14.3685 3.25829 16.5506 4.15909 18.1913 5.79395C19.8321 7.42881 20.7352 9.60187 20.7344 11.913C20.7324 16.6821 16.8339 20.5621 12.0437 20.5621ZM16.8107 14.0844C16.5495 13.9541 15.265 13.3253 15.0254 13.2384C14.7861 13.1516 14.6117 13.1084 14.4378 13.3686C14.2635 13.6288 13.7629 14.2146 13.6104 14.388C13.4579 14.5616 13.3057 14.5833 13.0444 14.4531C12.7831 14.323 11.9413 14.0483 10.9433 13.1625C10.1667 12.4731 9.64238 11.6216 9.48989 11.3614C9.33766 11.101 9.48861 10.9738 9.60452 10.8308C9.88734 10.4813 10.1706 10.1148 10.2576 9.9414C10.3448 9.76785 10.3011 9.61597 10.2357 9.48587C10.1706 9.35577 9.64805 8.07596 9.43039 7.55519C9.21815 7.04839 9.00294 7.11683 8.84247 7.10889C8.69024 7.10132 8.51598 7.09979 8.34173 7.09979C8.16761 7.09979 7.88453 7.16477 7.64498 7.42522C7.40556 7.68554 6.73069 8.31449 6.73069 9.59431C6.73069 10.8741 7.66687 12.1105 7.79746 12.284C7.92806 12.4576 9.63981 15.0839 12.2606 16.21C12.8839 16.4781 13.3705 16.638 13.75 16.7578C14.3759 16.9557 14.9453 16.9278 15.3956 16.8609C15.8976 16.7861 16.9412 16.2318 17.1591 15.6245C17.3767 15.0171 17.3767 14.4966 17.3113 14.388C17.2462 14.2796 17.0719 14.2146 16.8107 14.0844Z" fill="white"/>
</svg>
