<svg width="24" height="24" viewBox="0 0 24 24" fill="none" xmlns="http://www.w3.org/2000/svg">
<path d="M2.99994 3H20.9999C21.2652 3 21.5195 3.10536 21.707 3.29289C21.8946 3.48043 21.9999 3.73478 21.9999 4V20C21.9999 20.2652 21.8946 20.5196 21.707 20.7071C21.5195 20.8946 21.2652 21 20.9999 21H2.99994C2.73472 21 2.48037 20.8946 2.29283 20.7071C2.1053 20.5196 1.99994 20.2652 1.99994 20V4C1.99994 3.73478 2.1053 3.48043 2.29283 3.29289C2.48037 3.10536 2.73472 3 2.99994 3ZM19.9999 7.238L12.0719 14.338L3.99994 7.216V19H19.9999V7.238ZM4.51094 5L12.0609 11.662L19.5019 5H4.51094Z" fill="#1F7537"/>
</svg>
