<svg width="22" height="22" viewBox="0 0 22 22" fill="none" xmlns="http://www.w3.org/2000/svg">
<path fill-rule="evenodd" clip-rule="evenodd" d="M18.4403 3.55182C16.4662 1.58486 13.8409 0.501154 11.0439 0.5C5.28056 0.5 0.590024 5.16796 0.587706 10.9053C0.586933 12.7393 1.06835 14.5297 1.9834 16.1077L0.5 21.5L6.043 20.0529C7.57032 20.8821 9.2898 21.319 11.0397 21.3195H11.044C16.8068 21.3195 21.4978 16.6512 21.5 10.9136C21.5012 8.13301 20.4146 5.51865 18.4403 3.55182ZM11.0439 19.5621H11.0403C9.48092 19.5615 7.95154 19.1444 6.61701 18.3565L6.29981 18.169L3.01051 19.0278L3.88847 15.8361L3.68176 15.5089C2.81178 14.1318 2.35239 12.5401 2.35316 10.9059C2.35496 6.13721 6.2537 2.25752 11.0474 2.25752C13.3687 2.25829 15.5508 3.15909 17.1916 4.79395C18.8324 6.42881 19.7354 8.60187 19.7347 10.913C19.7326 15.6821 15.8341 19.5621 11.0439 19.5621ZM15.811 13.0844C15.5498 12.9541 14.2652 12.3253 14.0257 12.2384C13.7864 12.1516 13.612 12.1084 13.438 12.3686C13.2637 12.6288 12.7631 13.2146 12.6106 13.388C12.4582 13.5616 12.3059 13.5833 12.0446 13.4531C11.7833 13.323 10.9415 13.0483 9.94353 12.1625C9.16693 11.4731 8.64263 10.6216 8.49014 10.3614C8.33791 10.101 8.48885 9.97384 8.60476 9.8308C8.88758 9.48127 9.17079 9.11482 9.25786 8.9414C9.34505 8.76785 9.30139 8.61597 9.23596 8.48587C9.17079 8.35577 8.64829 7.07596 8.43064 6.55519C8.21839 6.04839 8.00318 6.11683 7.84271 6.10889C7.69048 6.10132 7.51623 6.09979 7.34197 6.09979C7.16785 6.09979 6.88477 6.16477 6.64522 6.42522C6.4058 6.68554 5.73094 7.31449 5.73094 8.59431C5.73094 9.87412 6.66711 11.1105 6.79771 11.284C6.9283 11.4576 8.64005 14.0839 11.2608 15.21C11.8841 15.4781 12.3707 15.638 12.7503 15.7578C13.3762 15.9557 13.9456 15.9278 14.3958 15.8609C14.8978 15.7861 15.9414 15.2318 16.1593 14.6245C16.377 14.0171 16.377 13.4966 16.3116 13.388C16.2464 13.2796 16.0721 13.2146 15.811 13.0844Z" fill="#B6CBBC"/>
</svg>
