<svg width="28" height="28" viewBox="0 0 28 28" fill="none" xmlns="http://www.w3.org/2000/svg">
<path d="M22.0417 20.1561L27.7523 25.8654L25.8657 27.7521L20.1563 22.0414C18.032 23.7444 15.3897 24.6706 12.667 24.6667C6.04299 24.6667 0.666992 19.2907 0.666992 12.6667C0.666992 6.04275 6.04299 0.666748 12.667 0.666748C19.291 0.666748 24.667 6.04275 24.667 12.6667C24.6709 15.3894 23.7446 18.0317 22.0417 20.1561ZM19.367 19.1667C21.0591 17.4266 22.0041 15.094 22.0003 12.6667C22.0003 7.50941 17.823 3.33341 12.667 3.33341C7.50966 3.33341 3.33366 7.50941 3.33366 12.6667C3.33366 17.8227 7.50966 22.0001 12.667 22.0001C15.0942 22.0039 17.4268 21.0589 19.167 19.3667L19.367 19.1667Z" fill="white"/>
</svg>
