<?xml version="1.0" encoding="UTF-8"?> <svg xmlns="http://www.w3.org/2000/svg" width="171" height="124" viewBox="0 0 171 124" fill="none"> <path d="M88.4799 9.4415C88.9399 5.7915 90.21 5.6215 92.61 6.2615C92.33 5.7709 92.2395 5.19473 92.3556 4.64194C92.4717 4.08915 92.7863 3.59805 93.24 3.2615C91.94 3.2615 90.3399 3.10151 89.2899 4.07151C88.0799 5.15151 87.8599 7.2715 88.4799 9.4415ZM94.67 7.0315C95.0389 7.05446 95.4055 6.95792 95.7153 6.75619C96.0251 6.55445 96.2617 6.25825 96.39 5.91151C96.516 5.53176 96.5252 5.12292 96.4165 4.73786C96.3078 4.3528 96.086 4.00921 95.78 3.7515C95.4539 3.53722 95.0685 3.43151 94.6787 3.44947C94.289 3.46743 93.9149 3.60815 93.61 3.85151C93.4019 4.04682 93.238 4.2844 93.1293 4.5483C93.0206 4.8122 92.9697 5.0963 92.9799 5.38151C92.9825 5.60122 93.0287 5.81824 93.1158 6.01997C93.2029 6.2217 93.3292 6.40412 93.4873 6.55668C93.6454 6.70923 93.8323 6.82888 94.037 6.90867C94.2417 6.98846 94.4603 7.02682 94.68 7.02151L94.67 7.0315ZM80.02 4.6115C80.4561 4.92148 80.9102 5.20532 81.3799 5.46151C82.835 6.37435 83.9841 7.70108 84.68 9.27151C84.8618 8.51373 84.8662 7.72419 84.6927 6.96444C84.5193 6.20469 84.1727 5.49527 83.68 4.8915C83.3231 4.45839 82.8821 4.10216 82.3837 3.84434C81.8852 3.58652 81.3397 3.43246 80.78 3.3915C79.39 3.3115 79.1 3.9415 80.02 4.6115ZM86.28 1.4815C84.8709 1.41764 83.4881 1.07788 82.21 0.481498C78.8466 -0.213167 75.3502 0.160953 72.21 1.55151C70.16 2.55151 69.51 3.81151 68.03 4.80151C67.4878 4.70407 66.94 4.64061 66.39 4.6115C60.39 4.6115 51.53 11.9715 51.53 17.0715C51.41 19.8015 54.2199 21.8715 57.4099 23.4215C61.3815 25.3783 65.5999 26.7878 69.95 27.6115C74.7228 28.4034 79.5519 28.808 84.39 28.8215H86.0699C92.5599 28.8215 99.5099 28.1715 104.5 26.6315C107.67 25.6315 118.44 22.9615 118.44 19.7215C118.427 19.6413 118.398 19.5646 118.354 19.4963C118.31 19.4279 118.252 19.3694 118.185 19.3243C118.117 19.2793 118.041 19.2487 117.961 19.2344C117.881 19.2202 117.799 19.2226 117.72 19.2415H117C115.322 19.6884 113.684 20.2703 112.1 20.9815C109.579 22.0393 106.986 22.9149 104.34 23.6015C101.217 24.3989 98.0477 25.0001 94.8499 25.4015C88.6678 26.206 82.4059 26.1825 76.2299 25.3315C73.8966 25.042 71.5872 24.5841 69.3199 23.9615C66.2599 22.9015 60.4399 21.1915 58.9699 18.9615C60.7718 19.8951 62.6524 20.6681 64.59 21.2715C68.6586 22.4482 72.8204 23.2746 77.03 23.7415C83.1175 24.3438 89.2537 24.2498 95.3199 23.4615C100.04 22.8315 104.81 21.6415 105.72 20.4015C104.83 20.4715 103.01 20.9815 101.72 21.2215C97.1973 22.0554 92.6088 22.4804 88.0099 22.4915C85.4799 22.4915 82.9499 22.3915 80.5999 22.1815C79.4999 22.0815 78.4 21.9415 77.45 21.8015C75.03 21.4315 74.74 21.3615 73.65 20.6315C73.2968 20.3209 72.8902 20.077 72.45 19.9115C72.1 19.8515 71.6599 20.0015 70.9999 19.9815C70.7866 20.0102 70.5695 19.99 70.365 19.9224C70.1606 19.8549 69.9742 19.7417 69.8199 19.5915C69.4099 18.9315 69.5199 18.4815 69.2299 18.1515C68.9851 17.905 68.6691 17.7415 68.3264 17.6841C67.9838 17.6267 67.6318 17.6783 67.3199 17.8315C66.5599 18.0815 65.92 18.2515 65.39 17.5315C65.1679 17.2117 65.0334 16.8394 64.9999 16.4515C64.9399 15.9715 64.9999 14.6515 64.2299 14.6515C63.4599 14.6515 62.0699 15.2715 62.0699 14.4115C62.0699 13.1215 64.95 12.6615 64.95 10.5815C64.8268 10.1457 64.5798 9.75503 64.239 9.45682C63.8982 9.15862 63.4782 8.96571 63.03 8.9015C61.9084 8.94117 60.819 9.28699 59.8799 9.9015C61.0443 8.57592 62.4847 7.52124 64.0999 6.8115C64.6865 6.51383 65.3546 6.41719 66.0015 6.53645C66.6484 6.6557 67.2381 6.98424 67.68 7.4715C68.9453 8.54574 69.9476 9.89573 70.6098 11.4178C71.272 12.9398 71.5765 14.5934 71.4999 16.2515L72.37 17.0815V15.6115C72.2821 13.3054 71.8194 11.0289 70.9999 8.8715C70.3099 6.4215 70.6399 4.97151 73.2199 3.77151C74.4007 3.23591 75.6436 2.84958 76.92 2.6215C78.2613 2.36675 79.6386 2.36675 80.9799 2.6215C85.55 3.6215 86.37 9.26151 86.52 15.1315L86.5999 16.6715L87.45 15.8415C87.6197 14.4042 87.7098 12.9587 87.7199 11.5115C87.6499 9.7815 87.31 8.3015 87.33 6.5115C87.3002 5.8944 87.4201 5.27926 87.6796 4.71856C87.939 4.15786 88.3303 3.66824 88.8199 3.2915C90.9799 1.7915 94.82 2.36151 97.15 3.16151C99.23 3.89151 101.23 5.0215 101.92 5.9515C103.6 8.2015 103.43 10.2915 103.38 13.9515C103.326 14.889 103.356 15.8294 103.47 16.7615C105.47 14.7615 104.13 6.99151 106.42 6.99151H107.42C108.68 6.99151 110.65 8.31151 112.12 9.52151C113.386 10.5741 114.432 11.8652 115.2 13.3215C116.2 15.0515 117.39 17.0515 117.97 17.0515C118.184 16.9892 118.372 16.8568 118.502 16.6756C118.633 16.4943 118.699 16.2747 118.69 16.0515C118.69 14.9715 117.79 13.3215 116.82 11.9115C114.918 8.89676 112.053 6.61323 108.69 5.43151C107.326 5.03106 105.931 4.74342 104.52 4.57151C102.75 4.31151 102.52 3.57151 101.25 2.57151C98.9371 0.860987 96.1262 -0.0420173 93.2499 0.00150242H93.0099C90.0099 0.00150242 87.93 1.4415 86.3 1.4415L86.28 1.4815ZM65.67 8.0315C65.942 8.37989 66.2823 8.66913 66.67 8.88151C67.2055 9.16877 67.7879 9.3584 68.39 9.4415C68.1318 8.93465 67.8127 8.46116 67.4399 8.0315C67.0603 7.66667 66.5564 7.4594 66.03 7.4515C65.41 7.4515 65.34 7.6115 65.64 8.0315H65.67ZM92.17 49.6115C88.22 45.1815 83.97 43.1215 79.42 43.3415L79.49 44.1315C84.37 44.1815 88.4899 46.9815 92.1299 51.1315L92.17 49.6115ZM37.97 27.9515C37.0023 27.3716 36.1772 26.5816 35.5559 25.6401C34.9345 24.6985 34.5326 23.6293 34.38 22.5115C34.28 21.8415 34.08 21.0615 34.94 20.8915C36.168 20.8176 37.3972 21.0156 38.5399 21.4715C39.191 21.7236 39.8062 22.0598 40.3699 22.4715C41.8099 23.4715 43.04 24.5415 42.92 26.4715C42.918 26.8342 42.8311 27.1914 42.6661 27.5145C42.5011 27.8375 42.2627 28.1173 41.97 28.3315C40.88 29.0515 38.97 28.5315 37.97 27.9815V27.9515ZM39.7599 34.2615C38.1499 33.4615 36.69 32.0115 36.69 31.0315C36.69 29.8815 40.53 29.1115 42.2 29.1115C43.4047 29.0969 44.586 29.4454 45.59 30.1115C46.81 30.8915 47.59 32.4015 46.59 33.7115C46.2885 34.0982 45.8875 34.3955 45.4299 34.5715C43.5688 35.2137 41.5302 35.1025 39.75 34.2615V34.2615H39.7599ZM44.7599 28.6215C44.3228 27.9722 43.9857 27.261 43.7599 26.5115C43.4056 25.1735 43.3476 23.7743 43.59 22.4115C43.5789 22.1104 43.6854 21.8168 43.8869 21.5928C44.0885 21.3688 44.3693 21.2321 44.67 21.2115C46.06 21.2115 48.05 22.9615 49.06 24.6515C49.8 25.8815 50.06 28.0215 49.21 29.2715C47.98 30.8515 45.68 29.9315 44.72 28.6115L44.7599 28.6215ZM54.7599 36.7815C54.7599 38.0315 53.36 39.1615 51.89 39.6415C50.649 39.9335 49.3596 39.954 48.11 39.7015C46.01 39.3515 43.97 38.4415 43.97 37.0215C43.97 36.0215 45.8699 34.9415 47.7199 34.2715C48.7207 33.9196 49.7806 33.7668 50.84 33.8215C52.84 33.8215 54.7499 34.6715 54.7499 36.8215L54.7599 36.7815ZM54.59 34.0915C53.15 34.0915 51.8199 32.7315 51.0999 31.3915C50.2799 29.8815 49.98 26.8415 50.84 25.2215C51.35 24.2715 52.1599 24.5215 52.9799 24.9415C55.0599 26.0115 57.13 29.0815 57.14 31.2115C57.14 32.7615 56.3199 34.0815 54.8199 34.0815H54.58L54.59 34.0915ZM62.67 39.8915C62.67 42.7515 59.3999 43.9615 56.4399 43.9615C54.9061 43.9701 53.3976 43.5697 52.0699 42.8015C51.9391 42.6996 51.8332 42.5691 51.7603 42.4201C51.6875 42.2711 51.6497 42.1074 51.6497 41.9415C51.6497 41.7756 51.6875 41.6119 51.7603 41.4629C51.8332 41.3139 51.9391 41.1834 52.0699 41.0815C52.9579 40.0438 53.9648 39.114 55.0699 38.3115C56.2816 37.6059 57.6688 37.2592 59.0699 37.3115C60.6499 37.4215 62.6599 37.8815 62.6599 39.9015L62.67 39.8915ZM58.96 35.7915C58.2602 34.8611 57.8248 33.759 57.7 32.6015C57.52 31.1615 57.08 27.4315 58.95 27.4515C59.8546 27.567 60.7006 27.9621 61.37 28.5815C62.5601 29.5154 63.5069 30.723 64.1299 32.1015C64.7499 33.6415 64.8799 35.1015 64.1299 36.2215C63.8514 36.6413 63.4587 36.9726 62.998 37.1764C62.5373 37.3801 62.0279 37.4478 61.53 37.3715C61.003 37.3414 60.4916 37.1813 60.0414 36.9057C59.5913 36.63 59.2163 36.2472 58.95 35.7915V35.7915H58.96ZM70.8199 43.0115C70.8199 44.6415 68.97 46.3715 67.06 47.2415C65.2455 47.9105 63.276 48.039 61.39 47.6115C60.48 47.4215 59.5099 46.9915 59.4999 46.2915C59.4999 44.5515 62.7199 41.3715 65.2899 40.3715C66.4192 39.9827 67.6339 39.9134 68.8 40.1715C69.3489 40.2581 69.85 40.5349 70.2155 40.9535C70.5811 41.3721 70.788 41.9059 70.8 42.4615V42.9415L70.8199 43.0115ZM70.34 40.1415C67.83 40.1415 66.02 38.1415 65.34 35.7615C64.9588 34.2459 64.9178 32.6648 65.2199 31.1315C65.4199 30.2115 65.81 29.3515 66.49 29.3515H66.7299C67.6123 29.5448 68.4168 29.9975 69.0399 30.6515C70.5703 31.7889 71.6954 33.3872 72.2499 35.2115C72.4115 35.8658 72.4922 36.5375 72.49 37.2115C72.39 38.3515 71.4399 40.0815 70.2599 40.0815L70.34 40.1415ZM76.09 42.3015C75.0089 41.5578 74.1337 40.5523 73.5462 39.379C72.9587 38.2057 72.6778 36.9027 72.7299 35.5915V33.9115C72.7299 28.5115 80.4 34.7015 80.4 38.7015V39.7015C80.4095 40.2278 80.2521 40.7435 79.9503 41.1747C79.6484 41.6059 79.2177 41.9304 78.7199 42.1015C78.5617 42.844 78.6422 43.6175 78.95 44.3115C79.0713 44.8235 79.0833 45.3554 78.9851 45.8723C78.8869 46.3893 78.6807 46.8797 78.3799 47.3115C77.4981 48.4338 76.3548 49.323 75.05 49.9015C73.47 50.6215 69.29 51.2015 68.18 49.5515C68.5612 47.8525 69.4098 46.2938 70.6299 45.0515C71.4772 44.1376 72.4968 43.4002 73.6299 42.8815C74.3994 42.5438 75.2297 42.3669 76.0699 42.3615V42.3615L76.09 42.3015ZM80.83 49.6315C84.78 45.2015 89.03 43.1415 93.58 43.3615L93.5099 44.1515C88.6299 44.2015 84.51 47.0015 80.87 51.1515L80.83 49.6315ZM135.03 27.9715C135.998 27.3916 136.823 26.6017 137.444 25.6601C138.065 24.7185 138.467 23.6493 138.62 22.5315C138.72 21.8615 138.92 21.0815 138.06 20.9115C136.832 20.8376 135.603 21.0356 134.46 21.4915C133.809 21.7436 133.194 22.0798 132.63 22.4915C131.19 23.4915 129.96 24.5615 130.08 26.4915C130.082 26.8542 130.169 27.2114 130.334 27.5344C130.499 27.8575 130.737 28.1373 131.03 28.3515C132.04 28.9715 133.96 28.4515 134.94 27.9115L135.03 27.9715ZM133.24 34.2815C134.85 33.4815 136.31 32.0315 136.31 31.0515C136.31 29.9015 132.47 29.1315 130.8 29.1315C129.595 29.1169 128.414 29.4654 127.41 30.1315C126.19 30.9115 125.41 32.4215 126.41 33.7315C126.711 34.1182 127.112 34.4155 127.57 34.5915C129.431 35.2337 131.47 35.1225 133.25 34.2815V34.2815H133.24ZM128.24 28.6415C128.677 27.9923 129.014 27.281 129.24 26.5315C129.594 25.1935 129.652 23.7943 129.41 22.4315C129.421 22.1304 129.315 21.8368 129.113 21.6128C128.911 21.3888 128.631 21.2521 128.33 21.2315C126.94 21.2315 124.95 22.9815 123.94 24.6715C123.2 25.9015 122.94 28.0415 123.79 29.2915C124.94 30.8515 127.24 29.9315 128.19 28.6115L128.24 28.6415ZM118.24 36.8015C118.24 38.0515 119.64 39.1815 121.11 39.6615C122.351 39.9535 123.64 39.974 124.89 39.7215C126.99 39.3715 129.03 38.4615 129.03 37.0415C129.03 36.0415 127.13 34.9615 125.28 34.2915C124.279 33.9396 123.219 33.7868 122.16 33.8415C120.16 33.8415 118.25 34.6915 118.25 36.8415L118.24 36.8015ZM118.4 34.1115C119.84 34.1115 121.17 32.7515 121.89 31.4115C122.71 29.9015 123.01 26.8615 122.15 25.2415C121.64 24.2915 120.83 24.5415 120.01 24.9615C117.93 26.0315 115.86 29.1015 115.85 31.2315C115.85 32.7815 116.67 34.1015 118.17 34.1015H118.39L118.4 34.1115ZM110.32 39.9115C110.32 42.7715 113.59 43.9815 116.55 43.9815C118.084 43.9901 119.592 43.5897 120.92 42.8215C121.051 42.7196 121.157 42.5891 121.23 42.4401C121.302 42.2911 121.34 42.1274 121.34 41.9615C121.34 41.7956 121.302 41.6319 121.23 41.4829C121.157 41.3339 121.051 41.2034 120.92 41.1015C120.032 40.0638 119.025 39.134 117.92 38.3315C116.708 37.626 115.321 37.2792 113.92 37.3315C112.34 37.4415 110.33 37.9015 110.33 39.9215L110.32 39.9115ZM114.03 35.8115C114.73 34.8811 115.165 33.7789 115.29 32.6215C115.47 31.1815 115.91 27.4515 114.04 27.4715C113.135 27.587 112.289 27.9821 111.62 28.6015C110.43 29.5354 109.483 30.743 108.86 32.1215C108.24 33.6615 108.11 35.1215 108.86 36.2415C109.138 36.6613 109.531 36.9926 109.992 37.1964C110.453 37.4001 110.962 37.4679 111.46 37.3915C111.987 37.3614 112.498 37.2013 112.948 36.9257C113.399 36.65 113.774 36.2672 114.04 35.8115V35.8115H114.03ZM102.17 43.0315C102.17 44.6615 104.02 46.3915 105.93 47.2615C107.719 47.9421 109.666 48.0948 111.54 47.7015C112.45 47.5115 113.42 47.0815 113.43 46.3815C113.43 44.6415 110.21 41.4615 107.64 40.4615C106.511 40.0727 105.296 40.0034 104.13 40.2615C103.581 40.3481 103.08 40.6249 102.714 41.0435C102.349 41.4621 102.142 41.9959 102.13 42.5515V43.0315H102.17ZM102.65 40.1615C105.16 40.1615 106.97 38.1615 107.65 35.7815C108.031 34.2659 108.072 32.6848 107.77 31.1515C107.57 30.2315 107.18 29.3715 106.5 29.3715H106.26C105.378 29.5648 104.573 30.0175 103.95 30.6715C102.42 31.8089 101.294 33.4072 100.74 35.2315C100.578 35.8858 100.498 36.5575 100.5 37.2315C100.5 38.3515 101.47 40.0815 102.66 40.0815L102.65 40.1615ZM96.9 42.3215C97.9811 41.5778 98.8562 40.5724 99.4437 39.399C100.031 38.2257 100.312 36.9227 100.26 35.6115V33.9315C100.26 28.5315 92.59 34.7215 92.59 38.7215V39.7215C92.5804 40.2478 92.7378 40.7635 93.0396 41.1947C93.3415 41.6259 93.7722 41.9504 94.27 42.1215C94.4282 42.864 94.3477 43.6375 94.0399 44.3315C93.9186 44.8435 93.9066 45.3754 94.0048 45.8923C94.103 46.4093 94.3092 46.8997 94.61 47.3315C95.4918 48.4538 96.6351 49.343 97.9399 49.9215C99.5199 50.6415 103.7 51.2215 104.81 49.5715C104.429 47.8725 103.58 46.3138 102.36 45.0715C101.513 44.1576 100.493 43.4202 99.36 42.9015C98.5905 42.5638 97.7602 42.3869 96.92 42.3815V42.3815L96.9 42.3215Z" fill="#A7152A"></path> <path d="M0.75 106.031H170.32V107.981H0.75V106.031Z" fill="#A7152A"></path> <path d="M4.39 68.4814C4.23 68.9514 4.02 69.5714 3.73 70.3514C3.44 71.1314 3.20999 71.8314 3.00999 72.4214C2.80999 73.0114 2.65 73.5514 2.52 74.0214H1.92H1.28H0.649994H0L7.62 55.4414C7.95078 55.4937 8.2851 55.5205 8.62 55.5214C8.95486 55.5197 9.28912 55.493 9.62 55.4414L17.05 74.0514L15.88 73.9914C15.37 73.9914 14.98 73.9914 14.73 73.9914C14.48 73.9914 14.1 73.9914 13.59 73.9914L12.47 74.0514C11.67 71.4714 11.03 69.6114 10.58 68.4814H4.39ZM9.98 66.8414L7.66 60.6114L5.16 66.8614H10.03L9.98 66.8414Z" fill="#A7152A"></path> <path d="M25.64 65.2323C25.3314 65.1953 25.0207 65.1786 24.71 65.1823C24.3759 65.1774 24.0419 65.1941 23.71 65.2323V74.0523C23.4833 74.0523 23.15 74.0356 22.71 74.0023C22.27 74.0023 21.93 74.0023 21.71 74.0023C21.49 74.0023 21.16 74.0023 20.71 74.0023C20.26 74.0023 19.94 74.0523 19.71 74.0523V55.6823C20.0444 55.6922 20.3782 55.7189 20.71 55.7623C21.3722 55.8705 22.0477 55.8705 22.71 55.7623C23.0417 55.7189 23.3755 55.6922 23.71 55.6823V63.0823H24.81H25.81C26.0325 61.6103 26.5939 60.2102 27.45 58.9923C28.3109 57.7859 29.4681 56.8216 30.81 56.1923C32.3113 55.5036 33.9485 55.1618 35.6 55.1923C37.1287 55.1457 38.6487 55.4394 40.05 56.0523C41.18 56.5594 42.1687 57.3353 42.9299 58.3123C43.6298 59.2221 44.1491 60.2574 44.46 61.3623C44.7719 62.4619 44.9301 63.5993 44.9299 64.7423C44.9383 66.0163 44.7112 67.2809 44.2599 68.4723C43.8103 69.6467 43.1211 70.7147 42.2362 71.6083C41.3512 72.5018 40.29 73.2013 39.1199 73.6623C37.8025 74.1825 36.3962 74.4406 34.9799 74.4223C33.2933 74.4599 31.6226 74.0894 30.11 73.3423C28.7341 72.6342 27.6021 71.5301 26.86 70.1723C26.0519 68.6488 25.6393 66.9467 25.66 65.2223V65.2223L25.64 65.2323ZM30.06 65.6323C30.0075 67.4072 30.4286 69.164 31.28 70.7223C31.6557 71.3953 32.2131 71.9491 32.8886 72.3205C33.5641 72.6918 34.3304 72.8657 35.1 72.8223C36.2153 72.8442 37.2939 72.4235 38.1 71.6523C38.962 70.7849 39.5795 69.7051 39.89 68.5223C40.2827 67.13 40.4746 65.6888 40.46 64.2423C40.4644 63.0437 40.2925 61.8509 39.95 60.7023C39.6512 59.6427 39.0786 58.6804 38.2899 57.9123C37.9041 57.5451 37.4489 57.2587 36.9509 57.0698C36.4529 56.8809 35.9222 56.7933 35.39 56.8123C34.5967 56.7982 33.8126 56.9839 33.11 57.3523C32.4113 57.7397 31.8281 58.3056 31.42 58.9923C30.9287 59.8472 30.5903 60.7812 30.42 61.7523C30.1679 63.0232 30.0473 64.3167 30.06 65.6123V65.6323Z" fill="#A7152A"></path> <path d="M53.25 74.0512L52.25 73.9912C51.8 73.9912 51.47 73.9912 51.25 73.9912C51.03 73.9912 50.7 73.9912 50.25 73.9912L49.25 74.0512V57.6112C47.5766 57.6235 45.906 57.7505 44.25 57.9912C44.34 57.3612 44.38 56.9912 44.38 56.8312C44.38 56.6712 44.38 56.3212 44.25 55.7012H57.95C57.95 55.8712 57.95 56.0112 57.87 56.1312C57.79 56.2512 57.87 56.3712 57.81 56.5112C57.75 56.6512 57.81 56.7512 57.81 56.8412C57.81 56.9312 57.81 57.0412 57.81 57.1812C57.81 57.3212 57.81 57.4512 57.87 57.5712C57.93 57.6912 57.87 57.8312 57.95 58.0012C56.3717 57.7853 54.7825 57.6585 53.19 57.6212V74.0812L53.25 74.0512Z" fill="#A7152A"></path> <path d="M60.0901 55.6813L60.8701 55.7613L61.5401 55.8213H62.0901H62.6501L63.3201 55.7613L64.0801 55.6813V68.2613C64.8934 67.388 65.7634 66.4047 66.6901 65.3113C67.6167 64.218 68.5034 63.138 69.3501 62.0713C70.1967 61.0047 71.0534 59.8947 71.9201 58.7413C72.7867 57.588 73.5467 56.5447 74.2001 55.6113C74.4832 55.6275 74.767 55.6275 75.0501 55.6113C75.5901 55.6113 75.9701 55.6113 76.2201 55.6113V74.0413L75.2201 73.9813C74.7701 73.9813 74.4301 73.9813 74.2201 73.9813C74.0101 73.9813 73.6901 73.9813 73.2201 73.9813L72.2201 74.0413V61.3713C71.4401 62.2647 70.6534 63.188 69.8601 64.1413C69.0667 65.0947 68.1601 66.208 67.1401 67.4813C66.1201 68.7547 65.1901 69.938 64.3501 71.0313C63.5101 72.1247 62.7534 73.1247 62.0801 74.0313C61.8867 74.0313 61.6134 74.0313 61.2601 74.0313C60.7501 74.0313 60.3601 74.0313 60.0901 74.0313V55.6813Z" fill="#A7152A"></path> <path d="M80.6701 55.6816L81.4501 55.7616L82.1201 55.8216H82.6701H83.2301L83.9001 55.7616L84.6601 55.6816V62.9516C86.8701 63.0416 88.2301 63.0816 88.7301 63.0816C89.2301 63.0816 90.5002 63.0816 92.8102 62.9516V55.6816L93.5701 55.7616L94.2301 55.8216H94.7802H95.3701L96.0401 55.7616L96.8001 55.6916V74.0616L95.8001 74.0016C95.3501 74.0016 95.0101 74.0016 94.8001 74.0016C94.5901 74.0016 94.2701 74.0016 93.8001 74.0016L92.8001 74.0616V65.1116C90.9501 65.0416 89.5901 65.0016 88.7201 65.0016C87.8501 65.0016 86.4201 65.0016 84.6501 65.1116V74.0616L83.6501 74.0016C83.2101 74.0016 82.8801 74.0016 82.6501 74.0016C82.4201 74.0016 82.1001 74.0016 81.6501 74.0016L80.6501 74.0616V55.6816H80.6701Z" fill="#A7152A"></path> <path d="M115.6 70.9618L115.02 73.2718C113.381 74.0712 111.573 74.4656 109.75 74.4218C108.407 74.4354 107.072 74.2224 105.8 73.7918C104.625 73.3947 103.538 72.7732 102.6 71.9618C101.693 71.1666 100.97 70.184 100.48 69.0818C99.9692 67.916 99.7135 66.6545 99.73 65.3818C99.6998 63.8453 99.9786 62.3184 100.55 60.8918C101.047 59.6629 101.824 58.5671 102.82 57.6918C103.803 56.8465 104.945 56.2071 106.18 55.8118C107.519 55.3903 108.916 55.1811 110.32 55.1918C111.28 55.1982 112.237 55.3156 113.17 55.5418C114.073 55.7501 114.942 56.0869 115.75 56.5418C115.65 56.9518 115.54 57.4218 115.43 57.9718C115.32 58.5218 115.22 58.9718 115.14 59.3018H114.77C114.257 58.5526 113.571 57.9385 112.77 57.5118C112.023 57.0761 111.175 56.8418 110.31 56.8318C109.338 56.8083 108.378 57.0467 107.53 57.5218C106.72 57.9803 106.034 58.629 105.53 59.4118C105.015 60.2211 104.637 61.1097 104.41 62.0418C104.167 63.0232 104.046 64.0308 104.05 65.0418C104.024 66.4342 104.275 67.8178 104.79 69.1118C105.224 70.2239 105.979 71.1814 106.96 71.8618C107.969 72.5402 109.164 72.8896 110.38 72.8618C111.253 72.8467 112.114 72.6527 112.91 72.2918C113.74 71.9552 114.499 71.4669 115.15 70.8518L115.6 70.9618Z" fill="#A7152A"></path> <path d="M117.5 55.6816L118.36 55.7616C118.86 55.7616 119.23 55.8416 119.49 55.8416H120.05L120.72 55.7816L121.48 55.7016V64.0916C123.84 61.365 126.147 58.5683 128.4 55.7016L128.93 55.7816L129.41 55.8416H129.84C130.108 55.8308 130.375 55.8041 130.64 55.7616L131.25 55.6816V55.8916C130.03 57.0616 128.77 58.3616 127.44 59.8216C126.11 61.2816 125.08 62.4416 124.35 63.3216L131.78 73.7016V74.0516L130.63 73.9916H129.52C129.28 73.9916 128.9 73.9916 128.37 73.9916L127.25 74.0516L121.47 65.5516V74.0516L120.47 73.9916C120.03 73.9916 119.7 73.9916 119.47 73.9916C119.24 73.9916 118.93 73.9916 118.47 73.9916L117.47 74.0516V55.6816H117.5Z" fill="#A7152A"></path> <path d="M133.67 55.6813L134.45 55.7613L135.12 55.8213H135.67H136.23L136.9 55.7613L137.66 55.6813V68.2613C138.473 67.388 139.343 66.4047 140.27 65.3113C141.197 64.218 142.083 63.138 142.93 62.0713C143.777 61.0047 144.633 59.8947 145.5 58.7413C146.367 57.588 147.127 56.5447 147.78 55.6113C148.063 55.6275 148.347 55.6275 148.63 55.6113C149.17 55.6113 149.55 55.6113 149.8 55.6113V74.0413L148.8 73.9813C148.35 73.9813 148.01 73.9813 147.8 73.9813C147.59 73.9813 147.27 73.9813 146.8 73.9813L145.8 74.0413V61.3713C145.02 62.2647 144.233 63.188 143.44 64.1413C142.647 65.0947 141.74 66.208 140.72 67.4813C139.7 68.7547 138.77 69.938 137.93 71.0313C137.09 72.1247 136.333 73.1247 135.66 74.0313C135.467 74.0313 135.193 74.0313 134.84 74.0313C134.33 74.0313 133.94 74.0313 133.67 74.0313V55.6813Z" fill="#A7152A"></path> <path d="M154.25 55.682L155.03 55.7619L155.7 55.822H156.25H156.81L157.48 55.7619L158.24 55.682V68.272C159.053 67.3986 159.923 66.4153 160.85 65.322C161.777 64.2286 162.663 63.1486 163.51 62.082C164.357 61.0153 165.213 59.9053 166.08 58.752C166.947 57.5986 167.717 56.552 168.39 55.612C168.673 55.6276 168.957 55.6276 169.24 55.612C169.78 55.612 170.16 55.612 170.41 55.612V74.0419L169.41 73.9819C168.96 73.9819 168.62 73.9819 168.41 73.9819C168.2 73.9819 167.88 73.9819 167.41 73.9819L166.41 74.0419V61.3719C165.63 62.2653 164.843 63.1886 164.05 64.142C163.257 65.0953 162.35 66.2086 161.33 67.4819C160.31 68.7553 159.38 69.9386 158.54 71.032C157.7 72.1253 156.943 73.1253 156.27 74.032C156.077 74.032 155.803 74.032 155.45 74.032C154.94 74.032 154.55 74.032 154.28 74.032V55.682H154.25ZM156.77 51.062C157.476 51.8388 158.333 52.4631 159.29 52.8965C160.246 53.3298 161.28 53.5631 162.33 53.582C163.406 53.5651 164.467 53.3274 165.448 52.8836C166.428 52.4398 167.307 51.7993 168.03 51.002L169.03 52.3719C168.414 52.9932 167.722 53.5342 166.97 53.9819C166.241 54.4178 165.458 54.7541 164.64 54.9819C163.843 55.2057 163.018 55.32 162.19 55.322C160.999 55.3238 159.82 55.0893 158.72 54.632C157.564 54.1441 156.517 53.4301 155.64 52.532L156.77 51.062Z" fill="#A7152A"></path> <path d="M7.93013 118.801L7.39014 119.951C6.52637 120.34 5.58752 120.535 4.64014 120.521C4.05737 120.527 3.47722 120.442 2.92014 120.271C2.428 120.12 1.96961 119.876 1.57013 119.551C1.19807 119.245 0.900548 118.859 0.700139 118.421C0.494139 117.959 0.391743 117.457 0.400135 116.951C0.398475 116.642 0.428645 116.334 0.490147 116.031C0.637535 115.243 0.925439 114.487 1.34014 113.801C1.71573 113.182 2.20822 112.642 2.79013 112.211C3.35518 111.793 3.98768 111.475 4.66015 111.271C5.35112 111.064 6.06878 110.959 6.79013 110.961C7.25906 110.964 7.72584 111.025 8.18013 111.141C8.60351 111.235 9.00881 111.397 9.38015 111.621C9.38015 111.721 9.26014 111.911 9.14014 112.191L8.80014 112.991H8.62014C8.44495 112.623 8.1671 112.314 7.82013 112.101C7.47037 111.879 7.06452 111.761 6.65014 111.761C5.98268 111.752 5.33013 111.959 4.79013 112.351C4.23783 112.751 3.78316 113.27 3.46015 113.871C3.11904 114.496 2.87938 115.171 2.75014 115.871C2.67257 116.253 2.63239 116.641 2.63015 117.031C2.58697 117.756 2.81912 118.47 3.28014 119.031C3.52137 119.282 3.81463 119.478 4.13938 119.604C4.46413 119.73 4.81251 119.784 5.16015 119.761C5.45471 119.757 5.7474 119.714 6.03014 119.631C6.34497 119.542 6.6499 119.422 6.94014 119.271C7.22303 119.124 7.49096 118.95 7.74015 118.751L7.93013 118.801ZM8.71015 119.511L9.35015 118.511L10.3501 116.851C10.6501 116.361 10.9301 115.851 11.2001 115.411C11.4701 114.971 11.7401 114.411 11.9901 113.941H12.3301H12.6601H13.0101H13.3501L13.5501 115.241L13.8101 116.861C13.8701 117.251 13.9401 117.671 14.0201 118.121C14.1001 118.571 14.1901 119.051 14.2801 119.551H14.9601C14.8811 119.737 14.8241 119.932 14.7901 120.131C14.7568 120.326 14.7401 120.523 14.7401 120.721H14.6101C14.4989 120.583 14.3435 120.488 14.1701 120.451C13.9114 120.388 13.6464 120.354 13.3801 120.351H11.8801H10.7201H9.23014C8.95423 120.358 8.67965 120.391 8.41014 120.451C8.20023 120.5 8.00275 120.592 7.83014 120.721H7.71015C7.8091 120.538 7.87349 120.338 7.90014 120.131C7.91758 119.938 7.91758 119.744 7.90014 119.551H8.67014L8.71015 119.511ZM12.3001 119.511L11.7901 115.731C10.8501 117.404 10.1568 118.664 9.71015 119.511H12.3001ZM17.4701 117.131C17.4037 117.403 17.3668 117.681 17.3601 117.961C17.3372 118.397 17.4801 118.826 17.7601 119.161C17.9172 119.319 18.1068 119.441 18.3157 119.519C18.5246 119.597 18.7479 119.628 18.9701 119.611C19.2612 119.604 19.5489 119.547 19.8201 119.441C20.1147 119.335 20.3939 119.191 20.6501 119.011L20.7701 119.131L20.3401 119.871C20.0278 120.061 19.6915 120.209 19.3401 120.311C18.4763 120.57 17.5488 120.517 16.7201 120.161C16.3006 119.978 15.9503 119.666 15.7201 119.271C15.4901 118.841 15.3764 118.358 15.3901 117.871C15.3882 117.565 15.4183 117.26 15.4801 116.961C15.5939 116.364 15.8325 115.799 16.1801 115.301C16.5181 114.821 16.9677 114.429 17.4901 114.161C18.0296 113.89 18.6264 113.753 19.2301 113.761C19.535 113.717 19.8458 113.744 20.1385 113.84C20.4312 113.936 20.6978 114.098 20.9175 114.314C21.1372 114.53 21.3041 114.793 21.4051 115.084C21.5062 115.375 21.5387 115.685 21.5001 115.991C21.4977 116.371 21.4576 116.749 21.3801 117.121H17.4301L17.4701 117.131ZM19.7001 116.491C19.7693 116.162 19.8061 115.827 19.8101 115.491C19.8101 114.718 19.5968 114.331 19.1701 114.331C18.4701 114.331 17.9468 115.041 17.6001 116.461H19.7101L19.7001 116.491ZM24.5501 115.731C23.3901 117.791 22.5535 119.328 22.0401 120.341H21.5101H20.9801C21.0122 120.228 21.0667 120.123 21.1401 120.031C21.5101 119.471 21.8401 118.961 22.1401 118.471L23.1401 116.811C23.4301 116.321 23.7201 115.811 23.9901 115.371C24.2601 114.931 24.5301 114.371 24.7901 113.901H25.0001H25.2701H25.6801H25.9001H26.1501L26.3401 115.141C26.4268 115.688 26.5235 116.298 26.6301 116.971C26.7401 117.651 26.8401 118.221 26.9301 118.681C27.0201 119.141 27.1201 119.681 27.2401 120.331H26.7301H26.2201H25.7001H25.2001L24.5501 115.731ZM33.0401 119.201C33.0351 119.284 33.0351 119.368 33.0401 119.451C33.0333 119.504 33.0409 119.558 33.062 119.607C33.0831 119.657 33.117 119.699 33.1601 119.731C33.3072 119.798 33.4692 119.826 33.6301 119.811L33.5801 120.121C33.1734 120.313 32.7373 120.434 32.2901 120.481C32.0196 120.49 31.7555 120.397 31.5501 120.221C31.3441 120.036 31.2096 119.785 31.1701 119.511C30.9437 119.812 30.649 120.056 30.3101 120.221C30.001 120.383 29.6589 120.472 29.3101 120.481C28.8958 120.505 28.486 120.385 28.1501 120.141C28.0041 120.02 27.8889 119.867 27.8141 119.693C27.7393 119.519 27.7071 119.33 27.7201 119.141C27.7083 118.998 27.7083 118.854 27.7201 118.711C27.7765 118.345 27.9282 118 28.1601 117.711C28.403 117.445 28.7042 117.24 29.0401 117.111C29.5273 116.919 30.0289 116.765 30.5401 116.651C30.8865 116.575 31.2223 116.458 31.5401 116.301C31.7031 116.171 31.8133 115.986 31.8501 115.781C31.8644 115.469 31.7568 115.165 31.5501 114.931C31.4558 114.829 31.3412 114.748 31.2138 114.693C31.0864 114.638 30.9489 114.61 30.8101 114.611C30.5431 114.613 30.2788 114.664 30.0301 114.761C29.7926 114.844 29.5673 114.958 29.3601 115.101C29.2231 115.184 29.1069 115.296 29.0201 115.431H28.9201V114.641C29.2931 114.347 29.7167 114.123 30.1701 113.981C30.6184 113.831 31.0875 113.754 31.5601 113.751C31.8288 113.752 32.0967 113.778 32.3601 113.831C32.6071 113.877 32.8462 113.957 33.0701 114.071C33.2745 114.177 33.4497 114.331 33.5801 114.521C33.7112 114.719 33.7776 114.953 33.7701 115.191C33.7824 115.304 33.7824 115.418 33.7701 115.531L33.0401 119.201ZM31.6701 116.881L31.2401 117.021C31.0201 117.081 30.8301 117.151 30.6801 117.211C30.528 117.27 30.3836 117.347 30.2501 117.441C29.8942 117.714 29.6606 118.116 29.6001 118.561C29.5867 118.681 29.5867 118.801 29.6001 118.921C29.5802 119.005 29.5797 119.092 29.5987 119.175C29.6178 119.259 29.6558 119.337 29.71 119.404C29.7641 119.471 29.8329 119.524 29.9109 119.56C29.989 119.596 30.0743 119.613 30.1601 119.611C30.8268 119.611 31.2635 119.131 31.4701 118.171L31.6701 116.881ZM36.8201 116.561H39.0601L39.5801 113.911C39.9701 113.911 40.2701 113.961 40.4801 113.961C40.6901 113.961 41.0201 113.961 41.4101 113.911L40.1601 120.351H39.7101H39.2501C39.0501 120.351 38.7401 120.351 38.3201 120.401L38.9001 117.401H36.6601L36.0701 120.401H35.6201H35.1601C34.9701 120.401 34.6601 120.401 34.2301 120.451L35.4901 114.011C35.8968 114.044 36.2001 114.061 36.4001 114.061C36.6001 114.061 36.9101 114.044 37.3301 114.011L36.8201 116.561ZM53.5902 115.751H53.2802C53.2962 115.396 53.198 115.046 53.0001 114.751C52.9008 114.628 52.7738 114.531 52.6296 114.466C52.4853 114.402 52.3279 114.373 52.1701 114.381C51.7948 114.385 51.436 114.536 51.1701 114.801C50.8678 115.085 50.6233 115.424 50.4501 115.801C50.2726 116.181 50.1385 116.581 50.0501 116.991C49.9864 117.297 49.9529 117.608 49.9501 117.921C49.9129 118.143 49.9278 118.371 49.9938 118.586C50.0597 118.801 50.1749 118.998 50.3301 119.161C50.4854 119.324 50.6765 119.449 50.8882 119.525C51.1 119.601 51.3266 119.627 51.5501 119.601C51.8286 119.597 52.1035 119.539 52.3601 119.431C52.6272 119.329 52.8718 119.176 53.0801 118.981L53.2701 119.161L52.7901 119.951C52.5277 120.14 52.2274 120.269 51.9101 120.331C51.5832 120.416 51.2477 120.463 50.9101 120.471C50.1375 120.516 49.3735 120.29 48.7501 119.831C48.4857 119.61 48.2766 119.331 48.1394 119.015C48.0022 118.699 47.9409 118.355 47.9601 118.011C47.963 117.756 47.9897 117.501 48.0401 117.251C48.1358 116.745 48.3149 116.258 48.5701 115.811C48.81 115.387 49.1252 115.011 49.5001 114.701C49.8713 114.394 50.2947 114.157 50.7501 114.001C51.2298 113.838 51.7335 113.757 52.2401 113.761C52.641 113.76 53.0405 113.807 53.4301 113.901C53.7915 113.973 54.1327 114.123 54.4301 114.341L53.5902 115.751ZM60.1901 119.521L60.8301 118.521L61.8301 116.861C62.1301 116.371 62.4101 115.861 62.6801 115.421C62.9501 114.981 63.2201 114.421 63.4701 113.951H63.8102H64.1401H64.4902H64.8301L65.0302 115.251L65.2901 116.871C65.3501 117.261 65.4201 117.681 65.5001 118.131C65.5801 118.581 65.6701 119.061 65.7601 119.561H66.3901C66.311 119.747 66.254 119.942 66.2201 120.141C66.1868 120.336 66.1701 120.533 66.1701 120.731H66.0401C65.9289 120.593 65.7735 120.498 65.6001 120.461C65.3447 120.399 65.083 120.365 64.8201 120.361H63.3201H62.1901H60.7001C60.4242 120.368 60.1496 120.402 59.8801 120.461C59.6703 120.51 59.4729 120.602 59.3001 120.731H59.1801C59.2793 120.548 59.3437 120.348 59.3702 120.141C59.3877 119.948 59.3877 119.754 59.3702 119.561H60.1401L60.1901 119.521ZM63.7802 119.521L63.2701 115.741C62.3301 117.414 61.6368 118.674 61.1901 119.521H63.7802ZM68.8702 120.311L67.4201 113.911H67.8001H68.1101H68.6401H68.9201H69.1701H69.3901C69.4568 114.338 69.5368 114.791 69.6301 115.271C69.7235 115.751 69.8168 116.234 69.9101 116.721C70.0101 117.211 70.1001 117.651 70.1901 118.041L70.9701 116.681L71.4801 115.771L72.1001 114.661L72.5201 113.901H73.0701H73.6202L71.6901 116.901C70.0035 119.568 68.6401 121.834 67.6001 123.701C67.2285 123.651 66.8518 123.651 66.4801 123.701L68.8702 120.311ZM77.1802 120.311C75.2802 120.311 73.9201 120.328 73.1001 120.361L74.3601 113.921C74.6617 113.961 74.966 113.978 75.2701 113.971C75.581 113.98 75.892 113.963 76.2001 113.921L75.1101 119.531H76.3901L77.4801 113.921C77.7817 113.962 78.086 113.978 78.3901 113.971C78.701 113.98 79.0121 113.963 79.3201 113.921L78.2301 119.531H79.5401L80.6301 113.921C80.9321 113.957 81.236 113.974 81.5401 113.971C81.8509 113.974 82.1615 113.958 82.4701 113.921L81.2201 120.361H80.2201H78.6101H77.1202L77.1802 120.311ZM82.7901 117.311C82.8863 116.81 83.0619 116.327 83.3102 115.881C83.5434 115.461 83.8479 115.086 84.2102 114.771C84.5637 114.463 84.9704 114.223 85.4101 114.061C85.8649 113.894 86.3457 113.809 86.8301 113.811C87.3525 113.8 87.8711 113.902 88.3501 114.111C88.7615 114.287 89.1101 114.583 89.3501 114.961C89.5906 115.358 89.7121 115.817 89.7001 116.281C89.6978 116.526 89.671 116.771 89.6202 117.011C89.4995 117.663 89.2366 118.281 88.8501 118.821C88.4755 119.354 87.9764 119.788 87.396 120.084C86.8156 120.38 86.1717 120.53 85.5201 120.521C85.0075 120.531 84.4989 120.429 84.0302 120.221C83.6167 120.043 83.2677 119.743 83.0302 119.361C82.7958 118.961 82.6779 118.504 82.6901 118.041C82.69 117.795 82.7169 117.551 82.7701 117.311V117.311H82.7901ZM84.7901 117.311C84.721 117.664 84.6842 118.022 84.6802 118.381C84.6802 119.434 85.0135 119.961 85.6802 119.961C85.9601 119.921 86.2245 119.808 86.4459 119.632C86.6674 119.456 86.838 119.225 86.9401 118.961C87.322 118.283 87.5889 117.546 87.7301 116.781C87.7895 116.488 87.8196 116.19 87.8201 115.891C87.8379 115.512 87.7514 115.135 87.5701 114.801C87.4957 114.672 87.3875 114.565 87.2571 114.493C87.1267 114.421 86.9791 114.386 86.8301 114.391C86.5676 114.399 86.3119 114.476 86.0888 114.615C85.8658 114.754 85.6834 114.949 85.5602 115.181C85.18 115.821 84.9222 116.526 84.8001 117.261V117.261L84.7901 117.311ZM92.2402 118.041C92.5268 117.748 92.8235 117.434 93.1301 117.101C93.4301 116.761 93.7301 116.431 94.0101 116.101L94.8201 115.101L95.7402 113.951H96.0501H96.4401H97.1101L95.8601 120.391H95.4101H94.9501C94.7501 120.391 94.4401 120.391 94.0101 120.441L94.8102 116.341C93.5491 117.63 92.3732 118.999 91.2901 120.441H91.0001H90.6401H90.2102H89.9302L91.1901 114.001C91.6001 114.001 91.9002 114.001 92.0902 114.001C92.2802 114.001 92.6302 114.001 93.0302 114.001L92.2402 118.041ZM92.3501 111.671C92.5871 111.977 92.89 112.226 93.2362 112.399C93.5824 112.572 93.9631 112.665 94.3501 112.671C94.7723 112.667 95.1898 112.582 95.5801 112.421C96.0354 112.234 96.4627 111.985 96.8501 111.681L97.1701 112.251C96.7357 112.608 96.2459 112.892 95.7201 113.091C95.2384 113.278 94.7269 113.376 94.2102 113.381C93.7453 113.385 93.285 113.289 92.8601 113.101C92.4366 112.909 92.0635 112.622 91.7701 112.261L92.3501 111.671ZM105.73 118.041C106.017 117.748 106.313 117.434 106.62 117.101C106.92 116.761 107.22 116.431 107.5 116.101L108.31 115.101L109.24 113.951H109.54H109.93H110.6L109.35 120.391H108.9H108.44C108.24 120.391 107.93 120.391 107.51 120.441L108.31 116.341C107.049 117.63 105.873 118.999 104.79 120.441H104.5H104.14H103.71H103.43L104.69 114.001C105.097 114.034 105.4 114.051 105.6 114.051C105.8 114.051 106.11 114.034 106.53 114.001L105.73 118.041ZM119.84 115.811C118.68 117.871 117.843 119.408 117.33 120.421H116.8H116.27C116.303 120.308 116.357 120.203 116.43 120.111C116.8 119.551 117.13 119.041 117.43 118.551L118.43 116.891C118.72 116.401 119.01 115.891 119.28 115.451C119.55 115.011 119.82 114.451 120.08 113.981H120.29H120.56H120.97H121.19H121.44L121.63 115.221C121.717 115.768 121.813 116.378 121.92 117.051C122.03 117.731 122.13 118.301 122.22 118.761C122.31 119.221 122.41 119.761 122.53 120.411H122.02H121.51H120.99H120.48L119.84 115.811ZM126.6 116.631C126.773 116.091 127.052 115.592 127.42 115.161C127.771 114.736 128.212 114.395 128.71 114.161C129.209 113.934 129.752 113.818 130.3 113.821C130.799 113.809 131.294 113.908 131.75 114.111C132.142 114.288 132.471 114.581 132.69 114.951C132.913 115.347 133.023 115.797 133.01 116.251C133.009 116.51 132.982 116.768 132.93 117.021C132.814 117.668 132.565 118.284 132.2 118.831C131.854 119.362 131.379 119.796 130.819 120.093C130.26 120.39 129.634 120.541 129 120.531C128.504 120.545 128.012 120.446 127.56 120.241C127.176 120.064 126.857 119.77 126.65 119.401C126.435 119.002 126.328 118.554 126.34 118.101C126.343 117.873 126.363 117.646 126.4 117.421H125.51L124.92 120.421H124.47H124.01H123.54H123.07L124.33 113.981H124.78H125.23H125.7H126.16L125.64 116.631H126.57H126.6ZM128.41 117.301C128.314 117.745 128.261 118.197 128.25 118.651C128.25 119.518 128.54 119.951 129.12 119.951C129.282 119.949 129.441 119.911 129.586 119.841C129.732 119.77 129.859 119.667 129.96 119.541C130.228 119.216 130.432 118.842 130.56 118.441C130.746 117.908 130.896 117.364 131.01 116.811C131.083 116.482 131.123 116.147 131.13 115.811C131.151 115.465 131.078 115.12 130.92 114.811C130.858 114.697 130.765 114.602 130.652 114.539C130.539 114.475 130.41 114.445 130.28 114.451C129.407 114.451 128.783 115.408 128.41 117.321V117.301ZM141.13 111.301L141.04 111.541C141.003 111.646 140.973 111.752 140.95 111.861C140.95 111.961 140.95 112.061 140.95 112.181C140.95 112.301 140.95 112.391 140.95 112.451C140.318 112.326 139.674 112.269 139.03 112.281C138.349 112.263 137.671 112.372 137.03 112.601C136.543 112.774 136.109 113.071 135.77 113.461C135.485 113.804 135.289 114.213 135.2 114.651C135.542 114.397 135.924 114.201 136.33 114.071C136.746 113.931 137.182 113.86 137.62 113.861C138.142 113.85 138.661 113.953 139.14 114.161C139.552 114.337 139.9 114.633 140.14 115.011C140.381 115.408 140.502 115.867 140.49 116.331C140.488 116.576 140.461 116.821 140.41 117.061C140.289 117.713 140.026 118.331 139.64 118.871C139.266 119.404 138.766 119.838 138.186 120.134C137.606 120.43 136.962 120.58 136.31 120.571C135.798 120.581 135.289 120.479 134.82 120.271C134.407 120.093 134.058 119.793 133.82 119.411C133.586 119.011 133.468 118.554 133.48 118.091C133.48 117.845 133.507 117.601 133.56 117.361C133.745 116.298 134.036 115.256 134.43 114.251C134.703 113.555 135.147 112.94 135.72 112.461C136.331 112 137.045 111.694 137.8 111.571C138.913 111.382 140.041 111.298 141.17 111.321V111.321L141.13 111.301ZM135.51 117.301C135.441 117.654 135.404 118.012 135.4 118.371C135.4 119.424 135.733 119.951 136.4 119.951C136.574 119.945 136.744 119.902 136.899 119.824C137.054 119.746 137.191 119.636 137.3 119.501C137.602 119.155 137.842 118.759 138.01 118.331C138.208 117.843 138.359 117.337 138.46 116.821C138.519 116.528 138.55 116.23 138.55 115.931C138.568 115.552 138.481 115.175 138.3 114.841C138.226 114.712 138.117 114.605 137.987 114.533C137.857 114.461 137.709 114.426 137.56 114.431C137.298 114.439 137.042 114.516 136.819 114.655C136.596 114.794 136.413 114.989 136.29 115.221C135.91 115.861 135.652 116.566 135.53 117.301V117.301H135.51ZM140.71 117.301C140.806 116.8 140.982 116.317 141.23 115.871C141.463 115.451 141.768 115.076 142.13 114.761C142.484 114.453 142.89 114.213 143.33 114.051C143.785 113.884 144.266 113.799 144.75 113.801C145.273 113.79 145.791 113.892 146.27 114.101C146.682 114.277 147.03 114.573 147.27 114.951C147.511 115.348 147.632 115.807 147.62 116.271C147.618 116.516 147.591 116.761 147.54 117.001C147.419 117.653 147.156 118.271 146.77 118.811C146.396 119.344 145.896 119.778 145.316 120.074C144.736 120.37 144.092 120.52 143.44 120.511C142.927 120.521 142.419 120.419 141.95 120.211C141.537 120.033 141.188 119.733 140.95 119.351C140.716 118.951 140.598 118.494 140.61 118.031C140.61 117.785 140.637 117.541 140.69 117.301V117.301H140.71ZM142.71 117.301C142.641 117.654 142.604 118.012 142.6 118.371C142.6 119.424 142.933 119.951 143.6 119.951C143.88 119.911 144.144 119.798 144.366 119.622C144.587 119.446 144.758 119.215 144.86 118.951C145.242 118.273 145.509 117.536 145.65 116.771C145.709 116.478 145.74 116.18 145.74 115.881C145.758 115.502 145.671 115.125 145.49 114.791C145.416 114.662 145.307 114.555 145.177 114.483C145.047 114.411 144.899 114.376 144.75 114.381C144.488 114.389 144.232 114.466 144.009 114.605C143.786 114.744 143.603 114.939 143.48 115.171C143.1 115.811 142.842 116.516 142.72 117.251V117.251L142.71 117.301ZM149.11 113.981H151.9C152.417 113.957 152.932 114.06 153.4 114.281C153.587 114.369 153.741 114.512 153.843 114.691C153.945 114.87 153.99 115.076 153.97 115.281C153.982 115.384 153.982 115.488 153.97 115.591C153.895 115.955 153.693 116.282 153.4 116.511C153.079 116.775 152.685 116.935 152.27 116.971C152.665 117.023 153.043 117.159 153.38 117.371C153.514 117.473 153.62 117.607 153.688 117.761C153.756 117.915 153.784 118.083 153.77 118.251C153.784 118.384 153.784 118.518 153.77 118.651C153.714 118.931 153.595 119.194 153.421 119.421C153.248 119.648 153.025 119.833 152.77 119.961C152.19 120.275 151.539 120.433 150.88 120.421H147.96L149.11 113.981ZM149.79 119.611H150.2C150.556 119.614 150.905 119.51 151.2 119.311C151.339 119.22 151.458 119.101 151.55 118.961C151.641 118.822 151.702 118.665 151.73 118.501C151.742 118.385 151.742 118.267 151.73 118.151C151.73 118.013 151.698 117.877 151.637 117.753C151.576 117.629 151.488 117.521 151.379 117.436C151.27 117.351 151.144 117.292 151.009 117.264C150.874 117.235 150.734 117.238 150.6 117.271H150.19L149.79 119.611ZM150.38 116.611H150.71C151.021 116.652 151.335 116.57 151.587 116.383C151.839 116.197 152.008 115.92 152.06 115.611C152.066 115.521 152.066 115.431 152.06 115.341C152.06 114.888 151.75 114.661 151.13 114.661H150.74L150.38 116.611ZM155.5 113.961H155.99H156.43H156.86H157.34L156.81 116.611H157.97C158.454 116.589 158.933 116.718 159.34 116.981C159.51 117.101 159.647 117.262 159.738 117.449C159.829 117.636 159.871 117.843 159.86 118.051C159.872 118.184 159.872 118.318 159.86 118.451C159.794 118.83 159.612 119.179 159.34 119.451C159.056 119.735 158.715 119.957 158.34 120.101C157.965 120.252 157.565 120.331 157.16 120.331H154.28L155.5 113.961ZM156.2 119.791H156.39C156.731 119.787 157.062 119.671 157.33 119.461C157.635 119.234 157.84 118.897 157.9 118.521C157.912 118.391 157.912 118.261 157.9 118.131C157.913 118 157.896 117.867 157.849 117.744C157.802 117.621 157.727 117.511 157.63 117.421C157.533 117.332 157.416 117.267 157.29 117.23C157.163 117.194 157.03 117.187 156.9 117.211H156.65L156.2 119.791ZM163.69 116.621C163.863 116.082 164.142 115.582 164.51 115.151C164.861 114.726 165.302 114.385 165.8 114.151C166.299 113.924 166.842 113.808 167.39 113.811C167.889 113.799 168.384 113.898 168.84 114.101C169.232 114.278 169.561 114.571 169.78 114.941C170.003 115.337 170.113 115.787 170.1 116.241C170.099 116.5 170.072 116.758 170.02 117.011C169.904 117.658 169.655 118.274 169.29 118.821C168.944 119.352 168.469 119.786 167.909 120.083C167.349 120.38 166.724 120.531 166.09 120.521C165.594 120.535 165.102 120.436 164.65 120.231C164.266 120.054 163.947 119.76 163.74 119.391C163.525 118.992 163.418 118.544 163.43 118.091C163.433 117.863 163.453 117.636 163.49 117.411H162.6L162.01 120.411H161.56H161.1H160.63H160.16L161.42 113.971H161.87H162.32H162.79H163.25L162.73 116.621H163.66H163.69ZM165.5 117.291C165.404 117.735 165.351 118.187 165.34 118.641C165.34 119.508 165.63 119.941 166.21 119.941C166.372 119.939 166.531 119.901 166.676 119.831C166.822 119.76 166.949 119.657 167.05 119.531C167.321 119.206 167.528 118.833 167.66 118.431C167.846 117.898 167.996 117.354 168.11 116.801C168.183 116.472 168.223 116.137 168.23 115.801C168.251 115.455 168.178 115.11 168.02 114.801C167.958 114.687 167.865 114.592 167.752 114.529C167.639 114.465 167.51 114.435 167.38 114.441C166.507 114.441 165.883 115.398 165.51 117.311L165.5 117.291Z" fill="#A7152A"></path> <path d="M69.12 83.6825L66.03 88.1125L66.4 88.7225C68.96 93.3358 70.7 96.5625 71.62 98.4025L70.46 98.3425C69.95 98.3425 69.56 98.3425 69.31 98.3425C69.06 98.3425 68.68 98.3425 68.17 98.3425L67.01 98.4025C66.6167 97.6158 65.4467 95.3458 63.5 91.5925L61.05 95.4525C60.448 96.3955 59.8973 97.3703 59.4 98.3725H58.73H58.06H57.4H56.76C57.9333 96.7058 58.9567 95.2291 59.83 93.9425C60.7034 92.6558 61.59 91.3225 62.49 89.9425L57.03 80.0725L57.91 80.1425L58.71 80.2025H59.4H60.09L60.88 80.1425L61.76 80.0725C62.1133 80.8258 62.4467 81.5158 62.76 82.1425C63.0733 82.7692 63.4734 83.5425 63.96 84.4625L65.06 86.5525C65.4 86.0258 66.0167 85.0258 66.91 83.5525C67.8033 82.0792 68.5267 80.9158 69.08 80.0625C69.5114 80.1146 69.9455 80.1413 70.38 80.1425C70.8145 80.1409 71.2486 80.1142 71.68 80.0625L69.12 83.6825Z" fill="#A7152A"></path> <path d="M79.8 80.1118H80.06H80.37H80.64H80.94C81.5333 81.7385 82.0634 83.1718 82.53 84.4118C82.9967 85.6518 83.5867 87.1851 84.3 89.0118C85.0067 90.8384 85.5667 92.2618 85.98 93.2818L88.08 98.4718L87.19 98.3918L86.4 98.3318H85.74H85.07L84.27 98.3918L83.4 98.4618C83.1 97.4485 82.7667 96.3885 82.4 95.2818C82.02 94.1718 81.68 93.2018 81.4 92.3718L80.12 88.9518C79.5734 87.4918 79.1067 86.2351 78.72 85.1818C76.5667 90.4418 74.9 94.8685 73.72 98.4618C73.3054 98.4088 72.8879 98.3821 72.47 98.3818C72.062 98.3813 71.6544 98.408 71.25 98.4618L73.32 93.5818C73.9467 92.1085 74.5533 90.6584 75.14 89.2318C75.7267 87.8051 76.3167 86.3251 76.91 84.7918C77.51 83.2651 78.0933 81.6985 78.66 80.0918H79.13C79.3455 80.1209 79.5626 80.1376 79.78 80.1418V80.1418L79.8 80.1118Z" fill="#A7152A"></path> <path d="M99.89 80.0312C99.8 80.6913 99.75 81.0312 99.75 81.1812C99.75 81.3312 99.75 81.6812 99.89 82.3312C97.8402 82.0742 95.7758 81.9506 93.71 81.9612V87.7412H96.51C97.6067 87.7177 98.7015 87.6376 99.79 87.5013C99.7169 87.8742 99.6702 88.2517 99.65 88.6312C99.6728 89.0204 99.7196 89.4078 99.79 89.7912C98.7027 89.6464 97.6068 89.5762 96.51 89.5812H93.71V96.3612C95.7761 96.3709 97.8406 96.244 99.89 95.9812C99.8 96.6412 99.75 96.9812 99.75 97.1412C99.75 97.3012 99.75 97.6412 99.89 98.2912H89.72V80.0312H99.89Z" fill="#A7152A"></path> <path d="M107.25 81.9712V87.9712H110.07C111.149 87.9461 112.223 88.1189 113.24 88.4812C114.05 88.7643 114.75 89.2964 115.24 90.0013C115.714 90.7505 115.951 91.6252 115.92 92.5112C115.92 96.3912 113.587 98.3312 108.92 98.3312H103.3V80.0312H115.07C114.892 80.791 114.892 81.5815 115.07 82.3412C112.487 82.0562 109.889 81.9326 107.29 81.9712V81.9712H107.25ZM107.25 96.8012C107.922 96.8234 108.594 96.7595 109.25 96.6112C110.02 96.4163 110.688 95.9377 111.12 95.2712C111.549 94.5784 111.768 93.776 111.75 92.9612C111.789 92.047 111.514 91.147 110.97 90.4112C110.767 90.111 110.494 89.8637 110.176 89.6898C109.858 89.5158 109.503 89.4203 109.14 89.4112H107.22V96.7912L107.25 96.8012Z" fill="#A7152A"></path> </svg> 