<?xml version="1.0" encoding="utf-8"?>
<!-- Generator: Adobe Illustrator 16.2.0, SVG Export Plug-In . SVG Version: 6.00 Build 0)  -->
<!DOCTYPE svg PUBLIC "-//W3C//DTD SVG 1.1//EN" "http://www.w3.org/Graphics/SVG/1.1/DTD/svg11.dtd">
<svg version="1.1" id="Слой_1" xmlns="http://www.w3.org/2000/svg" xmlns:xlink="http://www.w3.org/1999/xlink" x="0px" y="0px"
	 width="258.5px" height="60.335px" viewBox="0 0 258.5 60.335" enable-background="new 0 0 258.5 60.335" xml:space="preserve">
<g>
	<path fill-rule="evenodd" clip-rule="evenodd" fill="#00B7AC" d="M30.167,0c16.615,0,30.168,13.552,30.168,30.167
		c0,16.614-13.553,30.168-30.168,30.168C13.552,60.335,0,46.781,0,30.167C0,13.552,13.552,0,30.167,0 M30.167,1.288
		c15.907,0,28.881,12.971,28.881,28.879c0,15.908-12.974,28.88-28.881,28.88c-15.907,0-28.878-12.972-28.878-28.88
		C1.289,14.259,14.26,1.288,30.167,1.288z M30.167,2.477c15.252,0,27.688,12.438,27.688,27.69S45.419,57.856,30.167,57.856
		c-15.251,0-27.688-12.438-27.688-27.689S14.916,2.477,30.167,2.477z M30.167,3.214c14.843,0,26.952,12.108,26.952,26.953
		c0,14.844-12.109,26.953-26.952,26.953c-14.847,0-26.951-12.109-26.951-26.953C3.216,15.323,15.321,3.214,30.167,3.214z
		 M35.416,50.823c-2.941-0.755-5.474,1.127-5.855,2.779c-0.199,0.853,0.023,1.558,0.567,1.694c1.77,0.451,1.871-1.961,2.359-2.744
		C32.945,51.828,33.966,51.163,35.416,50.823z M44.802,43.667c1.042-0.987,2.884-3.562,3.34-4.71
		c-0.204,0.557-2.954,2.521-5.675,2.565c-2.624,0.043-3.647-1.29-6.043-1.219c-2.394,0.073-3.028,1.032-6.151,1.124
		c-3.127,0.095-4.115-1.414-6.753-1.334c-2.644,0.078-3.068,1.217-6.098,1.307c-2.126,0.063-3.803-0.829-5.102-2.603
		c0.752,1.957,2.086,3.861,3.531,5.307c2.755,3.05,5.17,0.665,7.809,0.587c2.641-0.08,3.506,1.215,6.633,1.121
		c3.12-0.094,3.768-1.237,6.153-1.008C38.365,44.991,41.516,46.654,44.802,43.667z M25.713,17.451
		c1.748-1.655,3.132-5.058-0.4-8.163C30.084,12.936,26.936,16.914,25.713,17.451z M17.933,46.003
		c2.267,1.501,3.089,0.006,5.728-0.257c2.629-0.261,3.628,1.215,6.754,1.124c3.124-0.095,3.697-1.092,6.031-1.009
		c1.404,0.049,4.141,1.528,6.003-0.095c-3.294,2.84-7.05,4.267-11.803,4.413C25.891,50.321,21.386,48.727,17.933,46.003z
		 M11.438,27.781c-0.049,0.5,0.182,2.238,0.699,3.406c0.524,1.17,1.897,2.608,2.827,2.679c0.935,0.079,1.214,0.17,3.841-0.516
		c2.629-0.681,4.215-1.066,6.333-1.067c2.118,0,3.88,1.241,6.042,1.299c2.111,0.056,4.34-1.191,6.887-1.204
		c2.545-0.014,3.612,0.979,6.591,1.04c2.982,0.059,5.519-1.515,5.814-2.168c-0.162,0.307-2.553,1.786-5.737,1.781
		c-3.184-0.002-4.049-1.056-6.593-1.04c-2.546,0.011-4.772,1.262-6.882,1.202c-2.164-0.056-3.929-1.297-6.045-1.297
		c-2.119,0.003-3.192,0.176-6.331,1.072c-3.138,0.89-3.603,0.569-3.858,0.559c-0.25-0.012-1.954-1.12-2.685-2.493
		C11.612,29.662,11.435,27.99,11.438,27.781z M11.354,28.084c0.125-1.392,0.349-3,0.977-4.226c0.944-1.83,1.354-2.422,3.035-3.88
		c1.806-1.568,4.246-1.831,4.808-1.885c0.407-0.04,3.35-0.339,4.744,1.542c0.013,0.014,0.336,0.396,0.544,0.767
		c0.162,0.285,0.366,0.683,0.393,0.761c0.139,0.137,0.202,0.06,0.162-0.314c-0.284-0.978-0.786-1.521-0.951-1.943
		c-0.103-0.119-0.332-0.527-0.244-0.747c0.09-0.218,0.212-0.191,0.403-0.272c0.513-0.214,0.589-0.292,1.345-0.691
		c1.707-1.436,2.401-4.325,0.847-6.38c-1.391-1.847-3.068-2.949-5.863-3.059c-2.792-0.112-4.211,1.605-4.373,2.041
		c-0.144,0.379-0.493,0.792-0.47,1.935c-0.013-0.765,0.494-2.501,2.656-3.049c2.078-0.527,6.389,0.852,6.755,5.106
		c0.272,3.135-1.517,3.819-1.636,4.192l-0.136-0.064c0.125-0.169,0.966-0.973,0.917-2.24c-0.062-1.733-0.707-3.71-3.007-4.496
		c-2.299-0.786-5.042-0.843-5.396,0.643c-0.416,1.733,2.181,3.53,3.073,3.795c-0.073-0.09-0.655-0.344-0.631-1.019
		c0.041-1.207,1.954-1.232,2.5-1.139c3.374,0.608,2.647,3.594,2.647,3.555c-0.021-0.62-0.637-2.697-2.445-2.916
		c-0.964-0.083-1.574,0.197-1.808,0.481c-0.376,0.456-0.182,1.04,0.225,1.177c1.273,0.433,1.188,0.139,2.524,0.429
		c1.335,0.287,1.187,1.31,0.088,1.29c-1.07-0.021-1.753-0.085-4.215,0.337c-2.581,0.442-4.622,2.409-5.268,3.194
		c-0.653,0.799-2.259,2.444-2.778,5.847c-0.516,3.4-0.565,4.637,0.213,8.235c0.234,1.066,0.653,1.992,1.209,2.76
		c1.314,1.817,3.147,2.516,5.277,2.453c3.031-0.094,3.539-1.075,6.177-1.151c2.641-0.08,3.557,1.356,6.679,1.264
		c3.125-0.095,3.588-1.229,5.984-1.302c2.392-0.066,3.552,1.654,6.164,1.395c2.881-0.285,4.423-1.088,5.695-2.606
		c0.928-1.106,1.228-2.8,1.843-4.945c-1.816,1.526-4.971,2.064-7.885,1.146c-2.917-0.92-4.291-1.094-7.841,0.038
		c-3.554,1.136-4.895,0.35-6.863-0.35c-1.969-0.699-3.146-0.689-4.689-0.373c-1.586,0.327-4.133,1.272-6.009,1.207
		c-1.875-0.069-2.292-0.506-2.546-0.545c-0.26-0.037-1.627-0.943-2.123-2.193C11.57,30.634,11.261,29.09,11.354,28.084z"/>
	<path fill-rule="evenodd" clip-rule="evenodd" fill="#00B7AC" d="M221.568,44.308c1.068,0,1.893-0.067,2.485-0.187
		c0.582-0.122,1.069-0.452,1.438-0.974c0.367-0.522,0.553-1.378,0.553-2.548V19.018c0-1.519-0.242-2.614-0.729-3.278
		c-0.489-0.663-1.275-0.992-2.361-0.992c-1.214,0-2.227,0.235-3.043,0.693c-0.813,0.459-1.69,1.208-2.603,2.228
		c-1.447,1.62-2.827,3.654-4.151,6.096c-1.327,2.443-2.417,5.141-3.271,8.101c-0.856,2.958-1.283,5.905-1.283,8.848
		c0.079,0.938,0.195,1.619,0.35,2.06c0.149,0.44,0.388,0.767,0.72,1.001c0.321,0.226,0.76,0.376,1.302,0.44
		c0.554,0.07,1.331,0.094,2.362,0.094H221.568z M198.121,45.936c0.446,0.377,0.892,0.564,1.34,0.564c1.35,0,2.381-1.967,3.079-5.9
		c0.341-1.911,0.777-3.858,1.31-5.831c0.548-1.978,1.238-4.021,2.093-6.145c0.845-2.124,1.876-4.24,3.088-6.349
		c1.218-2.106,2.633-4.108,4.246-6.013c0.508-0.663,0.762-1.368,0.762-2.125c0-1.02-0.506-1.526-1.519-1.526h-0.526v-1.396h29.211
		v1.396c-0.984,0-1.703,0.291-2.17,0.859c-0.467,0.582-0.755,1.288-0.862,2.108c-0.118,0.835-0.177,1.92-0.177,3.277v22.035
		c0,1.722,0.115,3.081,0.361,4.044c0.241,0.975,0.749,1.454,1.504,1.454c0.341,0,0.79-0.151,1.344-0.453l2.556,12.87l-1.169,0.23
		c-0.534-1.403-1.172-2.743-1.893-4.007c-0.73-1.263-1.613-2.406-2.663-3.416c-1.041-1.022-2.34-1.847-3.885-2.48
		c-1.556-0.63-3.364-0.949-5.433-0.949h-18.353c-3.86,0-6.934,1.062-9.205,3.175c-2.282,2.117-3.849,4.683-4.682,7.678l-1.224-0.23
		L198.121,45.936z M171.36,17.668c-1.41,1.593-2.78,3.614-4.11,6.078c-1.321,2.452-2.409,5.17-3.254,8.138
		c-0.847,2.967-1.267,5.906-1.267,8.829c0,1.508,0.42,2.837,1.267,3.989c0.838,1.152,2.206,1.807,4.11,1.967l0.524,0.063v1.452
		h-12.72v-0.505c0-2.171,0.32-4.999,0.972-8.509c0.644-3.504,1.815-7.324,3.536-11.482c1.712-4.15,4.032-7.959,6.967-11.425
		c0.514-0.684,0.77-1.368,0.77-2.068c0-1.06-0.525-1.583-1.577-1.583h-0.532v-1.396h29.217v1.396c-0.98,0-1.701,0.291-2.166,0.859
		c-0.467,0.582-0.759,1.288-0.864,2.108c-0.118,0.835-0.175,1.92-0.175,3.277v22.035c0,2.015,0.175,3.503,0.525,4.457
		c0.346,0.965,1.243,1.441,2.68,1.441v1.395h-18.411v-1.338c1.007,0,1.756-0.272,2.232-0.825c0.468-0.55,0.76-1.233,0.867-2.049
		c0.105-0.824,0.156-1.949,0.156-3.372V19.018c0-1.519-0.245-2.614-0.739-3.278c-0.497-0.663-1.286-0.992-2.353-0.992
		C174.992,14.748,173.108,15.72,171.36,17.668z M124.664,40.891c0,2.136,0.252,3.643,0.756,4.522
		c0.497,0.89,1.398,1.348,2.693,1.376v1.395h-18.607v-1.395c1.186,0,2.011-0.433,2.486-1.3c0.478-0.87,0.719-2.311,0.719-4.325
		V18.24c0-2.017-0.241-3.455-0.719-4.327c-0.475-0.871-1.3-1.301-2.486-1.301v-1.396h18.607v1.396c-1.197,0-2.061,0.453-2.617,1.347
		c-0.553,0.909-0.832,2.334-0.832,4.281v10.676l11.6-10.676c0-1.977-0.272-3.405-0.816-4.298c-0.544-0.889-1.419-1.33-2.623-1.33
		v-1.396h18.597v1.396c-1.176,0-1.989,0.44-2.479,1.311c-0.483,0.874-0.727,2.314-0.727,4.317v22.924
		c0,2.002,0.243,3.443,0.727,4.314c0.489,0.87,1.303,1.311,2.479,1.311v1.395h-18.597v-1.395c1.281-0.028,2.187-0.486,2.682-1.376
		c0.506-0.88,0.758-2.387,0.758-4.522v-17.37l-11.6,10.674V40.891z M81.521,40.771c0,1.087,0.057,1.874,0.184,2.348
		c0.127,0.479,0.429,0.835,0.913,1.05c0.484,0.217,1.283,0.32,2.401,0.32c1.661,0,3.147-0.291,4.46-0.872
		c1.311-0.581,2.334-1.442,3.061-2.585c0.737-1.142,1.108-2.535,1.108-4.185c0-1.814-0.528-3.476-1.578-4.992
		c-1.049-1.517-2.494-2.715-4.343-3.583c-1.855-0.882-3.924-1.323-6.207-1.323V40.771z M85.834,14.915
		c-1.875,0-3.106,0.28-3.731,0.851c-0.387,0.377-0.582,1.235-0.582,2.589v4.66c3.399,0,6.578,0.289,9.544,0.883
		c2.962,0.578,5.564,1.468,7.799,2.665c2.245,1.191,3.993,2.699,5.247,4.514c1.254,1.807,1.887,3.925,1.887,6.331
		c0,1.889-0.508,3.585-1.519,5.082c-1.009,1.5-2.429,2.746-4.245,3.738c-2.344,1.301-6.111,1.956-11.311,1.956H66.42v-1.395
		c1.186,0,2.011-0.44,2.488-1.3c0.477-0.87,0.721-2.311,0.721-4.325V18.24c0-2.017-0.244-3.455-0.721-4.327
		c-0.477-0.861-1.302-1.301-2.488-1.301v-1.396h28.091h1.526c1.631,0,2.76-0.299,3.371-0.908l2.973,12.922l-1.284,0.406
		c-0.826-2.681-2.378-4.808-4.651-6.369c-2.286-1.565-4.909-2.352-7.882-2.352H85.834z"/>
	<path fill-rule="evenodd" clip-rule="evenodd" fill="#00B7AC" d="M252.829,10.875c-2.763,0-5.016-2.172-5.016-4.836
		c0-2.661,2.253-4.833,5.016-4.833c2.765,0,5.019,2.172,5.019,4.833C257.847,8.703,255.593,10.875,252.829,10.875 M250.29,2.736
		h0.091h2.721c0.063,0,0.199,0.007,0.42,0.024c0.218,0.016,0.451,0.071,0.696,0.168c0.284,0.113,0.552,0.297,0.788,0.554
		c0.243,0.261,0.363,0.648,0.363,1.15c0,0.557-0.135,0.975-0.41,1.259c-0.269,0.286-0.568,0.49-0.896,0.614
		c-0.01,0.006-0.022,0.009-0.036,0.011c-0.013,0.004-0.022,0.008-0.037,0.013l1.838,2.527h-0.094h-2.223l-1.293-1.94v1.94h-0.092
		h-1.837V2.736z M252.829,0.574c1.562,0,2.98,0.616,4.008,1.607l0,0c1.028,0.989,1.664,2.356,1.664,3.858
		c0,1.506-0.636,2.874-1.664,3.864l0,0l0,0c-1.027,0.99-2.446,1.604-4.008,1.604c-1.559,0-2.979-0.614-4.005-1.604l0,0l0,0
		c-1.025-0.99-1.666-2.357-1.666-3.864c0-1.502,0.641-2.869,1.666-3.858l0,0C249.849,1.19,251.27,0.574,252.829,0.574z
		 M252.575,5.583c0.311,0,0.534-0.067,0.654-0.208c0.126-0.14,0.196-0.293,0.211-0.455c0-0.009,0-0.02,0-0.034
		c0-0.011,0-0.024,0-0.033c0-0.014,0-0.029,0-0.043c0-0.013,0-0.031,0-0.049c-0.021-0.158-0.094-0.301-0.22-0.436
		c-0.123-0.13-0.341-0.194-0.646-0.194h-0.356v1.451H252.575z"/>
</g>
</svg>
