<svg width="73" height="129" viewBox="0 0 73 129" fill="none" xmlns="http://www.w3.org/2000/svg">
<path fill-rule="evenodd" clip-rule="evenodd" d="M36.5465 25.5007C37.1666 25.52 37.7108 25.919 37.9157 26.5045L62.4157 96.5045C62.6894 97.2864 62.2773 98.1421 61.4954 98.4158C60.7135 98.6895 59.8578 98.2775 59.5841 97.4955L52.1649 76.2976L13.094 86.402L8.38217 97.5825C8.06045 98.3459 7.18078 98.704 6.41737 98.3823C5.65397 98.0606 5.29591 97.1809 5.61763 96.4175L35.1176 26.4175C35.3585 25.8458 35.9265 25.4814 36.5465 25.5007ZM14.5596 82.9243L47.7752 74.3342L21.7537 65.8536L14.5596 82.9243ZM25.7044 63.9858L50.7078 72.1346L45.5469 57.3892L25.7044 63.9858ZM44.5557 54.5573L36.3702 31.1702L23.5747 61.5324L44.5557 54.5573Z" fill="black"/>
<path d="M41.5 27C41.5 29.7614 39.2614 32 36.5 32C33.7386 32 31.5 29.7614 31.5 27C31.5 24.2386 33.7386 22 36.5 22C39.2614 22 41.5 24.2386 41.5 27Z" fill="black"/>
<path fill-rule="evenodd" clip-rule="evenodd" d="M20.6214 8.94117C21.2062 9.52797 21.2045 10.4777 20.6178 11.0625C16.5281 15.138 14 20.7724 14 27C14 33.2276 16.5281 38.862 20.6178 42.9375C21.2045 43.5223 21.2062 44.472 20.6214 45.0588C20.0366 45.6456 19.0869 45.6473 18.5001 45.0625C13.8688 40.4471 11 34.0572 11 27C11 19.9428 13.8688 13.5529 18.5001 8.93751C19.0869 8.35274 20.0366 8.35438 20.6214 8.94117ZM52.3786 8.94117C52.9634 8.35438 53.9131 8.35274 54.4999 8.93751C59.1312 13.5529 62 19.9428 62 27C62 34.0572 59.1312 40.4471 54.4999 45.0625C53.9131 45.6473 52.9634 45.6456 52.3786 45.0588C51.7938 44.472 51.7954 43.5223 52.3822 42.9375C56.4719 38.862 59 33.2276 59 27C59 20.7724 56.4719 15.138 52.3822 11.0625C51.7954 10.4777 51.7938 9.52797 52.3786 8.94117Z" fill="black"/>
<path fill-rule="evenodd" clip-rule="evenodd" d="M12.8523 0.936735C13.4395 1.52108 13.4419 2.47082 12.8575 3.05805C6.76812 9.17747 3 17.6424 3 27C3 36.3576 6.76812 44.8225 12.8575 50.942C13.4419 51.5292 13.4395 52.4789 12.8523 53.0633C12.2651 53.6476 11.3153 53.6453 10.731 53.058C4.10237 46.3967 0 37.1789 0 27C0 16.8211 4.10237 7.60326 10.731 0.941951C11.3153 0.354726 12.2651 0.352391 12.8523 0.936735ZM60.1477 0.936735C60.7349 0.352391 61.6847 0.354726 62.269 0.941951C68.8976 7.60326 73 16.8211 73 27C73 37.1789 68.8976 46.3967 62.269 53.058C61.6847 53.6453 60.7349 53.6476 60.1477 53.0633C59.5605 52.4789 59.5581 51.5292 60.1425 50.942C66.2319 44.8225 70 36.3576 70 27C70 17.6424 66.2319 9.17747 60.1425 3.05805C59.5581 2.47082 59.5605 1.52108 60.1477 0.936735Z" fill="black"/>
<path d="M17.5085 109.32C17.5085 109.872 17.0608 110.32 16.5085 110.32H9.86596V123.559C9.86596 124.111 9.41825 124.559 8.86596 124.559H8C7.44772 124.559 7 124.111 7 123.559V109C7 108.448 7.44772 108 8 108H16.5085C17.0608 108 17.5085 108.448 17.5085 109V109.32Z" fill="black"/>
<path d="M29.5865 116.167C29.5865 116.719 29.1388 117.167 28.5865 117.167H22.7855V122.262H29.7352C30.2875 122.262 30.7352 122.709 30.7352 123.262V123.559C30.7352 124.111 30.2875 124.559 29.7352 124.559H19.9082V108H29.6556C30.2079 108 30.6556 108.448 30.6556 109V109.32C30.6556 109.872 30.2078 110.32 29.6556 110.32H22.7855V114.892H28.5865C29.1388 114.892 29.5865 115.34 29.5865 115.892V116.167Z" fill="black"/>
<path d="M35.9553 118.406V123.559C35.9553 124.111 35.5076 124.559 34.9553 124.559H34.078C33.5257 124.559 33.078 124.111 33.078 123.559V108H39.4127C41.2627 108 42.7298 108.481 43.814 109.444C44.9058 110.407 45.4517 111.681 45.4517 113.266C45.4517 114.888 44.9171 116.151 43.8481 117.053C42.7866 117.955 41.2968 118.406 39.3786 118.406H35.9553ZM35.9553 116.097H39.4127C40.4362 116.097 41.2172 115.859 41.7555 115.381C42.2938 114.896 42.563 114.198 42.563 113.288C42.563 112.394 42.29 111.681 41.7441 111.15C41.1982 110.612 40.4476 110.335 39.4923 110.32H35.9553V116.097Z" fill="black"/>
<path d="M47.9537 109C47.9537 108.448 48.4014 108 48.9537 108H49.831C50.3833 108 50.831 108.448 50.831 109V122.262H58.121V109C58.121 108.448 58.5688 108 59.121 108H59.9984C60.5507 108 60.9984 108.448 60.9984 109V122.239H63L62.8073 127.587C62.7879 128.125 62.3462 128.551 61.8079 128.551H61.134C60.5818 128.551 60.134 128.103 60.134 127.551V124.559H48.9537C48.4014 124.559 47.9537 124.111 47.9537 123.559V109Z" fill="black"/>
</svg>
